<?xml version="1.0" encoding="UTF-8"?>
<svg version="1.1" xmlns="http://www.w3.org/2000/svg" width="4000" height="4000">
<path d="M0 0 C0.77472656 0.65097656 1.54945313 1.30195312 2.34765625 1.97265625 C7.05349236 5.95312264 11.05965187 10.26821443 15 15 C15.99773437 16.14855469 15.99773437 16.14855469 17.015625 17.3203125 C31.95784618 34.89623454 43.84030289 55.4434363 52 77 C45.10809939 80.56803433 38.12315572 83.69991366 30.9375 86.625 C22.25875085 90.19628661 13.64121377 93.88225065 5.0625 97.6875 C-2.68481058 101.12338838 -10.45505467 104.46484999 -18.30981445 107.64697266 C-22.47132222 109.34196447 -26.55646404 111.15137173 -30.625 113.0625 C-35.39795738 115.28947885 -40.19794397 117.41992863 -45.0625 119.4375 C-45.69430176 119.70892822 -46.32610352 119.98035645 -46.97705078 120.26000977 C-49.43237715 121.2595789 -51.60419597 121.98771643 -54.265625 122.0703125 C-57.16712174 120.2797492 -57.59369529 117.58752616 -58.6875 114.4375 C-63.56535198 101.27509277 -70.38675179 89.30225235 -80 79 C-80.73476563 78.21109375 -81.46953125 77.4221875 -82.2265625 76.609375 C-89.15208352 69.79966537 -97.12174712 65.69190604 -106 62 C-106.6585498 61.72607422 -107.31709961 61.45214844 -107.99560547 61.16992188 C-125.03445382 54.42705007 -144.88579535 54.705593 -162 61 C-163.051875 61.37382813 -164.10375 61.74765625 -165.1875 62.1328125 C-186.7324225 70.43200458 -199.50375936 86.55957707 -209 107 C-214.52379061 119.57023578 -217.99526962 132.43216859 -220 146 C-220.17732666 147.18996582 -220.35465332 148.37993164 -220.53735352 149.60595703 C-222.19783698 161.60355544 -222.3563763 173.52857519 -222.3125 185.625 C-222.31100952 186.6402475 -222.30951904 187.655495 -222.3079834 188.70150757 C-222.26931064 203.34131226 -221.89813407 217.60393684 -219 232 C-218.86609863 232.7317041 -218.73219727 233.4634082 -218.59423828 234.21728516 C-213.65127082 260.93327535 -201.66929596 288.07506166 -179.00390625 304.12109375 C-161.65462127 315.47206651 -140.42826061 317.75337337 -120.15234375 314.31640625 C-98.39188717 309.68641338 -79.90980732 294.71825721 -67.79101562 276.42504883 C-61.95364206 267.12611274 -57.53326402 256.97812244 -53 247 C-48.59723168 247.65729402 -44.80423618 249.27729107 -40.78515625 251.10546875 C-39.35102454 251.74532743 -37.9162689 252.38378913 -36.48095703 253.02099609 C-35.74161926 253.34952576 -35.00228149 253.67805542 -34.24053955 254.01654053 C-30.63774756 255.59794529 -27.00630582 257.10822114 -23.37109375 258.61328125 C-22.64740097 258.91334076 -21.92370819 259.21340027 -21.17808533 259.52255249 C-19.69251636 260.13801432 -18.20677141 260.75305153 -16.72085571 261.36767578 C-4.62561132 266.3725376 7.4367067 271.43781001 19.42236328 276.70092773 C25.71634876 279.46032807 32.04484262 282.11944674 38.42651367 284.66992188 C43.08129177 286.54898134 47.53059455 288.71332744 52 291 C51.79503906 289.94941406 51.59007812 288.89882812 51.37890625 287.81640625 C51.10658787 286.39847263 50.83446289 284.98050185 50.5625 283.5625 C50.42779297 282.87478516 50.29308594 282.18707031 50.15429688 281.47851562 C48.63378892 273.50512027 47.84459395 265.63588714 47.83203125 257.51953125 C47.82870285 256.74421555 47.82537445 255.96889984 47.82194519 255.17008972 C47.81692131 253.54072658 47.81453545 251.9113533 47.81469727 250.28198242 C47.81252055 247.83559502 47.7943428 245.3896668 47.77539062 242.94335938 C47.74045396 233.44918523 48.32494368 224.37303564 50 215 C50.17168701 213.98123779 50.34337402 212.96247559 50.52026367 211.9128418 C54.00813493 191.82459308 59.18266361 172.77598687 69.00585938 154.82470703 C69.97187735 153.05161804 70.90063516 151.25838714 71.828125 149.46484375 C83.52919025 127.6605478 101.47100523 110.42049618 122 97 C122.88042969 96.40703125 123.76085937 95.8140625 124.66796875 95.203125 C143.28077525 83.28580311 166.2389711 76.06493365 188 73 C189.26714844 72.81695313 190.53429687 72.63390625 191.83984375 72.4453125 C199.43868701 71.63899661 207.11645325 71.75559366 214.75 71.75 C215.57536255 71.74932526 216.4007251 71.74865051 217.25109863 71.74795532 C236.28414668 71.77266217 253.95636057 73.73241435 272 80 C272.84095215 80.29036133 273.6819043 80.58072266 274.54833984 80.87988281 C295.9634667 88.38862745 314.59734396 99.23024387 331 115 C331.90492188 115.85335938 332.80984375 116.70671875 333.7421875 117.5859375 C356.38112261 139.47233183 369.33323514 168.16534532 376.1875 198.5 C376.56273804 200.15467285 376.56273804 200.15467285 376.94555664 201.84277344 C380.15009393 216.54097557 381.38204716 230.70045995 381.3125 245.6875 C381.31034485 246.52582367 381.3081897 247.36414734 381.30596924 248.22787476 C381.25444398 260.72930159 380.74686334 272.76419319 378 285 C377.79068848 285.97678711 377.58137695 286.95357422 377.36572266 287.95996094 C370.6927601 318.7982097 359.79108625 344.97065606 339 369 C338.28199219 369.85207031 337.56398438 370.70414063 336.82421875 371.58203125 C331.42939197 377.82009916 325.53599966 382.9863322 319 388 C317.72189453 389.00160156 317.72189453 389.00160156 316.41796875 390.0234375 C290.33921683 409.80731827 257.05766194 421.00847204 224.328125 421.203125 C223.13373055 421.21371445 223.13373055 421.21371445 221.91520691 421.22451782 C193.99709138 421.41583205 165.28012803 420.40767924 140 407 C138.50461265 406.24729289 137.00843968 405.4961456 135.51171875 404.74609375 C126.46138989 400.15933209 117.8860215 395.4448626 110 389 C109.45537109 388.55930176 108.91074219 388.11860352 108.34960938 387.66455078 C79.64934639 364.30405558 60.10969393 332.43166142 53 296 C53 294.68 53 293.36 53 292 C52.34 292 51.68 292 51 292 C50.90847656 292.67289063 50.81695313 293.34578125 50.72265625 294.0390625 C49.81249757 297.76825319 48.18743443 300.98594384 46.4375 304.375 C46.08107422 305.07326904 45.72464844 305.77153809 45.35742188 306.4909668 C44.61246893 307.94503247 43.86422021 309.39741404 43.11279297 310.84814453 C42.05567539 312.89233811 41.01345699 314.94355921 39.97265625 316.99609375 C35.94283057 324.8505179 31.41173195 332.0106783 26 339 C25.23945312 340.02609375 24.47890625 341.0521875 23.6953125 342.109375 C17.63804052 350.24122286 10.99883281 357.67075019 4 365 C3.09701172 365.98226562 3.09701172 365.98226562 2.17578125 366.984375 C-11.5618821 381.51792312 -30.08421526 393.33854254 -48 402 C-48.62841797 402.30389648 -49.25683594 402.60779297 -49.90429688 402.92089844 C-73.92420969 414.34559809 -100.92241399 420.99504349 -127.5546875 421.23828125 C-128.445616 421.24812042 -129.33654449 421.25795959 -130.25447083 421.26809692 C-150.14184854 421.44235156 -169.49499878 421.36528488 -189 417 C-190.04027344 416.76925781 -191.08054687 416.53851562 -192.15234375 416.30078125 C-208.37081912 412.54889405 -223.18004296 406.51571288 -238 399 C-238.69125977 398.65356445 -239.38251953 398.30712891 -240.09472656 397.95019531 C-262.89111646 386.34147961 -283.49401736 368.26206748 -299 348 C-299.47211914 347.38640625 -299.94423828 346.7728125 -300.43066406 346.140625 C-314.86202821 327.13948722 -324.74411516 306.29571237 -333 284 C-333.41137207 282.9164624 -333.41137207 282.9164624 -333.83105469 281.81103516 C-339.91198633 265.70600365 -342.90451215 248.49067434 -345.10009766 231.47412109 C-345.20628418 230.65121582 -345.3124707 229.82831055 -345.421875 228.98046875 C-345.51049805 228.25754639 -345.59912109 227.53462402 -345.69042969 226.78979492 C-345.9281326 224.90354303 -345.9281326 224.90354303 -347 223 C-347.09701224 220.82530313 -347.12796946 218.64756229 -347.12939453 216.47070312 C-347.13114685 215.80062729 -347.13289917 215.13055145 -347.13470459 214.44017029 C-347.1391135 212.22050401 -347.1361885 210.00091712 -347.1328125 207.78125 C-347.13348582 206.24190251 -347.13445607 204.70255513 -347.13571167 203.16320801 C-347.13718734 199.93512969 -347.13503828 196.70707902 -347.13037109 193.47900391 C-347.12467388 189.33600921 -347.12795358 185.19307929 -347.13394356 181.05008698 C-347.13755269 177.87086497 -347.13640896 174.69165838 -347.13381577 171.51243591 C-347.13314747 169.98457329 -347.13397152 168.45670927 -347.13629532 166.92884827 C-347.1388276 164.7956266 -347.13497311 162.66251065 -347.12939453 160.52929688 C-347.12859894 159.31399292 -347.12780334 158.09868896 -347.12698364 156.84655762 C-347 154 -347 154 -346 152 C-345.69849671 150.21793948 -345.44006053 148.4285071 -345.203125 146.63671875 C-341.09376902 116.59432078 -334.04844164 86.73913044 -319.12353516 60.015625 C-317.81021635 57.65952763 -316.53864753 55.28225744 -315.26171875 52.90625 C-309.45876931 42.27801157 -303.17044268 32.61303965 -295.25 23.44677734 C-294.22194092 22.25687928 -293.21701913 21.04702986 -292.21875 19.83203125 C-278.48388514 3.39924651 -262.26169422 -9.95450151 -244 -21 C-243.09241943 -21.56050049 -243.09241943 -21.56050049 -242.16650391 -22.13232422 C-219.21232497 -36.21961802 -191.66317675 -44.74963179 -165 -48 C-163.98486328 -48.13921875 -163.98486328 -48.13921875 -162.94921875 -48.28125 C-103.79181711 -55.45805782 -44.95021147 -39.21950722 0 0 Z M182.25 181.125 C169.53927538 197.75188097 165.03421416 218.31079584 164.25 238.875 C164.20907227 239.94637207 164.16814453 241.01774414 164.12597656 242.12158203 C163.71869451 256.37855337 164.1313885 271.45426639 169 285 C169.20109375 285.59973633 169.4021875 286.19947266 169.609375 286.81738281 C174.94320374 302.71808449 181.81769699 315.44678605 197.25 323.4375 C206.2389663 327.80119131 216.42202924 328.46803478 226.125 325.9375 C239.4966775 321.27043724 248.47969468 312.14472384 254.55639648 299.578125 C259.51018575 288.80015032 262.74364939 277.8270247 264 266 C264.12246094 264.99582031 264.24492188 263.99164062 264.37109375 262.95703125 C267.09729658 235.32477787 264.29991125 204.72445969 247 182 C246.2575 180.948125 245.515 179.89625 244.75 178.8125 C236.44948336 170.32333525 226.14576808 166.90590295 214.5 166.625 C201.52082089 166.93806563 190.83623241 171.14368461 182.25 181.125 Z " fill="#000000" transform="translate(659,1530)"/>
<path d="M0 0 C1.66675781 0.8353125 1.66675781 0.8353125 3.3671875 1.6875 C14.88375229 7.9094363 29.56670936 19.40243155 34 32 C34.99966797 31.18208984 34.99966797 31.18208984 36.01953125 30.34765625 C37.96617224 28.75494998 39.91419634 27.16393333 41.86328125 25.57421875 C43.85424872 23.94647247 45.82679961 22.30271305 47.79296875 20.64453125 C66.59319008 4.88272953 90.62540101 -7.14513641 115 -11 C116.15371094 -11.18304687 117.30742188 -11.36609375 118.49609375 -11.5546875 C135.19100663 -13.54805055 153.69573709 -13.24609327 170 -9 C171.54494141 -8.59974609 171.54494141 -8.59974609 173.12109375 -8.19140625 C195.86618108 -1.39506541 217.50592348 13.67088533 229.234375 34.578125 C229.81703125 35.70734375 230.3996875 36.8365625 231 38 C231.50370117 38.94649414 231.50370117 38.94649414 232.01757812 39.91210938 C236.228064 47.89109642 239.54580532 55.90052507 241.875 64.625 C242.06602295 65.33930176 242.2570459 66.05360352 242.45385742 66.78955078 C246.20456402 82.02711529 246.27952065 97.1414356 246.22705078 112.73413086 C246.22648568 115.10084529 246.22680516 117.46756007 246.22793579 119.83427429 C246.22850644 126.21751118 246.21679899 132.60067195 246.20278788 138.98389125 C246.19150676 144.99155796 246.18953698 150.99922208 246.18748413 157.00689716 C246.18312254 168.89483043 246.16985544 180.78273602 246.15087891 192.6706543 C246.13248013 204.20873886 246.11836624 215.74681584 246.10986328 227.28491211 C246.10932729 228.00509287 246.10879129 228.72527364 246.10823905 229.46727806 C246.10361246 235.73323556 246.09930729 241.99919328 246.09503365 248.26515102 C246.07626324 275.17679342 246.03640808 302.0883623 246 329 C207.72 329 169.44 329 130 329 C129.96261719 314.02625 129.92523437 299.0525 129.88671875 283.625 C129.8564358 274.12759498 129.82540669 264.63020206 129.79101562 255.1328125 C129.73659105 240.06478993 129.6851753 224.99680095 129.65356445 209.92871094 C129.63052525 198.95319979 129.59706134 187.97777727 129.55129844 177.0023365 C129.52744597 171.19581939 129.50866504 165.38938962 129.50238609 159.58282471 C129.49629903 154.10645641 129.47616953 148.63031136 129.44572449 143.15402603 C129.43700196 141.15474122 129.43320953 139.15542716 129.43499184 137.15612411 C129.88349507 112.45104317 129.88349507 112.45104317 119.21484375 91.16796875 C110.53668356 84.07706649 100.86049052 83.07291478 89.99707031 83.78417969 C82.16309487 84.63078535 74.33562567 87.70349354 67.51176357 91.58595181 C65 93 65 93 62.60653019 94.02672672 C59.54409517 95.70337185 57.98369928 97.09366066 56 100 C54.18722621 107.02036781 54.80565316 114.6307233 54.88647461 121.81616211 C54.87914876 124.07333937 54.86786969 126.33050674 54.85293579 128.58764648 C54.82363007 134.70940993 54.84962849 140.829838 54.88552547 146.95151973 C54.91365789 153.3510851 54.89097499 159.75046491 54.87367249 166.15003967 C54.85148492 176.8893742 54.86061076 187.62815631 54.89379883 198.36743164 C54.92788993 209.4267396 54.94295648 220.48580653 54.93286133 231.54516602 C54.93195304 232.57886433 54.93195304 232.57886433 54.9310264 233.63344544 C54.92559408 239.62830863 54.91872447 245.62316997 54.9117136 251.6180315 C54.88340994 277.41231274 54.9494661 303.20547382 55 329 C16.72 329 -21.56 329 -61 329 C-61.03738281 314.02625 -61.07476563 299.0525 -61.11328125 283.625 C-61.1435642 274.12759498 -61.17459331 264.63020206 -61.20898438 255.1328125 C-61.26340895 240.06478993 -61.3148247 224.99680095 -61.34643555 209.92871094 C-61.36947475 198.95319979 -61.40293866 187.97777727 -61.44870156 177.0023365 C-61.47255403 171.19581939 -61.49133496 165.38938962 -61.49761391 159.58282471 C-61.50370097 154.10645641 -61.52383047 148.63031136 -61.55427551 143.15402603 C-61.56299804 141.15474122 -61.56679047 139.15542716 -61.56500816 137.15612411 C-61.11650493 112.45104317 -61.11650493 112.45104317 -71.78515625 91.16796875 C-80.4610166 84.07894568 -90.10755376 83.08387043 -100.96435547 83.79296875 C-112.99297694 85.0163162 -125.20352296 90.46867987 -133.70926118 99.15862775 C-136.13446061 102.61842525 -135.82347466 106.28163206 -135.75949097 110.37728882 C-135.76870107 111.31346531 -135.77791117 112.24964179 -135.78740036 113.21418726 C-135.81096999 116.34697804 -135.79187596 119.47803918 -135.77294922 122.61083984 C-135.78112002 124.85801251 -135.79192242 127.10517692 -135.80516052 129.35232544 C-135.83362447 135.45111984 -135.82523505 141.54937491 -135.81029272 147.6481967 C-135.80092181 154.0224088 -135.82535503 160.39648848 -135.84622192 166.7706604 C-135.87668239 177.46874257 -135.88628333 188.16663919 -135.87988281 198.86474609 C-135.87334833 209.88237287 -135.8794672 220.89987391 -135.90234375 231.91748047 C-135.90375327 232.60386317 -135.90516279 233.29024588 -135.90661502 233.99742806 C-135.91898605 239.96824677 -135.93231396 245.93906325 -135.94573593 251.90987968 C-136.00226035 277.60665984 -135.99595769 303.30303393 -136 329 C-174.28 329 -212.56 329 -252 329 C-252 219.44 -252 109.88 -252 -3 C-214.71 -3 -177.42 -3 -139 -3 C-138.505 9.375 -138.505 9.375 -138 22 C-135.89625 20.329375 -133.7925 18.65875 -131.625 16.9375 C-129.67256373 15.40866968 -127.71477663 13.887068 -125.75537109 12.3671875 C-124.35544742 11.27684361 -122.96676241 10.17207456 -121.58203125 9.0625 C-87.23628885 -16.96268914 -37.67357857 -19.296681 0 0 Z " fill="#000000" transform="translate(1816,1614)"/>
<path d="M0 0 C7.69112853 6.17204094 13.37717373 12.97321177 19 21 C20.98491642 20.73323796 20.98491642 20.73323796 23 20 C23.33 19.01 23.66 18.02 24 17 C26.10976028 15.15726084 28.21252949 13.44217825 30.4375 11.75 C31.39910034 11.01148804 31.39910034 11.01148804 32.38012695 10.25805664 C33.66762674 9.27423834 34.95819439 8.29442055 36.25195312 7.31884766 C37.67103944 6.24819064 39.07938445 5.16330734 40.484375 4.07421875 C70.38938687 -18.14244787 108.17854058 -26.24778993 144.82128906 -21.18017578 C163.42172297 -18.04119624 182.01715426 -9.80718608 196 3 C197.09634766 3.9590625 197.09634766 3.9590625 198.21484375 4.9375 C216.56076024 21.96147875 223.99252067 44.93441807 229.16796875 68.73828125 C229.30485107 69.36774658 229.4417334 69.99721191 229.58276367 70.64575195 C230.79367721 77.47830856 231.14259363 84.07413616 231.12025452 90.99743652 C231.12153615 92.46551781 231.12153615 92.46551781 231.12284368 93.96325731 C231.12448468 97.2274769 231.11899978 100.49164456 231.11352539 103.75585938 C231.1132432 106.10183715 231.11340189 108.44781501 231.1139679 110.79379272 C231.11425461 117.15262808 231.10837824 123.51144453 231.10139394 129.8702755 C231.09577336 135.84541505 231.09477029 141.82055463 231.09374207 147.79569632 C231.09155629 159.62649641 231.08490908 171.45728959 231.07543945 183.28808594 C231.06625306 194.77701788 231.0591897 206.26594794 231.05493164 217.75488281 C231.05466364 218.47090455 231.05439565 219.18692629 231.05411953 219.92464566 C231.05180652 226.15351816 231.04965379 232.38239071 231.04751682 238.61126328 C231.03811606 265.40751536 231.01819299 292.2037491 231 319 C192.72 319 154.44 319 115 319 C114.95101563 304.23121094 114.90203125 289.46242188 114.8515625 274.24609375 C114.81617045 264.88085357 114.78028689 255.51561953 114.7421875 246.15039062 C114.68182723 231.29078581 114.6234537 216.4311925 114.578125 201.5715332 C114.54509918 190.74803652 114.50520999 179.92459015 114.45720994 169.10114914 C114.43204994 163.37460412 114.41023808 157.64809204 114.39665604 151.92150688 C114.38373988 146.52151707 114.36158432 141.12164082 114.33261681 135.72171402 C114.32361518 133.74941938 114.31786834 131.77710649 114.31578636 129.8047924 C114.62211755 102.91545092 114.62211755 102.91545092 102 80 C93.40066511 73.32263627 82.40711663 72.99617877 72 74 C63.37053013 75.67451676 55.30849798 79.12043904 48 84 C47.42004743 84.38054161 46.84009485 84.76108322 46.24256796 85.1531564 C43.53233128 87.15532782 41.38915537 88.76948246 40.34979641 92.05595756 C40.10117363 94.53256001 40.07324822 96.9264657 40.12025452 99.41525269 C40.11018999 100.35551273 40.10012546 101.29577276 40.08975595 102.26452553 C40.06453808 105.41136442 40.08912913 108.55582066 40.11352539 111.70263672 C40.10563673 113.95966314 40.09467592 116.2166806 40.08087158 118.47367859 C40.05211962 124.59941534 40.06639187 130.72438891 40.08831334 136.85012579 C40.10393277 143.25236743 40.08008973 149.65445823 40.06040955 156.05667114 C40.03270431 166.80187932 40.02935113 177.54677783 40.04467773 188.29199219 C40.06039531 199.35812696 40.06134158 210.42410193 40.04272461 221.49023438 C40.04101233 222.52433469 40.04101233 222.52433469 40.03926545 223.57932591 C40.02920736 229.5763903 40.01803221 235.57345248 40.00674725 241.57051468 C39.95962711 267.38047548 39.9858519 293.18983172 40 319 C1.72 319 -36.56 319 -76 319 C-76.04898437 304.23121094 -76.09796875 289.46242188 -76.1484375 274.24609375 C-76.18382955 264.88085357 -76.21971311 255.51561953 -76.2578125 246.15039062 C-76.31817277 231.29078581 -76.3765463 216.4311925 -76.421875 201.5715332 C-76.45490082 190.74803652 -76.49479001 179.92459015 -76.54279006 169.10114914 C-76.56795006 163.37460412 -76.58976192 157.64809204 -76.60334396 151.92150688 C-76.61626012 146.52151707 -76.63841568 141.12164082 -76.66738319 135.72171402 C-76.67638482 133.74941938 -76.68213166 131.77710649 -76.68421364 129.8047924 C-76.20416813 103.36288563 -76.20416813 103.36288563 -88.0703125 80.69140625 C-96.30227042 73.47594516 -106.47869361 73.34310383 -116.94287109 73.82080078 C-126.24751373 74.6313405 -135.30726838 78.86390322 -143 84 C-143.57995257 84.38054161 -144.15990515 84.76108322 -144.75743204 85.1531564 C-147.46766872 87.15532782 -149.61084463 88.76948246 -150.65020359 92.05595756 C-150.89882637 94.53256001 -150.92675178 96.9264657 -150.87974548 99.41525269 C-150.89484227 100.82564274 -150.89484227 100.82564274 -150.91024405 102.26452553 C-150.93546192 105.41136442 -150.91087087 108.55582066 -150.88647461 111.70263672 C-150.89436327 113.95966314 -150.90532408 116.2166806 -150.91912842 118.47367859 C-150.94788038 124.59941534 -150.93360813 130.72438891 -150.91168666 136.85012579 C-150.89606723 143.25236743 -150.91991027 149.65445823 -150.93959045 156.05667114 C-150.96729569 166.80187932 -150.97064887 177.54677783 -150.95532227 188.29199219 C-150.93960469 199.35812696 -150.93865842 210.42410193 -150.95727539 221.49023438 C-150.95841691 222.17963458 -150.95955843 222.86903479 -150.96073455 223.57932591 C-150.97079264 229.5763903 -150.98196779 235.57345248 -150.99325275 241.57051468 C-151.04037289 267.38047548 -151.0141481 293.18983172 -151 319 C-189.28 319 -227.56 319 -267 319 C-267 209.44 -267 99.88 -267 -13 C-229.71 -13 -192.42 -13 -154 -13 C-154 -4.42 -154 4.16 -154 13 C-152.618125 11.700625 -151.23625 10.40125 -149.8125 9.0625 C-139.21515622 -0.42011618 -127.82560464 -7.06836742 -115 -13 C-113.94683594 -13.49628906 -112.89367188 -13.99257812 -111.80859375 -14.50390625 C-104.41663029 -17.80125346 -96.96059792 -19.61554819 -89 -21 C-87.98292969 -21.185625 -86.96585938 -21.37125 -85.91796875 -21.5625 C-55.15507072 -24.99763916 -24.61079503 -19.62155379 0 0 Z " fill="#000000" transform="translate(1315,1624)"/>
<path d="M0 0 C0 37.29 0 74.58 0 113 C23.76 113 47.52 113 72 113 C72 140.72 72 168.44 72 197 C48.24 197 24.48 197 0 197 C0.11992602 219.23053315 0.11992602 219.23053315 0.2578125 241.4609375 C0.31807891 250.53513301 0.37642945 259.60931029 0.421875 268.68359375 C0.45499176 275.2943113 0.49492881 281.90494794 0.54279006 288.51557577 C0.56786121 292.01034534 0.58969761 295.5050626 0.60334396 298.999897 C0.61876973 302.91750851 0.64943447 306.83492647 0.68115234 310.75244141 C0.68439262 312.4582563 0.68439262 312.4582563 0.68769836 314.1985321 C0.57952111 332.29546377 0.57952111 332.29546377 8.6875 347.70703125 C16.77551488 354.40899519 26.42510438 356.07042081 36.72851562 355.28076172 C43.497565 354.44408859 50.14765108 352.75759122 56.77734375 351.19140625 C60.84527644 350.23205029 64.85191869 349.50192361 69 349 C70.47875222 356.59994674 71.57168533 364.18299059 72.4375 371.875 C73.34462404 379.7076227 74.33226268 387.51455861 75.5 395.3125 C77.41112356 408.15935646 78.68455724 421.08102676 80 434 C66.80956231 438.59515181 53.62821288 442.55783273 39.9375 445.375 C38.78741455 445.61299316 37.6373291 445.85098633 36.45239258 446.09619141 C21.63666135 449.02575434 7.25320286 450.38709651 -7.8125 450.3125 C-8.60025818 450.31034485 -9.38801636 450.3081897 -10.199646 450.30596924 C-40.03163384 450.17522331 -67.51465491 444.0086394 -89.5546875 422.5078125 C-107.27111251 403.92979843 -116.14021373 377.61379245 -116.12025452 352.04603577 C-116.12153615 351.05088641 -116.12153615 351.05088641 -116.12284368 350.03563303 C-116.12447909 347.83240222 -116.11900917 345.62924908 -116.11352539 343.42602539 C-116.11324307 341.83880617 -116.11340212 340.25158682 -116.1139679 338.66436768 C-116.11425413 334.36945311 -116.10838546 330.07456662 -116.10139394 325.77965856 C-116.0951315 321.28600409 -116.09455431 316.79234895 -116.09336853 312.2986908 C-116.09026373 303.79554398 -116.08206183 295.29241006 -116.07201904 286.78926891 C-116.06083145 277.10610032 -116.05534079 267.4229311 -116.05032361 257.73975766 C-116.0398785 237.82649631 -116.02154361 217.91325264 -116 198 C-140.255 197.505 -140.255 197.505 -165 197 C-165 278.84 -165 360.68 -165 445 C-203.28 445 -241.56 445 -281 445 C-281 335.44 -281 225.88 -281 113 C-226.55 112.67 -172.1 112.34 -116 112 C-116.11882079 82.79996624 -116.11882079 82.79996624 -116.27026367 53.60009766 C-116.28381348 47.9597168 -116.28381348 47.9597168 -116.28633118 45.32138062 C-116.29094578 43.47394649 -116.30151313 41.62652154 -116.31672668 39.77914429 C-116.33859248 36.98492675 -116.34172123 34.19126255 -116.34057617 31.39697266 C-116.3513705 30.57038462 -116.36216482 29.74379658 -116.37328625 28.89216042 C-116.36076355 26.61929321 -116.36076355 26.61929321 -116 23 C-112.58415121 20.72276747 -109.55374216 20.16626715 -105.60131836 19.45947266 C-104.47360268 19.249217 -104.47360268 19.249217 -103.32310486 19.03471375 C-100.82982394 18.57141891 -98.33486786 18.11786707 -95.83984375 17.6640625 C-94.09350371 17.34089777 -92.3472948 17.01702371 -90.60121155 16.69247437 C-85.98796396 15.83653469 -81.37332164 14.988382 -76.75823975 14.14239502 C-69.42590678 12.79745968 -62.09539932 11.44268073 -54.76553535 10.08436203 C-52.23080629 9.61605883 -49.69529795 9.15218619 -47.15965271 8.68887329 C-37.66951206 6.94360022 -28.24114182 5.0098652 -18.83180237 2.87045288 C-6.19584195 0 -6.19584195 0 0 0 Z " fill="#000000" transform="translate(3025,1498)"/>
<path d="M0 0 C2.92467769 2.58482589 5.64931869 5.35145323 8.3671875 8.15234375 C9.00398438 8.72082031 9.64078125 9.28929687 10.296875 9.875 C20.96000631 19.48164595 27.19628292 33.0517946 32.3671875 46.15234375 C32.75519531 47.07144531 33.14320313 47.99054688 33.54296875 48.9375 C39.34715512 63.43676093 41.53837431 79.62632758 41.48744202 95.15614319 C41.48872365 96.60713013 41.48872365 96.60713013 41.49003118 98.08742994 C41.49166952 101.30708517 41.48619171 104.52668752 41.48071289 107.74633789 C41.48043064 110.06290689 41.4805895 112.37947598 41.4811554 114.69604492 C41.48144188 120.97011313 41.47556916 127.24416215 41.46858144 133.51822591 C41.46232316 140.08054459 41.46174214 146.64286373 41.46055603 153.20518494 C41.45796927 164.21483695 41.45155978 175.22448226 41.44262695 186.23413086 C41.43343846 197.57071905 41.42637614 208.90730532 41.42211914 220.24389648 C41.42185114 220.95059772 41.42158315 221.65729895 41.42130703 222.38541538 C41.41899397 228.53334983 41.41684127 234.68128434 41.41470432 240.82921886 C41.40530608 267.2702671 41.38538227 293.71129672 41.3671875 320.15234375 C3.0871875 320.15234375 -35.1928125 320.15234375 -74.6328125 320.15234375 C-74.68179688 305.37195312 -74.73078125 290.5915625 -74.78125 275.36328125 C-74.81663996 265.99348377 -74.85252215 256.62369244 -74.890625 247.25390625 C-74.95099722 232.385431 -75.00937359 217.51696729 -75.0546875 202.6484375 C-75.08770181 191.81872441 -75.12758481 180.98906173 -75.17560256 170.1594044 C-75.2007739 164.42897884 -75.22258254 158.69858632 -75.23615646 152.96812057 C-75.24906217 147.56567142 -75.27120697 142.16333612 -75.30019569 136.76095009 C-75.30920535 134.78662287 -75.31494608 132.81227736 -75.31702614 130.83793068 C-75.14947254 106.07792227 -75.14947254 106.07792227 -84.8203125 83.71484375 C-94.08246057 75.27599773 -104.63068014 74.57685186 -116.63183594 75.02490234 C-126.54240096 75.65610231 -135.4529571 79.68297298 -143.6328125 85.15234375 C-144.74752505 85.7468483 -144.74752505 85.7468483 -145.88475704 86.35336304 C-149.41372867 88.68817919 -152.07032173 90.94993258 -153.15411878 95.19349861 C-154.03423689 101.72409995 -153.82107134 108.32455444 -153.74633789 114.8984375 C-153.75366524 117.13605821 -153.76494578 119.37366894 -153.77987671 121.61125183 C-153.80915953 127.6751118 -153.7832016 133.73762198 -153.74728703 139.80139923 C-153.71913775 146.14223531 -153.74184182 152.48288484 -153.75914001 158.82373047 C-153.78132042 169.4629136 -153.77221144 180.10160612 -153.73901367 190.74072266 C-153.7049148 201.69619008 -153.68985854 212.65141413 -153.69995117 223.60693359 C-153.7005567 224.2897628 -153.70116223 224.97259201 -153.7017861 225.67611301 C-153.70721852 231.61628388 -153.71408811 237.55645288 -153.7210989 243.49662209 C-153.74939501 269.04882391 -153.68335136 294.59989468 -153.6328125 320.15234375 C-191.9128125 320.15234375 -230.1928125 320.15234375 -269.6328125 320.15234375 C-269.6328125 210.59234375 -269.6328125 101.03234375 -269.6328125 -11.84765625 C-232.3428125 -11.84765625 -195.0528125 -11.84765625 -156.6328125 -11.84765625 C-156.3028125 -2.93765625 -155.9728125 5.97234375 -155.6328125 15.15234375 C-153.3228125 12.84234375 -151.0128125 10.53234375 -148.6328125 8.15234375 C-109.86785827 -26.00530034 -41.66164813 -34.42790629 0 0 Z " fill="#000000" transform="translate(2681.6328125,1622.84765625)"/>
<path d="M0 0 C38.28 0 76.56 0 116 0 C116.03738281 14.74558594 116.07476563 29.49117187 116.11328125 44.68359375 C116.1435664 54.03972285 116.17459715 63.39583969 116.20898438 72.75195312 C116.26339568 87.59381992 116.31481198 102.43565271 116.34643555 117.27758789 C116.36948465 128.08867027 116.40295942 138.89966283 116.44870156 149.71067387 C116.4725408 155.42947357 116.49133033 161.14818483 116.49761391 166.867033 C116.50370705 172.26214891 116.52385785 177.65703877 116.55427551 183.05207062 C116.56298846 185.02029659 116.56679251 186.98855219 116.56500816 188.95679665 C116.18987297 213.93967122 116.18987297 213.93967122 126.59765625 235.79296875 C135.09838498 243.63532669 144.03709949 245.351589 155.32421875 245.19921875 C167.34242912 244.54785985 177.11693738 239.52914371 187 233 C187.61633334 232.59629586 188.23266668 232.19259172 188.86767679 231.77665412 C191.53773256 229.79372385 193.6197823 228.20115098 194.6457938 224.9598639 C194.89902054 222.50240573 194.92681969 220.13085475 194.87974548 217.66067505 C194.89484227 216.26253565 194.89484227 216.26253565 194.91024405 214.836151 C194.93546002 211.71694393 194.91087194 208.60014103 194.88647461 205.48095703 C194.89436335 203.24363469 194.90532422 201.00632137 194.91912842 198.76902771 C194.94787929 192.69700599 194.93360867 186.62575424 194.91168666 180.5537324 C194.89606677 174.20754467 194.91991051 167.86150909 194.93959045 161.51535034 C194.96729522 150.86431029 194.97064907 140.21354218 194.95532227 129.5625 C194.93960451 118.59336996 194.93865864 107.62440114 194.95727539 96.65527344 C194.95841691 95.97190824 194.95955843 95.28854303 194.96073455 94.5844698 C194.97079265 88.63989682 194.98196779 82.69532607 194.99325275 76.75075531 C195.04037227 51.16703667 195.01414817 25.58392794 195 0 C233.28 0 271.56 0 311 0 C311 109.56 311 219.12 311 332 C277.67 332 244.34 332 210 332 C208.35 321.44 206.7 310.88 205 300 C201.7 302.97 198.4 305.94 195 309 C181.09636176 320.97257738 165.13479343 330.36279798 147.5625 335.6875 C146.56077759 335.99179932 146.56077759 335.99179932 145.53881836 336.30224609 C134.2025277 339.55828447 123.072683 340.3755735 111.3125 340.3125 C110.25459763 340.30976578 110.25459763 340.30976578 109.17532349 340.30697632 C82.02856972 340.18887838 59.42634729 333.2018618 38 316 C36.50726562 314.82244141 36.50726562 314.82244141 34.984375 313.62109375 C12.74342101 294.08748102 2.46529945 262.61214652 0 234 C-0.12918311 230.6770558 -0.13120778 227.35930184 -0.12025452 224.03416443 C-0.12110894 223.07092335 -0.12196337 222.10768228 -0.12284368 221.11525208 C-0.12448193 217.9094163 -0.11900437 214.70363364 -0.11352539 211.49780273 C-0.11324314 209.19108583 -0.113402 206.88436883 -0.1139679 204.57765198 C-0.11425437 198.33044238 -0.10838178 192.08325206 -0.10139394 185.83604693 C-0.09513553 179.30175547 -0.09455463 172.76746355 -0.09336853 166.23316956 C-0.09078181 155.27059598 -0.08437238 144.30802913 -0.07543945 133.34545898 C-0.06625089 122.0573734 -0.0591886 110.76928974 -0.05493164 99.48120117 C-0.05466364 98.77751744 -0.05439565 98.07383371 -0.05411953 97.34882623 C-0.05180647 91.22713749 -0.04965377 85.10544869 -0.04751682 78.98375988 C-0.03811867 52.65583329 -0.01819483 26.32792539 0 0 Z " fill="#BEB1A8" transform="translate(2081,1611)"/>
<path d="M0 0 C0.80135376 -0.00067474 1.60270752 -0.00134949 2.42834473 -0.00204468 C21.05513626 0.02284501 38.16207079 1.92905894 55.75 8.25 C57.08838214 8.70879897 58.42692608 9.16712617 59.765625 9.625 C96.19623908 22.36912314 122.99669852 49.43253199 139.6015625 83.81542969 C158.71220958 124.32805143 156.75 165.62559772 156.75 210.25 C88.77 210.25 20.79 210.25 -49.25 210.25 C-42.8830123 229.35096309 -38.28607938 243.07242433 -20.375 252.625 C3.77967873 263.83301931 35.20282887 260.93044892 59.75 252.25 C72.850161 246.97590921 86.72223956 241.06629171 98.25 232.8125 C99.075 232.296875 99.9 231.78125 100.75 231.25 C104.3948585 232.46495283 104.64133908 233.29718329 106.484375 236.5546875 C107.26844727 237.9154541 107.26844727 237.9154541 108.06835938 239.30371094 C108.62330078 240.27598633 109.17824219 241.24826172 109.75 242.25 C110.91745729 244.21357082 112.08945094 246.17445056 113.265625 248.1328125 C113.87188721 249.14666016 114.47814941 250.16050781 115.1027832 251.20507812 C120.02440042 259.4282512 124.94854498 267.64466743 130.0625 275.75 C133.55181647 281.29069981 136.96606352 286.87171177 140.3125 292.5 C140.74280518 293.21607422 141.17311035 293.93214844 141.61645508 294.66992188 C142.21043091 295.67635742 142.21043091 295.67635742 142.81640625 296.703125 C143.16646729 297.29254883 143.51652832 297.88197266 143.87719727 298.48925781 C144.81682739 300.38481373 145.30991695 302.18588863 145.75 304.25 C106.10517571 335.33514632 59.96056184 349.73475653 9.875 349.625 C8.93589783 349.62445618 7.99679565 349.62391235 7.02923584 349.62335205 C-20.08376201 349.55146174 -47.56291713 346.24002712 -72.25 334.25 C-73.01280273 333.88277832 -73.77560547 333.51555664 -74.56152344 333.13720703 C-86.54625621 327.30771357 -97.19787996 321.00633894 -107.25 312.25 C-108.136875 311.50105469 -109.02375 310.75210937 -109.9375 309.98046875 C-120.40459047 300.90353873 -128.95863748 291.01964948 -136.25 279.25 C-136.75917969 278.4765625 -137.26835937 277.703125 -137.79296875 276.90625 C-142.5270273 269.49421196 -145.92186818 261.44557003 -149.34667969 253.37011719 C-150.11156549 251.57490952 -150.9007967 249.7901047 -151.6953125 248.0078125 C-154.57526311 241.17925036 -156.33260703 234.21344709 -157.9375 227 C-158.24143677 225.64418823 -158.24143677 225.64418823 -158.55151367 224.26098633 C-161.8601468 208.56257808 -162.62649008 193.05721531 -162.5625 177.0625 C-162.56067719 176.11534119 -162.55885437 175.16818237 -162.55697632 174.19232178 C-162.51208454 160.33494569 -162.07068423 146.85881217 -159.25 133.25 C-159.0943457 132.42129395 -158.93869141 131.59258789 -158.77832031 130.73876953 C-151.29602667 91.30364706 -129.81294574 52.90039744 -96.6875 29.4375 C-94.5664417 27.99432434 -92.42128666 26.61915528 -90.25 25.25 C-89.37214844 24.68410156 -88.49429688 24.11820313 -87.58984375 23.53515625 C-85.17763546 22.03278247 -82.73698071 20.62459317 -80.25 19.25 C-79.00863281 18.55003906 -79.00863281 18.55003906 -77.7421875 17.8359375 C-61.69167568 9.28481012 -44.192769 3.92725106 -26.25 1.25 C-25.60144043 1.1483252 -24.95288086 1.04665039 -24.28466797 0.94189453 C-16.24779167 -0.1421852 -8.09495221 0.00611276 0 0 Z M-35.28515625 98.9765625 C-45.96386919 111.33244904 -48.08190485 126.40952425 -51.25 142.25 C-18.25 142.25 14.75 142.25 48.75 142.25 C48.75 135.44824995 48.6571162 130.13744433 47.0625 123.75 C46.79240112 122.64881836 46.79240112 122.64881836 46.5168457 121.52539062 C42.88486251 107.46289782 34.92764268 96.27163646 22.75 88.25 C2.62733631 77.99603588 -20.07046032 82.87946768 -35.28515625 98.9765625 Z " fill="#000000" transform="translate(3394.25,1601.75)"/>
<path d="M0 0 C38.28 0 76.56 0 116 0 C116 109.56 116 219.12 116 332 C77.72 332 39.44 332 0 332 C0 222.44 0 112.88 0 0 Z " fill="#000000" transform="translate(3107,1611)"/>
<path d="M0 0 C9.34322018 8.23760579 15.42765168 17.45520027 20 29 C20.26329102 29.61810547 20.52658203 30.23621094 20.79785156 30.87304688 C23.44027641 37.7000947 23.44680051 44.24814874 23.375 51.5 C23.38660156 52.67175781 23.39820312 53.84351563 23.41015625 55.05078125 C23.38684419 61.97446304 22.64355844 67.60781613 20 74 C19.48759766 75.50820312 19.48759766 75.50820312 18.96484375 77.046875 C13.43729469 91.5908444 2.90144034 103.33132988 -10.75 110.8125 C-27.96116514 118.53339651 -48.61052046 120.15023586 -66.69140625 114.3046875 C-81.88411364 108.31370253 -95.00453658 98.12287884 -102 83 C-106.62782973 72.29893619 -108.19508256 63.46258031 -108.25 51.875 C-108.270625 50.81023437 -108.29125 49.74546875 -108.3125 48.6484375 C-108.39547061 31.55649173 -102.44442689 16.75107695 -90.68359375 4.42016602 C-67.14005077 -19.03960507 -25.91963753 -20.7075365 0 0 Z " fill="#000000" transform="translate(3667,1834)"/>
<path d="M0 0 C1.04220703 -0.01160156 2.08441406 -0.02320313 3.15820312 -0.03515625 C19.64354574 0.02616555 33.48973669 6.04871674 45.98828125 16.72265625 C58.74596339 29.86752146 63.99219405 46.01550672 63.92871094 63.98828125 C63.49906751 81.41952898 57.03965837 95.44245867 44.9609375 108.16015625 C29.49685164 122.44050915 10.54501282 124.14940534 -9.45849609 123.54980469 C-22.41852175 122.78932457 -35.55174273 116.80850943 -44.4375 107.375 C-45.6440625 106.2303125 -45.6440625 106.2303125 -46.875 105.0625 C-58.38855277 92.98731051 -63.98882613 77.2367724 -63.85913086 60.58789062 C-63.19965873 42.25325942 -55.69131763 26.83284813 -42.4375 14.375 C-39.57378723 12.05653056 -36.6608835 10.15264256 -33.4375 8.375 C-32.25220703 7.70210937 -32.25220703 7.70210937 -31.04296875 7.015625 C-20.98644966 1.6310321 -11.33480125 -0.12570944 0 0 Z " fill="#000000" transform="translate(3164.4375,1462.625)"/>
<path d="M0 0 C11.36764212 9.55837776 17.951894 22.37577734 20.3515625 36.9375 C21.85337332 55.08689265 19.47437848 72.56638595 7.8359375 87.24609375 C-2.20682647 99.09411422 -15.32649874 106.46579469 -30.6484375 108.9375 C-50.42451335 110.55104399 -69.98054559 108.68650712 -85.69140625 95.35546875 C-97.81318808 83.98701799 -105.20291406 70.10942676 -105.88671875 53.28515625 C-106.29110275 34.0313777 -102.77819609 17.83232671 -89.30371094 3.29418945 C-65.36570648 -20.8695705 -25.91917154 -20.18484155 0 0 Z " fill="#000000" transform="translate(2844.6484375,1477.0625)"/>
<path d="M0 0 C6.27 0 12.54 0 19 0 C19 51.81 19 103.62 19 157 C13.72 157 8.44 157 3 157 C2.01 151.555 2.01 151.555 1 146 C-0.2375 147.216875 -1.475 148.43375 -2.75 149.6875 C-9.82992819 155.97581417 -18.48733367 159.75383119 -28 160 C-28.91394531 160.03867188 -29.82789063 160.07734375 -30.76953125 160.1171875 C-44.22263372 160.42804224 -55.44303419 157.89182651 -66.16796875 149.25390625 C-77.77889791 137.33540281 -79.36578847 120.04712661 -79.31567383 104.32226562 C-79.31252509 102.26638082 -79.33602485 100.21195714 -79.36132812 98.15625 C-79.43593549 82.84125665 -77.00237265 68.32240501 -67.75 55.625 C-57.45661764 45.79949866 -45.34850459 43.55715623 -31.58642578 43.71435547 C-19.35018025 44.04927498 -10.62063198 46.30349441 -1 54 C-0.67 36.18 -0.34 18.36 0 0 Z M-52.875 66.6875 C-63.08947093 82.61005762 -61.73438851 108.06649586 -58 126 C-56.22813581 131.76468257 -53.85210788 136.25064391 -49 140 C-39.3591362 144.90807612 -27.24564631 145.29642534 -17 142 C-11.47443349 139.96323915 -6.96076327 137.27984021 -4 132 C0.01927467 121.82568546 0.20583226 111.74203372 0.25 100.9375 C0.270625 99.70322266 0.29125 98.46894531 0.3125 97.19726562 C0.35588585 86.83346962 0.27253153 74.12812348 -7 66 C-13.55811038 59.61913585 -21.21434531 59.63675123 -29.875 59.625 C-30.81730469 59.60050781 -31.75960938 59.57601562 -32.73046875 59.55078125 C-40.71145239 59.51766514 -46.96392808 61.16193277 -52.875 66.6875 Z " fill="#000000" transform="translate(1623,2094)"/>
<path d="M0 0 C6.27 0 12.54 0 19 0 C19.01458252 2.15901855 19.02916504 4.31803711 19.04418945 6.54248047 C19.09471638 13.70710552 19.16134247 20.87151736 19.23571491 28.03593254 C19.28028243 32.37614937 19.31956784 36.71627527 19.34643555 41.05664062 C19.37260534 45.25193153 19.41310235 49.44686994 19.46318626 53.64194107 C19.47976311 55.23571484 19.49133419 56.82954946 19.49761391 58.42339706 C19.53976588 68.14592252 19.63147176 77.34568474 24.75 85.9375 C31.16412424 91.81711388 39.45095173 92.29417387 47.7265625 92.22265625 C54.91901889 91.73343189 62.05456659 90.22064897 68 86 C69.34892889 84.28329163 69.34892889 84.28329163 70.1875 82.3125 C70.49042969 81.68988281 70.79335937 81.06726562 71.10546875 80.42578125 C74.33899818 71.6571272 74.34370957 63.13844199 74.4140625 53.90625 C74.43279733 52.34825644 74.45237243 50.79027278 74.4727478 49.2322998 C74.52383073 45.1553738 74.56358313 41.07841499 74.60089111 37.00134277 C74.64108122 32.8315434 74.69210469 28.66187771 74.7421875 24.4921875 C74.83866415 16.32821008 74.92215553 8.16417636 75 0 C80.94 0 86.88 0 93 0 C93.0930174 15.10889492 93.16419254 30.21775622 93.20724869 45.32687378 C93.22778126 52.34399224 93.25572106 59.36092836 93.30175781 66.37792969 C93.3462325 73.16013291 93.36919294 79.94214732 93.37950897 86.7244873 C93.38685295 89.30142177 93.40119289 91.87834687 93.42292023 94.4552002 C93.72188401 131.40944483 93.72188401 131.40944483 83 143 C72.8662239 152.67513537 60.83709462 154.20136125 47.40966797 154.24023438 C45.40189685 154.24987091 43.39426651 154.2810399 41.38671875 154.3125 C28.70341566 154.36298081 17.34063715 152.37935951 7.609375 143.74609375 C1.68021363 137.31324149 1 130.46803859 1 122 C7.27 122 13.54 122 20 122 C21 126 22 130 23 134 C29.83917638 137.73045984 37.74163612 138.36558427 45.375 138.3125 C46.20918457 138.30758545 47.04336914 138.3026709 47.90283203 138.29760742 C55.4659857 138.15377916 61.79741225 137.45304594 67.9375 132.75 C72.28152362 126.95796851 74.02709074 120.9057703 74.31640625 113.796875 C74.35830078 112.8171875 74.40019531 111.8375 74.44335938 110.828125 C74.48267578 109.81234375 74.52199219 108.7965625 74.5625 107.75 C74.62727539 106.203125 74.62727539 106.203125 74.69335938 104.625 C74.79925682 102.0834613 74.90133443 99.54182804 75 97 C74.54326904 97.40702148 74.08653809 97.81404297 73.6159668 98.23339844 C61.90040906 108.50668541 48.23538068 109.84154001 33 109 C23.25882573 108.00218445 15.58818137 105.50320657 9 98 C8.33871094 97.25105469 7.67742187 96.50210938 6.99609375 95.73046875 C4.82334882 92.75835778 3.85404354 90.26999206 2.8125 86.75 C2.48894531 85.69296875 2.16539063 84.6359375 1.83203125 83.546875 C-0.40907076 73.99325704 -0.13173594 64.33902522 -0.09765625 54.58984375 C-0.09578796 53.0108698 -0.094366 51.43189527 -0.09336853 49.85292053 C-0.0895757 45.72496908 -0.07977353 41.59705359 -0.06866455 37.46911621 C-0.0583804 33.24569179 -0.05385599 29.02226149 -0.04882812 24.79882812 C-0.03814793 16.53253385 -0.02057784 8.26627556 0 0 Z " fill="#000000" transform="translate(1327,2140)"/>
<path d="M0 0 C6.27 0 12.54 0 19 0 C19 51.81 19 103.62 19 157 C13.72 157 8.44 157 3 157 C2.01 151.555 2.01 151.555 1 146 C-0.670625 147.5778125 -0.670625 147.5778125 -2.375 149.1875 C-13.23544049 158.59988176 -25.90932572 160.91497885 -40 160 C-50.51621724 159.18633648 -60.7111761 154.99921779 -68 147.1875 C-78.23835907 133.90804417 -79.5644934 118.31423155 -79.375 102.0625 C-79.37101196 101.36543945 -79.36702393 100.66837891 -79.36291504 99.95019531 C-79.17894039 72.51438654 -79.17894039 72.51438654 -72 62 C-71.46761719 61.18015625 -70.93523438 60.3603125 -70.38671875 59.515625 C-64.40898506 51.14927308 -55.90236028 46.04073445 -45.7265625 44.24609375 C-31.54697642 42.96627438 -15.63364883 42.60138715 -4 52 C-3.01 52.99 -2.02 53.98 -1 55 C-0.67 36.85 -0.34 18.7 0 0 Z M-52.3125 66.25 C-63.26805188 80.38236503 -62.14357557 102.11200881 -60.10766602 118.96264648 C-59.00514838 126.40143301 -56.83570914 132.9343685 -51.6875 138.5 C-40.54366036 144.71981747 -29.30472335 145.00290186 -17.0390625 141.9296875 C-12.20747713 140.45164468 -9.26934622 139.10961765 -6.61328125 134.6953125 C-5.30179594 132.16252999 -4.11604673 129.62432728 -3 127 C-2.64421875 126.21496094 -2.2884375 125.42992188 -1.921875 124.62109375 C0.73058727 117.07955907 0.18338608 109.01549848 0.1875 101.125 C0.20586914 99.28228516 0.20586914 99.28228516 0.22460938 97.40234375 C0.23546884 90.64775411 -0.11602394 84.49774122 -2 78 C-2.23460938 77.11828125 -2.46921875 76.2365625 -2.7109375 75.328125 C-4.39080844 70.07111713 -5.87231296 65.64998347 -11.03442383 62.92675781 C-17.5492454 60.14041268 -23.07867005 59.41101857 -30.125 59.5625 C-31.06214844 59.55541016 -31.99929687 59.54832031 -32.96484375 59.54101562 C-40.05608548 59.60548146 -47.58265134 60.27839167 -52.3125 66.25 Z " fill="#000000" transform="translate(2877,2094)"/>
<path d="M0 0 C5.94 0 11.88 0 18 0 C18.33 17.82 18.66 35.64 19 54 C21.64 52.02 24.28 50.04 27 48 C40.88228896 42.48511808 58.91448059 41.57142026 73 47 C82.35026839 51.20964464 88.28166027 57.5322073 92.3125 66.9375 C99.98363128 88.21341538 99.90311179 117.76722082 91.5234375 138.91015625 C86.69773972 148.69766124 78.91581647 153.86449361 69 158 C54.54674994 162.42285248 38.91394916 160.64913961 25.68359375 153.6640625 C22.16720942 151.48359711 19.68529208 149.13284076 17 146 C16.01 151.445 16.01 151.445 15 157 C12.52076199 157.02685095 10.0418116 157.04676547 7.5625 157.0625 C6.85544922 157.07087891 6.14839844 157.07925781 5.41992188 157.08789062 C3.61306441 157.09653588 1.80612397 157.05220011 0 157 C-1.80574494 155.19425506 -1.12617985 152.43420092 -1.12698364 150.0020752 C-1.12980347 148.69795181 -1.13262329 147.39382843 -1.13552856 146.05018616 C-1.13358396 144.59140001 -1.13153578 143.132614 -1.12939453 141.67382812 C-1.13074851 140.14822854 -1.13252842 138.62262928 -1.13470459 137.09703064 C-1.13927934 132.94218844 -1.13748919 128.78737096 -1.1343255 124.63252831 C-1.13180212 120.29412136 -1.13413938 115.9557166 -1.13571167 111.61730957 C-1.13753343 104.33031838 -1.13512689 97.04333731 -1.13037109 89.75634766 C-1.12492846 81.31928144 -1.12669111 72.88223938 -1.1321975 64.44517374 C-1.13672845 57.21462245 -1.13737927 49.98407846 -1.13475883 42.75352621 C-1.13319596 38.42919105 -1.13300257 34.10486727 -1.13629532 29.78053284 C-1.13917377 25.71602301 -1.13719882 21.65154447 -1.13140106 17.58703804 C-1.13007332 16.09100458 -1.13046781 14.59496851 -1.13266373 13.09893608 C-1.13537466 11.06526658 -1.13138091 9.03159136 -1.12698364 6.9979248 C-1.12660662 5.85712212 -1.12622959 4.71631943 -1.12584114 3.54094696 C-1 1 -1 1 0 0 Z M24.625 66 C15.02665337 78.62940346 16.74537781 101.93059865 18.49609375 116.859375 C19.68758699 125.21598957 21.14782395 132.73362197 27.71484375 138.5078125 C36.83987212 145.0390189 48.35319884 144.69856481 59 143 C65.02741515 141.40008166 69.75205096 139.58647235 73 134 C78.06792892 124.44890318 78.36985147 113.36168398 78.3125 102.75 C78.30758545 101.66533447 78.3026709 100.58066895 78.29760742 99.46313477 C78.10725091 86.31877354 77.46400697 73.27262218 67.5625 63.625 C61.34252809 59.68062757 55.32993358 59.66348375 48.1875 59.6875 C46.76727539 59.66333008 46.76727539 59.66333008 45.31835938 59.63867188 C37.63641898 59.63338492 30.29477627 60.37924197 24.625 66 Z " fill="#000000" transform="translate(2369,2094)"/>
<path d="M0 0 C7.27951084 6.60802557 9.38436075 13.90993572 10.11328125 23.50390625 C10.3039473 28.60844657 10.36893053 33.71300204 10.4296875 38.8203125 C10.4502991 40.28719105 10.47129654 41.75406422 10.49266052 43.22093201 C10.54744752 47.05290327 10.59704514 50.88492421 10.64550781 54.71697998 C10.69604276 58.63883808 10.75156058 62.56062544 10.80664062 66.48242188 C10.91369039 74.15618982 11.01524987 81.83001723 11.11328125 89.50390625 C11.75136719 89.56449219 12.38945312 89.62507813 13.046875 89.6875 C13.87316406 89.77128906 14.69945313 89.85507813 15.55078125 89.94140625 C16.78634766 90.06322266 16.78634766 90.06322266 18.046875 90.1875 C20.11328125 90.50390625 20.11328125 90.50390625 21.11328125 91.50390625 C21.18599866 93.8570418 21.19698993 96.21224293 21.17578125 98.56640625 C21.16675781 99.85675781 21.15773438 101.14710938 21.1484375 102.4765625 C21.13683594 103.47558594 21.12523438 104.47460938 21.11328125 105.50390625 C16.74575984 107.97850642 13.0349004 108.0377768 8.11328125 107.50390625 C2.76447553 105.78140949 -0.91874571 103.37960085 -4.88671875 99.50390625 C-6.26171875 96.69140625 -6.26171875 96.69140625 -6.88671875 94.50390625 C-7.60859375 95.20515625 -8.33046875 95.90640625 -9.07421875 96.62890625 C-20.87464716 106.39765712 -35.86841484 108.56233642 -50.63671875 107.26171875 C-60.16393452 105.93548701 -69.15176444 101.40312774 -75.88671875 94.50390625 C-82.35094083 84.09859394 -82.47454446 71.02962007 -80.2734375 59.2109375 C-77.80506005 52.19726588 -73.02550267 47.69341217 -66.53125 44.2578125 C-54.00626221 38.82168902 -41.06631263 39.25055115 -27.69921875 39.37890625 C-25.87044761 39.38895712 -24.04167113 39.39807924 -22.21289062 39.40625 C-17.77069919 39.42809436 -13.32876922 39.46250783 -8.88671875 39.50390625 C-8.96818973 36.2945797 -9.08097621 33.08707186 -9.19921875 29.87890625 C-9.22177734 28.97527344 -9.24433594 28.07164062 -9.26757812 27.140625 C-9.51219812 21.04736333 -10.52383317 16.81194606 -14.13671875 11.75390625 C-20.0290526 7.54509635 -27.80184181 8.13744789 -34.69921875 8.12890625 C-36.24319336 8.09216797 -36.24319336 8.09216797 -37.81835938 8.0546875 C-44.72129246 8.02849041 -50.88758073 8.85810382 -56.88671875 12.50390625 C-59.60081355 16.94515229 -60.01677949 20.28427072 -60.88671875 25.50390625 C-66.49671875 25.50390625 -72.10671875 25.50390625 -77.88671875 25.50390625 C-77.88671875 15.58836347 -76.94170457 8.51081198 -69.875 1.25390625 C-53.82505021 -12.87257215 -16.77676576 -13.30331529 0 0 Z M-59.88671875 61.50390625 C-62.78128531 65.50116483 -63.16198416 70.78183719 -62.67578125 75.58984375 C-61.65097308 80.6365406 -59.7079292 83.93190517 -55.88671875 87.50390625 C-45.9821796 92.54305775 -34.45114341 92.39417337 -23.88671875 89.50390625 C-18.07088264 87.30093803 -13.20325987 84.98340897 -9.88671875 79.50390625 C-8.86698746 76.44471237 -8.77138273 74.379726 -8.7890625 71.1796875 C-8.79228516 70.15166016 -8.79550781 69.12363281 -8.79882812 68.06445312 C-8.80720703 66.99259766 -8.81558594 65.92074219 -8.82421875 64.81640625 C-8.82873047 63.73294922 -8.83324219 62.64949219 -8.83789062 61.53320312 C-8.84968132 58.8567154 -8.86613812 56.18033848 -8.88671875 53.50390625 C-13.36666714 53.42877812 -17.846265 53.37485156 -22.32666016 53.33911133 C-23.84527996 53.32418513 -25.36385792 53.30383666 -26.88232422 53.27758789 C-44.93368835 52.73742016 -44.93368835 52.73742016 -59.88671875 61.50390625 Z " fill="#000000" transform="translate(2663.88671875,2146.49609375)"/>
<path d="M0 0 C6.88756086 6.26536524 9.36049106 13.37969844 10.109375 22.50390625 C10.30446042 27.64866694 10.3657117 32.79374365 10.42578125 37.94140625 C10.44638594 39.4321343 10.46738325 40.92285696 10.48875427 42.41357422 C10.54361234 46.31296395 10.59317953 50.21240319 10.64160156 54.11187744 C10.6920836 58.10067077 10.74762944 62.08939333 10.80273438 66.078125 C10.90987147 73.88665861 11.01141268 81.69525157 11.109375 89.50390625 C11.74746094 89.56449219 12.38554687 89.62507813 13.04296875 89.6875 C13.86925781 89.77128906 14.69554688 89.85507813 15.546875 89.94140625 C16.78244141 90.06322266 16.78244141 90.06322266 18.04296875 90.1875 C20.109375 90.50390625 20.109375 90.50390625 21.109375 91.50390625 C21.18209241 93.8570418 21.19308368 96.21224293 21.171875 98.56640625 C21.16285156 99.85675781 21.15382813 101.14710938 21.14453125 102.4765625 C21.13292969 103.47558594 21.12132813 104.47460938 21.109375 105.50390625 C16.74185359 107.97850642 13.03099415 108.0377768 8.109375 107.50390625 C2.76056928 105.78140949 -0.92265196 103.37960085 -4.890625 99.50390625 C-6.265625 96.69140625 -6.265625 96.69140625 -6.890625 94.50390625 C-7.6125 95.20515625 -8.334375 95.90640625 -9.078125 96.62890625 C-20.87855341 106.39765712 -35.87232109 108.56233642 -50.640625 107.26171875 C-60.31193151 105.91542892 -68.91625871 101.30391338 -75.890625 94.50390625 C-82.43079986 85.62795465 -81.7628323 73.98865999 -80.890625 63.50390625 C-79.60751553 56.35747376 -76.92532191 51.39404637 -71.15234375 46.93359375 C-57.91800759 38.56784758 -42.75112638 39.23441054 -27.703125 39.37890625 C-25.87435386 39.38895712 -24.04557738 39.39807924 -22.21679688 39.40625 C-17.77460544 39.42809436 -13.33267547 39.46250783 -8.890625 39.50390625 C-8.97209598 36.2945797 -9.08488246 33.08707186 -9.203125 29.87890625 C-9.22568359 28.97527344 -9.24824219 28.07164062 -9.27148438 27.140625 C-9.48482637 21.82646988 -10.13612733 18.18581381 -12.890625 13.50390625 C-12.890625 12.84390625 -12.890625 12.18390625 -12.890625 11.50390625 C-20.36786104 8.77379262 -27.0878749 8.03915814 -35.015625 8.12890625 C-36.56443359 8.11150391 -36.56443359 8.11150391 -38.14453125 8.09375 C-44.46112461 8.11788985 -49.12354841 8.92768383 -54.890625 11.50390625 C-55.880625 11.83390625 -56.870625 12.16390625 -57.890625 12.50390625 C-58.92609547 15.52673268 -58.92609547 15.52673268 -59.578125 19.06640625 C-60.01125 21.19078125 -60.444375 23.31515625 -60.890625 25.50390625 C-66.500625 25.50390625 -72.110625 25.50390625 -77.890625 25.50390625 C-77.890625 15.58836347 -76.94561082 8.51081198 -69.87890625 1.25390625 C-53.70513308 -12.98155619 -16.74469833 -13.25045343 0 0 Z M-59.890625 61.50390625 C-62.78629267 65.50268541 -63.20228294 70.81771165 -62.64453125 75.625 C-61.68547728 80.11473051 -60.33275335 83.32655701 -56.890625 86.50390625 C-47.9913632 92.20559779 -37.68284054 92.27218807 -27.578125 90.37890625 C-20.34333489 88.59233962 -15.21247617 86.59833067 -10.6953125 80.578125 C-7.93801159 75.51843141 -8.45958275 70.1752343 -8.640625 64.56640625 C-8.65867187 63.50099609 -8.67671875 62.43558594 -8.6953125 61.33789062 C-8.74216943 58.72561696 -8.80775574 56.11524399 -8.890625 53.50390625 C-13.37057339 53.42877812 -17.85017125 53.37485156 -22.33056641 53.33911133 C-23.84918621 53.32418513 -25.36776417 53.30383666 -26.88623047 53.27758789 C-44.9375946 52.73742016 -44.9375946 52.73742016 -59.890625 61.50390625 Z " fill="#000000" transform="translate(2228.890625,2146.49609375)"/>
<path d="M0 0 C5.94 0 11.88 0 18 0 C18.33 18.48 18.66 36.96 19 56 C21.31 54.02 23.62 52.04 26 50 C38.26839377 42.75963647 55.6167466 42.65580537 69.18359375 45.71875 C77.4389168 48.10980487 83.2032231 51.44275193 87.75 58.8515625 C94.41155576 72.01454046 94.29365404 86.12120196 94.1953125 100.5546875 C94.19157129 102.19377467 94.18872958 103.83286412 94.18673706 105.47195435 C94.17918764 109.73633256 94.15961651 114.00056933 94.1373291 118.26489258 C94.11668074 122.63621102 94.1076952 127.00755285 94.09765625 131.37890625 C94.07636021 139.91933494 94.04233266 148.45964976 94 157 C90.85418577 157.02888514 87.70840531 157.04675923 84.5625 157.0625 C83.66466797 157.07087891 82.76683594 157.07925781 81.84179688 157.08789062 C80.98779297 157.09111328 80.13378906 157.09433594 79.25390625 157.09765625 C78.46314697 157.10289307 77.6723877 157.10812988 76.85766602 157.11352539 C75 157 75 157 74 156 C73.89630855 153.65497055 73.85638031 151.33844443 73.8581543 148.99267578 C73.85467987 148.25917404 73.85120544 147.5256723 73.84762573 146.76994324 C73.8402531 145.17010385 73.83491579 143.57025413 73.83133507 141.97040176 C73.82417572 139.43004324 73.80850859 136.88987859 73.78999329 134.34957886 C73.73753223 127.12403191 73.68964671 119.89858439 73.67407227 112.67285156 C73.66392708 108.25592037 73.63442708 103.83946712 73.59275246 99.42272568 C73.58051769 97.74603791 73.57530731 96.06928233 73.57755089 94.39255142 C73.78889544 78.75546315 73.78889544 78.75546315 66.5625 65.4375 C56.35780423 59.71291457 45.14664798 60.38354131 34 63 C27.51649722 65.81315445 23.82593795 69.49171232 21.25 76 C19.23606328 81.62028851 18.86856305 87.26679528 18.79467773 93.19873047 C18.77982834 94.23879997 18.77982834 94.23879997 18.76467896 95.29988098 C18.73330674 97.57228277 18.70840353 99.84470541 18.68359375 102.1171875 C18.6630032 103.70045488 18.6420062 105.28371703 18.62062073 106.86697388 C18.56561691 111.01956929 18.51611265 115.17221251 18.46777344 119.32489014 C18.41739932 123.56819884 18.36179658 127.81143873 18.30664062 132.0546875 C18.19932462 140.36973487 18.09830512 148.68484121 18 157 C12.06 157 6.12 157 0 157 C0 105.19 0 53.38 0 0 Z " fill="#000000" transform="translate(1105,2093)"/>
<path d="M0 0 C8.16409625 7.37543579 11.60482037 15.64619429 13.60546875 26.28515625 C13.84547109 28.0223255 13.84547109 28.0223255 15 29 C16.00583702 34.47622377 16.1046998 39.88570177 16.125 45.4375 C16.13188843 46.52140015 16.13188843 46.52140015 16.13891602 47.62719727 C16.12333526 52.87666474 16.12333526 52.87666474 15 54 C12.59651714 54.09496708 10.22189018 54.12558862 7.81811523 54.11352539 C6.6913588 54.11374443 6.6913588 54.11374443 5.5418396 54.1139679 C3.04739541 54.11326863 0.55302497 54.10547564 -1.94140625 54.09765625 C-3.66633564 54.09579212 -5.39126557 54.09436819 -7.11619568 54.09336853 C-11.66512503 54.08954297 -16.21402267 54.07971238 -20.76293945 54.06866455 C-25.40120006 54.05845124 -30.03946577 54.05387108 -34.67773438 54.04882812 C-43.78517022 54.03809014 -52.89258248 54.02101327 -62 54 C-61.54507882 56.8903863 -61.08316816 59.77936273 -60.6171875 62.66796875 C-60.48981201 63.48197144 -60.36243652 64.29597412 -60.23120117 65.13464355 C-58.85983151 73.56579008 -56.87664743 80.43319017 -50 86 C-40.04063482 92.40244905 -27.41955946 91.62650581 -16.25 89.46875 C-12.28530327 88.37324169 -10.36948417 87.40737998 -7.5625 84.3125 C-5.56171736 80.34917227 -5.56171736 80.34917227 -4 73 C2.27 73 8.54 73 15 73 C15.83012647 82.40809998 13.40867053 89.49196634 7.46484375 96.91796875 C-2.50543116 106.44729784 -17.44231483 107.98127332 -30.5625 108.25 C-44.84888773 107.92137849 -57.89177998 105.15849731 -68.625 95.0625 C-83.08175547 79.00286333 -80.94154197 54.15720778 -80 34 C-79.00798649 23.79113251 -76.47503832 14.16417875 -70 6 C-69.23042969 5.02160156 -69.23042969 5.02160156 -68.4453125 4.0234375 C-53.79580849 -12.44849285 -16.90946808 -13.06492621 0 0 Z M-54 13 C-60.70382124 21.02319031 -61 28.61969823 -61 39 C-41.86 39 -22.72 39 -3 39 C-4.21959246 24.01091723 -4.21959246 24.01091723 -11.9375 12.0625 C-23.44630064 4.31167508 -42.79615389 4.65203623 -54 13 Z " fill="#000000" transform="translate(1845,2146)"/>
<path d="M0 0 C0 5.94 0 11.88 0 18 C-2.76375 18.391875 -5.5275 18.78375 -8.375 19.1875 C-17.66310192 20.67412963 -25.55579498 22.42239187 -31.5625 30.1875 C-34.62069792 34.71848445 -35.16151376 37.86970989 -35.20532227 43.29541016 C-35.22017166 44.42238564 -35.22017166 44.42238564 -35.23532104 45.5721283 C-35.26696523 48.06107406 -35.29170495 50.55003893 -35.31640625 53.0390625 C-35.33697326 54.76256818 -35.35796967 56.48606879 -35.37937927 58.20956421 C-35.43462607 62.7502024 -35.48402383 67.2908863 -35.53222656 71.831604 C-35.58242256 76.46329832 -35.63811854 81.09492609 -35.69335938 85.7265625 C-35.80097286 94.81765364 -35.90190261 103.90880119 -36 113 C-42.27 113 -48.54 113 -55 113 C-55.02312005 98.67505516 -55.04091336 84.35011473 -55.05181217 70.02515507 C-55.05704174 63.3742647 -55.06414072 56.72339214 -55.07543945 50.07250977 C-55.08626571 43.65997123 -55.09227628 37.24744496 -55.09487724 30.83489799 C-55.09673197 28.38235722 -55.10035347 25.92981715 -55.10573006 23.47728157 C-55.11293702 20.05523323 -55.11399109 16.63323629 -55.11352539 13.21118164 C-55.11712067 12.18619568 -55.12071594 11.16120972 -55.12442017 10.10516357 C-55.1230455 9.17823196 -55.12167084 8.25130035 -55.12025452 7.29627991 C-55.12117631 6.48602387 -55.1220981 5.67576784 -55.12304783 4.8409586 C-55 3 -55 3 -54 2 C-51.69098304 1.84820622 -49.37632931 1.77818878 -47.0625 1.75 C-45.79535156 1.72421875 -44.52820312 1.6984375 -43.22265625 1.671875 C-41.62744141 1.83429687 -41.62744141 1.83429687 -40 2 C-37.97649676 5.03525486 -37.67875982 6.19426202 -37.375 9.6875 C-37.30023437 10.49574219 -37.22546875 11.30398437 -37.1484375 12.13671875 C-37.07496094 13.05904297 -37.07496094 13.05904297 -37 14 C-36.319375 13.278125 -35.63875 12.55625 -34.9375 11.8125 C-24.88965346 1.87723437 -13.79424889 -0.18640877 0 0 Z " fill="#000000" transform="translate(2038,2138)"/>
</svg>
