<svg version="1.1" id="Layer_1" xmlns="http://www.w3.org/2000/svg" xmlns:xlink="http://www.w3.org/1999/xlink" x="0px" y="0px"
	 width="100%" viewBox="0 0 4000 4000" enable-background="new 0 0 4000 4000" xml:space="preserve">
<path fill="#FFFFFF" opacity="1.000000" stroke="none" 
	d="
M2222.000000,4002.000000 
	C1481.333374,4002.000000 741.666687,4002.000000 2.000000,4002.000000 
	C2.000000,2668.666748 2.000000,1335.333374 2.000000,2.000000 
	C1335.333374,2.000000 2668.666748,2.000000 4002.000000,2.000000 
	C4002.000000,1335.333374 4002.000000,2668.666748 4002.000000,4002.000000 
	C3409.000000,4002.000000 2816.000000,4002.000000 2222.000000,4002.000000 
z"/>
<path fill="#010101" opacity="1.000000" stroke="none" 
	d="
M1466.327271,1965.999756 
	C1466.327148,1936.007935 1466.301514,1907.016235 1466.339844,1878.024414 
	C1466.354980,1866.504761 1465.109253,1855.447266 1458.785645,1845.254883 
	C1451.690186,1833.818115 1438.315796,1827.722168 1425.548340,1831.690308 
	C1417.673340,1834.137817 1409.808960,1836.432861 1402.569458,1841.103027 
	C1395.999756,1845.341431 1394.201294,1850.169312 1394.224365,1857.465210 
	C1394.427490,1922.112915 1394.380371,1986.761597 1394.310059,2051.409912 
	C1394.296265,2064.196289 1396.173218,2062.260986 1383.161987,2062.309082 
	C1354.503784,2062.414795 1325.845093,2062.364990 1297.186523,2062.331299 
	C1284.649170,2062.316650 1286.358276,2063.320557 1286.348511,2051.907715 
	C1286.301392,1996.256836 1286.345337,1940.605835 1286.299805,1884.954956 
	C1286.295166,1879.304810 1285.439453,1873.624390 1285.803345,1868.011597 
	C1286.407715,1858.688721 1282.503052,1850.677246 1277.801270,1843.582275 
	C1271.330933,1833.818604 1260.867920,1828.852295 1249.326172,1830.828735 
	C1240.021118,1832.421997 1230.858276,1835.657593 1222.522949,1841.181030 
	C1216.077515,1845.452026 1214.188721,1850.236206 1214.213745,1857.559570 
	C1214.435547,1922.207031 1214.343628,1986.855835 1214.341553,2051.504150 
	C1214.341187,2062.337402 1214.334839,2062.340820 1203.067993,2062.341553 
	C1173.409668,2062.343262 1143.751465,2062.370361 1114.093140,2062.322754 
	C1106.464722,2062.310547 1106.347290,2062.200439 1106.345215,2054.812744 
	C1106.318604,1955.840698 1106.317627,1856.868774 1106.346924,1757.896729 
	C1106.349121,1750.464600 1106.479492,1750.352783 1114.136353,1750.340454 
	C1144.127808,1750.292358 1174.119385,1750.290527 1204.110840,1750.342285 
	C1211.532715,1750.355103 1211.565430,1750.477051 1211.661011,1758.139160 
	C1211.723389,1763.132568 1211.672729,1768.127197 1211.672729,1774.822876 
	C1235.766602,1751.815674 1263.701416,1741.898926 1295.663940,1742.238525 
	C1329.000854,1742.592773 1355.639160,1755.715820 1375.776733,1783.312256 
	C1386.998779,1771.245972 1399.603638,1761.836670 1413.992554,1755.355713 
	C1448.271362,1739.915405 1483.466797,1736.517700 1518.857910,1751.019531 
	C1539.891113,1759.638062 1554.580078,1775.574829 1563.681152,1796.358887 
	C1571.623413,1814.496216 1574.614380,1833.510254 1574.493652,1853.398438 
	C1574.093262,1919.377319 1574.342529,1985.359985 1574.341919,2051.341309 
	C1574.341919,2053.674072 1574.233887,2056.011963 1574.356689,2058.338135 
	C1574.515747,2061.349121 1573.138916,2062.413330 1570.228271,2062.366943 
	C1563.565186,2062.261230 1556.899292,2062.341309 1550.234497,2062.341553 
	C1525.574829,2062.342529 1500.915039,2062.348389 1476.255371,2062.339355 
	C1464.598999,2062.335205 1466.372559,2062.887207 1466.348389,2051.976318 
	C1466.285400,2023.651001 1466.327271,1995.325317 1466.327271,1965.999756 
z"/>
<path fill="#010101" opacity="1.000000" stroke="none" 
	d="
M1881.672119,2043.902832 
	C1881.671875,2048.555176 1881.306763,2052.266602 1881.755127,2055.876709 
	C1882.462158,2061.568359 1879.689453,2062.442139 1874.829468,2062.418945 
	C1843.169800,2062.267334 1811.507202,2062.168701 1779.850220,2062.494385 
	C1773.925293,2062.555176 1773.584961,2059.997803 1773.595703,2055.416016 
	C1773.699951,2010.758545 1773.658325,1966.100464 1773.658203,1921.442627 
	C1773.658081,1907.778687 1773.838501,1894.111328 1773.585083,1880.452026 
	C1773.450073,1873.178101 1773.475464,1865.705811 1771.841919,1858.692627 
	C1767.482666,1839.976074 1749.193115,1825.010010 1729.272095,1832.363770 
	C1726.134888,1833.521973 1722.917480,1833.219482 1719.912598,1834.730225 
	C1713.384155,1838.012573 1706.960083,1842.017578 1702.571167,1847.369629 
	C1700.064331,1850.426758 1701.695068,1856.987549 1701.692505,1861.970947 
	C1701.661499,1924.625244 1701.672119,1987.279541 1701.672119,2049.933838 
	C1701.672119,2051.933350 1701.490479,2053.953125 1701.708008,2055.928467 
	C1702.205444,2060.443848 1700.890259,2062.471191 1695.783447,2062.439697 
	C1663.457764,2062.241455 1631.130005,2062.291260 1598.803467,2062.401855 
	C1595.022705,2062.414795 1593.204712,2061.370605 1593.626221,2057.366211 
	C1593.834473,2055.388916 1593.658325,2053.370850 1593.658325,2051.371338 
	C1593.658203,1954.723755 1593.644165,1858.076172 1593.674927,1761.428589 
	C1593.679077,1748.406982 1592.422241,1750.389404 1604.843506,1750.349487 
	C1633.170898,1750.258789 1661.498901,1750.302979 1689.826660,1750.332031 
	C1698.261719,1750.340820 1698.276611,1750.401367 1698.335693,1759.094727 
	C1698.368774,1763.953979 1698.341797,1768.813843 1698.341797,1775.985840 
	C1708.595215,1765.119629 1719.107300,1758.463867 1730.302368,1752.750244 
	C1742.862183,1746.340088 1756.384277,1743.338257 1770.194092,1742.489502 
	C1789.104614,1741.327637 1807.448364,1743.332642 1825.261108,1751.567627 
	C1839.035034,1757.935425 1849.421509,1767.577515 1858.756348,1778.672119 
	C1861.842407,1782.339844 1863.082764,1782.458496 1866.158813,1779.585815 
	C1876.988647,1769.471802 1889.213379,1761.387939 1902.419067,1754.671509 
	C1916.502075,1747.508301 1931.698608,1743.922485 1947.117432,1742.641235 
	C1969.418579,1740.788208 1991.356323,1742.759155 2011.699341,1753.961548 
	C2030.779419,1764.468506 2043.832520,1779.849854 2051.919189,1799.849121 
	C2059.078857,1817.555420 2061.863770,1835.883423 2061.780518,1854.976562 
	C2061.497314,1919.962524 2061.672607,1984.950317 2061.672363,2049.937500 
	C2061.672363,2051.937012 2061.489990,2053.956787 2061.708252,2055.932129 
	C2062.207520,2060.452148 2060.882080,2062.471191 2055.779785,2062.439941 
	C2023.454224,2062.241699 1991.126465,2062.291504 1958.799927,2062.402100 
	C1955.014893,2062.415039 1953.228027,2061.364258 1953.621094,2057.362549 
	C1953.848022,2055.052246 1953.658325,2052.700928 1953.658325,2050.368164 
	C1953.658081,1997.711914 1953.556519,1945.055176 1953.743042,1892.399536 
	C1953.780884,1881.744507 1953.596191,1871.082886 1952.108643,1860.605835 
	C1949.442749,1841.829346 1930.278076,1825.296265 1910.065186,1831.828247 
	C1902.333740,1834.326782 1895.004028,1837.256226 1888.175415,1842.022705 
	C1883.145630,1845.533447 1881.531128,1849.060425 1881.549683,1854.954590 
	C1881.747192,1917.608032 1881.672241,1980.262451 1881.672119,2043.902832 
z"/>
<path fill="#010101" opacity="1.000000" stroke="none" 
	d="
M3044.455566,2051.388672 
	C3030.382568,2058.556641 3015.604248,2061.087891 3000.985596,2064.120117 
	C2984.307129,2067.579834 2967.343262,2068.815186 2950.440918,2067.499756 
	C2931.302979,2066.010742 2911.974365,2063.918701 2895.890625,2051.708252 
	C2878.950928,2038.847656 2868.039062,2022.294312 2864.088379,2000.953857 
	C2861.695801,1988.031860 2861.678955,1975.169434 2861.669434,1962.214722 
	C2861.638428,1920.556641 2861.671387,1878.898560 2861.647217,1837.240479 
	C2861.642090,1828.440430 2861.578613,1828.391968 2853.168213,1828.354492 
	C2842.170654,1828.305542 2831.159424,1828.664917 2820.180664,1828.209106 
	C2814.574707,1827.976440 2813.130127,1830.203613 2813.639893,1835.138550 
	C2813.844238,1837.116943 2813.673096,1839.134155 2813.673096,1841.133789 
	C2813.673096,1910.452881 2813.673096,1979.771973 2813.673096,2049.091064 
	C2813.673096,2051.090576 2813.705078,2053.091064 2813.666504,2055.089844 
	C2813.530518,2062.152344 2813.521973,2062.294434 2806.628662,2062.315918 
	C2784.300293,2062.385986 2761.971191,2062.342285 2739.642578,2062.341797 
	C2729.977783,2062.341553 2720.309570,2062.186523 2710.650146,2062.411865 
	C2706.672119,2062.504639 2705.234619,2061.024414 2705.631836,2057.213135 
	C2705.803467,2055.564941 2705.657959,2053.883545 2705.657959,2052.217285 
	C2705.657715,1955.237305 2705.645752,1858.257202 2705.672607,1761.277222 
	C2705.676270,1748.359375 2704.532471,1750.371582 2716.993652,1750.349976 
	C2760.984619,1750.273682 2804.975586,1750.320435 2848.966553,1750.320312 
	C2850.966064,1750.320312 2852.986328,1750.135620 2854.961426,1750.355347 
	C2860.037109,1750.919922 2861.876709,1749.144531 2861.786133,1743.716553 
	C2861.458496,1724.059448 2861.512695,1704.391724 2861.739014,1684.731812 
	C2861.814697,1678.166016 2858.787354,1669.855591 2863.193604,1665.510132 
	C2866.939941,1661.815552 2874.937256,1662.388062 2881.072510,1661.166382 
	C2909.030273,1655.600586 2936.992432,1650.056519 2964.964355,1644.561890 
	C2966.188477,1644.321411 2967.523438,1644.644531 2968.695801,1644.700073 
	C2970.343506,1648.170532 2969.631592,1651.555420 2969.638184,1654.833862 
	C2969.697998,1684.161011 2969.692627,1713.488403 2969.660645,1742.815674 
	C2969.651367,1751.116333 2969.473633,1750.329590 2977.281494,1750.324341 
	C2994.944580,1750.312500 3012.607666,1750.272583 3030.270508,1750.344604 
	C3037.468750,1750.373901 3037.620850,1750.491821 3037.644531,1757.305054 
	C3037.720215,1778.967041 3037.516846,1800.631348 3037.786865,1822.290161 
	C3037.849854,1827.335693 3036.018311,1828.466553 3031.425781,1828.419189 
	C3013.098145,1828.230225 2994.764648,1828.518921 2976.439453,1828.229858 
	C2971.278564,1828.148438 2969.500244,1829.560547 2969.579590,1834.873901 
	C2970.155029,1873.513916 2969.062012,1912.160278 2970.249512,1950.805908 
	C2970.978027,1974.503784 2985.896484,1981.330322 3006.041260,1979.181030 
	C3013.870361,1978.345825 3021.387939,1976.127808 3028.961670,1974.203247 
	C3033.682617,1973.003540 3035.277344,1974.153442 3035.814453,1979.250977 
	C3038.173096,2001.633423 3041.034668,2023.963135 3043.922852,2047.130981 
	C3044.819824,2048.771484 3045.072266,2049.709961 3044.455566,2051.388672 
z"/>
<path fill="#020202" opacity="1.000000" stroke="none" 
	d="
M786.155884,1953.032227 
	C776.169861,1973.686279 764.956726,1992.381470 750.161194,2009.054077 
	C735.964294,2025.051880 719.407288,2037.566895 700.981384,2048.128906 
	C673.898376,2063.653076 644.756531,2069.946045 613.764282,2070.554932 
	C593.713257,2070.948975 573.901611,2069.192139 554.417358,2065.521973 
	C542.040588,2063.190674 530.389282,2057.505859 518.709473,2052.007080 
	C487.222198,2037.183716 463.090332,2014.548828 445.612213,1985.307251 
	C436.683929,1970.369751 428.059021,1954.773926 424.026550,1937.194092 
	C419.828613,1918.892944 415.502502,1900.712036 413.488831,1881.963867 
	C411.809631,1866.329712 412.208160,1850.725464 412.483093,1835.133179 
	C412.763550,1819.229004 415.581085,1803.532959 418.369904,1787.850098 
	C420.966675,1773.247314 424.640930,1758.804810 430.783386,1745.571167 
	C438.253540,1729.477051 445.955078,1713.254639 457.591949,1699.345703 
	C463.329865,1692.487427 469.211456,1685.833252 475.536621,1679.540527 
	C498.760681,1656.435181 526.821838,1642.366455 558.345459,1634.268311 
	C581.736816,1628.259155 605.546814,1626.730469 629.282837,1628.578125 
	C677.930603,1632.364746 719.684265,1651.663574 752.657043,1688.272705 
	C766.866943,1704.049316 776.852783,1722.574341 785.716553,1741.731567 
	C787.238403,1745.020630 786.596924,1746.747559 782.953735,1748.241089 
	C771.678955,1752.863647 760.461365,1757.672607 749.472778,1762.933960 
	C737.668152,1768.585815 725.413635,1773.193481 713.571045,1778.794312 
	C706.756287,1782.017212 699.561829,1785.061279 692.332520,1787.674927 
	C689.682678,1788.632935 687.935303,1788.121460 686.590210,1785.579590 
	C684.014587,1780.712524 681.067078,1776.032593 678.665039,1771.085083 
	C668.715759,1750.591553 653.186829,1737.106079 631.344971,1729.736206 
	C598.183655,1718.546631 560.156006,1736.278931 545.412476,1766.078003 
	C537.380737,1782.311401 532.686096,1799.181274 530.372192,1816.855957 
	C526.326111,1847.762695 527.662842,1878.409180 535.731934,1908.655518 
	C539.852600,1924.101929 546.542786,1938.287964 557.215698,1950.181519 
	C580.064087,1975.643311 617.555237,1980.064697 647.350952,1961.417236 
	C665.497314,1950.060547 677.935425,1933.224487 686.271057,1913.504272 
	C688.326294,1908.641724 690.685486,1906.924316 694.755249,1908.682007 
	C724.751526,1921.637207 754.706482,1934.688110 785.378784,1947.516602 
	C787.388062,1948.864624 787.527832,1950.570068 786.155884,1953.032227 
z"/>
<path fill="#020202" opacity="1.000000" stroke="none" 
	d="
M2524.761230,1834.294922 
	C2521.120117,1835.881836 2517.924316,1836.608887 2515.166504,1838.129517 
	C2505.010498,1843.730347 2499.751465,1850.926758 2499.942871,1864.114136 
	C2500.841797,1926.082153 2500.343018,1988.070435 2500.342773,2050.051514 
	C2500.342773,2052.051025 2500.154053,2054.071777 2500.380127,2056.045410 
	C2500.895020,2060.539795 2499.697510,2062.500244 2494.519775,2062.461670 
	C2462.531494,2062.222900 2430.539795,2062.270752 2398.550293,2062.419922 
	C2393.924316,2062.441406 2391.565186,2061.276855 2392.290771,2056.264648 
	C2392.526855,2054.632568 2392.326416,2052.937744 2392.326416,2051.271484 
	C2392.326172,1954.634277 2392.314697,1857.997070 2392.341309,1761.359863 
	C2392.344727,1748.873901 2391.016846,1750.362671 2403.669922,1750.337524 
	C2431.994629,1750.281128 2460.319336,1750.336670 2488.644043,1750.310913 
	C2498.563232,1750.301880 2497.666260,1750.060913 2497.683594,1759.670166 
	C2497.691406,1763.997437 2497.800537,1768.324585 2497.894775,1772.651245 
	C2497.900146,1772.897217 2498.188232,1773.137085 2498.685303,1773.909058 
	C2501.208252,1772.230347 2504.019775,1770.803711 2506.295410,1768.775879 
	C2526.722900,1750.574219 2550.911377,1742.814575 2577.904785,1742.260742 
	C2591.915283,1741.973511 2605.515137,1743.442383 2618.873291,1747.993286 
	C2640.787109,1755.458984 2657.174805,1769.251831 2668.367188,1789.407959 
	C2678.989014,1808.537354 2684.362305,1829.005615 2684.353027,1850.908569 
	C2684.324707,1917.554932 2684.343018,1984.201294 2684.343018,2050.847656 
	C2684.343018,2052.180664 2684.331055,2053.513672 2684.344971,2054.846436 
	C2684.431152,2063.076172 2684.582031,2062.350098 2676.724854,2062.347168 
	C2646.067627,2062.335938 2615.410156,2062.328369 2584.752930,2062.351318 
	C2575.164551,2062.358398 2576.324463,2062.302979 2576.324951,2053.474609 
	C2576.327881,2000.157471 2576.358398,1946.840454 2576.296143,1893.523315 
	C2576.285400,1884.208740 2576.039551,1874.887451 2575.618652,1865.582031 
	C2574.898193,1849.655518 2562.496826,1834.210571 2547.447510,1830.699707 
	C2541.881348,1829.401123 2536.115479,1830.136353 2530.916992,1832.419434 
	C2529.028564,1833.248535 2527.243164,1833.366821 2524.761230,1834.294922 
z"/>
<path fill="#BFB2AA" opacity="1.000000" stroke="none" 
	d="
M2188.164551,1818.000000 
	C2188.164795,1850.985474 2188.411133,1882.973877 2188.042480,1914.955078 
	C2187.896240,1927.633789 2188.909424,1940.190430 2190.156738,1952.727783 
	C2192.266113,1973.929077 2210.564941,1987.143677 2233.703613,1980.926514 
	C2242.246826,1978.631104 2250.096924,1974.296753 2257.012207,1968.275269 
	C2262.219727,1963.740723 2264.334229,1958.905518 2264.306396,1951.911987 
	C2264.055420,1889.274658 2264.129883,1826.635986 2264.180908,1763.997681 
	C2264.193604,1748.499512 2262.446289,1750.217163 2278.098877,1750.176147 
	C2305.086426,1750.105347 2332.074463,1750.156006 2359.062256,1750.156982 
	C2361.394531,1750.157104 2363.731934,1750.268799 2366.057861,1750.149536 
	C2370.133789,1749.940674 2372.409424,1751.442993 2372.164795,1755.861938 
	C2372.035889,1758.186646 2372.163574,1760.525024 2372.163574,1762.857300 
	C2372.164795,1858.480713 2372.171387,1954.104126 2372.156738,2049.727539 
	C2372.154785,2063.140381 2373.243896,2062.153564 2359.808594,2062.165039 
	C2335.486328,2062.185547 2311.164062,2062.205322 2286.841797,2062.149658 
	C2278.976562,2062.131592 2279.217041,2061.956055 2277.101562,2054.366699 
	C2275.275391,2047.815674 2277.233398,2040.365234 2272.176758,2034.028442 
	C2265.841553,2037.234741 2261.714844,2043.042236 2256.101807,2046.989502 
	C2235.177734,2061.704834 2212.927979,2071.162842 2186.684814,2070.358154 
	C2171.022217,2069.877930 2155.377197,2069.930176 2140.753906,2063.711670 
	C2122.405762,2055.909424 2107.498291,2044.010620 2097.236816,2026.360352 
	C2084.656250,2004.720825 2080.339600,1981.193359 2080.244141,1956.742432 
	C2079.994141,1892.772339 2080.159424,1828.800781 2080.159668,1764.829712 
	C2080.159668,1762.497437 2080.102539,1760.163452 2080.172607,1757.833252 
	C2080.396484,1750.376343 2080.414307,1750.207153 2088.269043,1750.188354 
	C2118.921875,1750.114990 2149.574707,1750.112671 2180.227539,1750.191040 
	C2187.911865,1750.210693 2188.086670,1750.393188 2188.126953,1758.027100 
	C2188.230469,1777.684326 2188.163574,1797.342285 2188.164551,1818.000000 
z"/>
<path fill="#020202" opacity="1.000000" stroke="none" 
	d="
M787.564575,1946.752686 
	C787.515137,1934.842285 785.728149,1923.742310 785.412781,1912.509033 
	C784.858826,1892.780884 786.394348,1873.174438 790.805359,1854.218750 
	C794.064026,1840.215332 798.983643,1826.261353 807.387268,1813.797241 
	C812.693298,1805.927246 818.226013,1798.417114 824.174011,1791.020142 
	C842.206970,1768.594482 866.136414,1756.146240 893.055725,1748.443115 
	C913.038025,1742.724976 933.574219,1741.264160 954.206116,1742.406860 
	C986.995361,1744.222900 1016.753479,1754.430176 1042.473755,1775.492798 
	C1075.243774,1802.328125 1091.061890,1837.927002 1096.254395,1878.962402 
	C1099.186890,1902.137695 1098.924438,1925.377197 1093.768921,1948.230957 
	C1087.931152,1974.110229 1077.686401,1997.827393 1060.579346,2018.785034 
	C1046.871948,2035.577881 1029.594116,2047.397461 1011.119507,2057.024902 
	C994.224060,2065.829590 975.094788,2069.460938 955.817749,2070.298828 
	C934.536560,2071.223877 913.212646,2070.657959 892.471497,2065.713379 
	C872.890747,2061.045898 855.372925,2051.640869 839.692566,2038.751221 
	C829.190491,2030.118286 820.306152,2020.258667 812.578430,2009.112305 
	C802.073792,1993.960693 795.189331,1977.297241 790.470825,1959.623657 
	C790.139099,1958.381226 790.386597,1956.984009 790.116333,1954.854492 
	C788.038513,1952.206543 788.100586,1949.755249 787.564575,1946.752686 
z"/>
<path fill="#020202" opacity="1.000000" stroke="none" 
	d="
M3170.236816,1859.918701 
	C3173.018555,1842.165161 3178.951416,1826.419189 3187.885010,1811.938721 
	C3192.658691,1804.200806 3198.105469,1796.786255 3203.961426,1789.825317 
	C3220.116211,1770.621460 3240.677734,1757.693359 3264.477539,1750.302368 
	C3302.494629,1738.496338 3340.730957,1738.243896 3378.004883,1752.699951 
	C3400.436523,1761.399902 3419.507568,1775.623535 3433.718262,1795.646484 
	C3451.502930,1820.704346 3460.993896,1848.685303 3464.448486,1879.075195 
	C3466.526855,1897.357300 3465.049072,1915.634033 3465.723877,1933.897705 
	C3465.879883,1938.118408 3464.531494,1940.159424 3460.067383,1939.719727 
	C3457.757080,1939.492188 3455.405518,1939.682983 3453.072754,1939.682983 
	C3396.417969,1939.683228 3339.763184,1939.683350 3283.108398,1939.683350 
	C3279.463867,1939.683350 3275.819092,1939.683105 3271.032471,1939.683105 
	C3274.886963,1959.354126 3283.892090,1974.219849 3302.264404,1981.896484 
	C3319.030518,1988.901978 3336.522461,1988.415405 3354.041748,1985.139648 
	C3371.861572,1981.807495 3388.401611,1975.109619 3403.917236,1965.802490 
	C3407.031982,1963.933960 3410.134277,1962.044800 3413.892334,1959.772095 
	C3417.933594,1966.268188 3421.926025,1972.538940 3425.772461,1978.897949 
	C3434.781738,1993.791748 3443.469238,2008.889526 3452.861572,2023.536011 
	C3455.268555,2027.289429 3454.177002,2028.908081 3451.510254,2030.724243 
	C3437.763916,2040.085571 3423.742432,2048.913330 3408.413330,2055.620850 
	C3374.281006,2070.556152 3338.422607,2072.077637 3302.096680,2069.614502 
	C3282.571533,2068.290527 3263.287354,2064.583008 3245.782715,2055.648438 
	C3224.719482,2044.897339 3206.170166,2030.676514 3192.814941,2010.588135 
	C3184.195557,1997.623413 3177.741211,1983.867554 3173.421631,1968.731934 
	C3163.195312,1932.901733 3163.208252,1897.014160 3170.236816,1859.918701 
z"/>
<path fill="#020202" opacity="1.000000" stroke="none" 
	d="
M3047.150391,2048.534180 
	C3047.510010,2025.837036 3047.638672,2003.844971 3047.646729,1981.853027 
	C3047.673584,1909.200684 3047.656982,1836.548340 3047.656982,1763.895996 
	C3047.656982,1761.896362 3047.625732,1759.896240 3047.663086,1757.897339 
	C3047.802246,1750.442139 3047.810547,1750.346680 3055.374268,1750.336548 
	C3085.701660,1750.296021 3116.028809,1750.306396 3146.356201,1750.328369 
	C3155.602539,1750.334961 3155.658936,1750.379883 3155.663818,1759.389038 
	C3155.686035,1800.047729 3155.673584,1840.706299 3155.673584,1881.364990 
	C3155.673584,1938.020386 3155.673828,1994.675903 3155.673096,2051.331299 
	C3155.673096,2053.664307 3155.572266,2056.001709 3155.685547,2058.328857 
	C3155.837646,2061.451904 3154.176514,2062.372314 3151.387939,2062.341553 
	C3146.389648,2062.286621 3141.390137,2062.341797 3136.391113,2062.342041 
	C3109.396484,2062.343750 3082.401855,2062.364014 3055.407227,2062.329346 
	C3048.021729,2062.319824 3048.021729,2062.242432 3047.536865,2053.078857 
	C3046.944092,2051.254150 3046.753174,2050.276123 3047.150391,2048.534180 
z"/>
<path fill="#020202" opacity="1.000000" stroke="none" 
	d="
M3594.020508,1990.660645 
	C3599.083984,2011.798340 3596.502197,2031.059937 3583.666016,2047.706665 
	C3573.698730,2060.633301 3560.615967,2069.487305 3543.403809,2070.367432 
	C3532.681396,2070.915771 3522.006836,2070.971924 3511.598877,2067.927979 
	C3490.295654,2061.697021 3474.868652,2041.191895 3473.817383,2019.964722 
	C3473.254150,2008.589478 3472.583984,1997.146484 3476.207764,1986.026123 
	C3483.462891,1963.762207 3499.810547,1952.331299 3521.957275,1948.553223 
	C3534.089600,1946.483521 3546.132812,1947.358398 3557.994873,1951.866943 
	C3574.425293,1958.111816 3585.617920,1969.132568 3591.937744,1985.363525 
	C3592.526123,1986.874390 3593.203857,1988.350586 3594.020508,1990.660645 
z"/>
<path fill="#020202" opacity="1.000000" stroke="none" 
	d="
M2815.540527,1688.981812 
	C2808.907715,1710.315063 2784.738770,1728.456177 2762.545166,1726.413818 
	C2753.836914,1725.612305 2745.069336,1726.903564 2736.388428,1724.021729 
	C2723.950928,1719.892944 2715.102295,1711.874756 2708.371826,1701.073364 
	C2699.729004,1687.202271 2699.080811,1672.155029 2701.480225,1656.476807 
	C2702.373291,1650.640503 2704.071045,1645.362305 2706.423828,1639.957642 
	C2713.237793,1624.306152 2726.239502,1616.115601 2741.547607,1612.619263 
	C2760.273193,1608.342285 2778.695312,1609.941895 2795.327148,1621.865967 
	C2808.576660,1631.365234 2816.047119,1644.022827 2818.007080,1659.697632 
	C2819.190430,1669.164185 2819.282715,1678.948730 2815.540527,1688.981812 
z"/>
<path fill="#020202" opacity="1.000000" stroke="none" 
	d="
M3127.575684,1616.101318 
	C3144.340576,1624.202881 3155.467285,1636.600708 3159.052246,1654.118164 
	C3165.605469,1686.140747 3151.984375,1714.067383 3120.371338,1724.590698 
	C3111.695068,1727.479004 3102.736816,1726.085205 3093.896973,1726.311401 
	C3069.081055,1726.946655 3052.910400,1710.635010 3045.133057,1691.068726 
	C3041.349121,1681.548828 3041.167480,1670.288086 3042.629150,1659.628662 
	C3043.644531,1652.222778 3045.697754,1645.191895 3049.196045,1638.432373 
	C3057.266357,1622.839722 3070.573486,1615.425171 3087.144531,1612.146240 
	C3100.839111,1609.436890 3114.013428,1610.291626 3127.575684,1616.101318 
z"/>
<path fill="#0C0C0C" opacity="1.000000" stroke="none" 
	d="
M2763.547363,2342.003418 
	C2757.605713,2331.743408 2757.163086,2320.879639 2756.381592,2310.220703 
	C2755.482422,2297.948486 2756.630371,2285.696289 2758.446777,2273.512939 
	C2760.324463,2260.918701 2772.513428,2249.698730 2786.353760,2248.249756 
	C2801.285645,2246.686279 2816.017822,2246.473389 2828.775146,2256.635254 
	C2831.044678,2253.090332 2830.201660,2250.072998 2830.227539,2247.249756 
	C2830.334473,2235.597900 2830.365967,2223.943115 2830.220703,2212.292236 
	C2830.171875,2208.359375 2830.901123,2206.122803 2835.625488,2206.186523 
	C2850.511719,2206.387695 2847.660156,2205.653564 2847.688965,2217.525635 
	C2847.789551,2259.142822 2847.728271,2300.760742 2847.727539,2342.378174 
	C2847.727539,2344.708740 2847.681396,2347.040039 2847.723877,2349.369629 
	C2847.774170,2352.120361 2846.754639,2353.458008 2843.738525,2353.787354 
	C2836.089111,2354.622559 2834.979492,2354.003662 2832.341553,2345.944580 
	C2832.143066,2345.338379 2831.719482,2344.806396 2831.125000,2343.750244 
	C2823.929932,2346.845215 2819.055664,2353.980957 2810.160400,2354.677734 
	C2801.503174,2355.355957 2793.126221,2355.658691 2784.538818,2354.208252 
	C2776.148193,2352.791260 2769.255859,2349.342285 2763.547363,2342.003418 
z"/>
<path fill="#0C0C0C" opacity="1.000000" stroke="none" 
	d="
M1576.329712,2276.509033 
	C1580.385986,2258.704102 1586.267090,2251.354980 1604.226807,2248.423584 
	C1619.026367,2246.008057 1633.866455,2246.493164 1648.272339,2257.760254 
	C1648.272339,2248.016357 1648.271851,2240.233398 1648.272461,2232.450439 
	C1648.273071,2225.461426 1648.399658,2218.469238 1648.226929,2211.484619 
	C1648.132568,2207.673828 1649.539795,2206.190186 1653.430420,2206.212646 
	C1668.628784,2206.299072 1665.659424,2205.673584 1665.687622,2217.323242 
	C1665.789429,2259.257080 1665.728149,2301.191162 1665.726562,2343.125244 
	C1665.726562,2345.454834 1665.731567,2347.784424 1665.695312,2350.113770 
	C1665.657593,2352.524902 1664.401855,2353.756592 1661.987183,2353.694336 
	C1659.008301,2353.617676 1655.763794,2354.179688 1653.128784,2353.172363 
	C1650.556519,2352.188721 1651.794189,2348.426025 1650.466797,2346.166016 
	C1649.977051,2345.332275 1649.825806,2344.352051 1648.270142,2344.020508 
	C1647.767090,2344.229004 1646.650879,2344.363525 1646.046021,2344.990967 
	C1635.288574,2356.148682 1621.855957,2356.656982 1607.748535,2354.875244 
	C1598.613037,2353.721191 1590.069824,2351.813721 1583.515503,2344.344238 
	C1579.470703,2339.734375 1577.247803,2334.365967 1576.403442,2328.799805 
	C1573.812134,2311.717773 1572.791504,2294.520752 1576.329712,2276.509033 
z"/>
<path fill="#080808" opacity="1.000000" stroke="none" 
	d="
M1430.503296,2330.761963 
	C1438.282837,2324.311523 1440.376953,2316.383057 1440.322266,2307.451416 
	C1440.218262,2290.460693 1440.240356,2273.468750 1440.353271,2256.478027 
	C1440.368896,2254.120361 1438.859253,2250.510986 1442.774536,2249.936523 
	C1446.951294,2249.323730 1451.436646,2248.670166 1455.403564,2250.518555 
	C1457.306885,2251.405518 1456.333252,2254.174561 1456.342773,2256.086670 
	C1456.407837,2269.079590 1456.377441,2282.073242 1456.377319,2295.066650 
	C1456.377319,2315.056396 1456.702637,2335.053223 1456.267822,2355.033447 
	C1455.952515,2369.522949 1451.094849,2381.790283 1437.554688,2389.710205 
	C1434.096924,2391.732666 1430.775024,2391.608643 1427.444214,2392.574951 
	C1413.602783,2396.589844 1399.749390,2393.505615 1386.066162,2391.633057 
	C1377.805298,2390.502930 1369.354736,2376.472656 1370.274292,2368.145996 
	C1370.531494,2365.816895 1371.281128,2364.359619 1373.765381,2364.322266 
	C1376.763184,2364.277344 1379.766357,2364.397705 1382.759155,2364.264893 
	C1385.894287,2364.125977 1387.791504,2364.972412 1387.848389,2368.599121 
	C1387.920776,2373.211670 1391.436401,2376.419678 1394.856201,2377.508057 
	C1406.308838,2381.153809 1418.057373,2383.005859 1429.229248,2376.174316 
	C1435.006958,2372.641113 1439.271606,2367.767822 1439.797485,2360.805664 
	C1440.262329,2354.650879 1439.894775,2348.433105 1439.894775,2341.984131 
	C1438.333008,2342.177979 1437.085571,2341.946045 1436.491333,2342.463867 
	C1425.326782,2352.193359 1412.363159,2352.610107 1398.568970,2350.622314 
	C1390.708740,2349.489746 1382.777588,2349.737549 1377.351196,2342.342041 
	C1374.800171,2338.865234 1372.993286,2335.459473 1372.046875,2331.113037 
	C1368.458130,2314.632080 1369.936401,2297.981689 1369.649170,2281.392334 
	C1369.499268,2272.732666 1369.775879,2264.064453 1369.556396,2255.407715 
	C1369.454102,2251.370850 1370.318115,2248.981201 1374.963867,2249.590332 
	C1376.601440,2249.805420 1378.324585,2249.838867 1379.950684,2249.584473 
	C1385.438721,2248.725586 1386.551880,2251.338623 1386.475830,2256.322510 
	C1386.217041,2273.309814 1386.541138,2290.306152 1386.281738,2307.293457 
	C1386.199463,2312.685303 1387.184204,2317.856934 1388.018677,2323.067139 
	C1388.972168,2329.020508 1392.648560,2333.567871 1398.240479,2335.235840 
	C1409.212280,2338.508545 1420.198120,2339.095703 1430.503296,2330.761963 
z"/>
<path fill="#080808" opacity="1.000000" stroke="none" 
	d="
M2425.539307,2254.113770 
	C2434.565430,2259.887695 2438.028564,2268.565186 2439.877686,2277.606934 
	C2443.569092,2295.658203 2444.043945,2313.802246 2437.998291,2331.594971 
	C2433.633545,2344.440186 2425.129395,2352.181396 2411.344971,2354.462891 
	C2398.358887,2356.611816 2386.116699,2355.680664 2374.161377,2349.884521 
	C2371.321045,2348.507568 2369.951416,2345.711182 2366.481934,2344.204590 
	C2365.363037,2347.352051 2365.523438,2351.671875 2362.596191,2353.190186 
	C2359.823242,2354.628418 2355.883057,2354.534424 2352.952637,2353.102539 
	C2350.703369,2352.003906 2351.649902,2348.878906 2351.648193,2346.619873 
	C2351.614502,2302.310547 2351.604980,2258.001221 2351.671143,2213.691895 
	C2351.674805,2211.209473 2350.367920,2207.386475 2353.549072,2206.659668 
	C2357.639404,2205.725342 2362.290039,2205.319336 2366.302002,2207.023682 
	C2368.681152,2208.034180 2367.666992,2211.209473 2367.677002,2213.448730 
	C2367.738281,2227.408936 2367.707764,2241.370117 2367.707764,2255.635498 
	C2386.809082,2245.571045 2405.658936,2243.666016 2425.539307,2254.113770 
z"/>
<path fill="#080808" opacity="1.000000" stroke="none" 
	d="
M2191.531494,2261.714844 
	C2184.341309,2261.985352 2178.051270,2261.150391 2171.825439,2263.188965 
	C2166.997070,2264.769287 2162.850830,2267.731934 2162.324951,2272.229736 
	C2161.679688,2277.750244 2159.366699,2278.517090 2154.760254,2278.454102 
	C2145.979248,2278.333984 2145.468262,2278.254639 2146.589844,2269.645996 
	C2147.480713,2262.807617 2150.055176,2257.282715 2157.209961,2253.764160 
	C2175.485596,2244.776367 2193.764404,2245.673584 2212.177246,2252.211670 
	C2221.818115,2255.634521 2226.574707,2263.530518 2227.677734,2273.390137 
	C2228.377197,2279.642822 2228.307129,2285.995117 2228.349854,2292.304688 
	C2228.440430,2305.613525 2228.430420,2318.924072 2228.349121,2332.233154 
	C2228.322510,2336.602051 2229.126953,2340.333008 2234.158691,2341.171143 
	C2241.283936,2342.357910 2237.911621,2347.818604 2238.183594,2351.442627 
	C2238.498047,2355.627930 2234.866699,2355.513184 2231.803711,2355.739502 
	C2224.598877,2356.271729 2218.060791,2355.466797 2214.528320,2347.954590 
	C2212.850830,2344.387451 2210.278076,2345.406738 2208.058594,2346.950928 
	C2202.918701,2350.527100 2197.448242,2352.841797 2191.306152,2354.487793 
	C2180.897217,2357.276855 2170.913086,2354.141846 2160.773193,2353.719727 
	C2154.110840,2353.442139 2145.045166,2343.214844 2144.318604,2336.164795 
	C2143.774902,2330.889404 2143.617188,2325.550049 2143.663086,2320.242432 
	C2143.815430,2302.579346 2150.750732,2297.567871 2166.455566,2294.092285 
	C2178.939453,2291.330078 2191.578613,2292.485352 2204.162598,2292.320801 
	C2211.841797,2292.220459 2211.637939,2292.380859 2211.664307,2284.499512 
	C2211.712646,2270.092529 2205.794922,2262.936523 2191.531494,2261.714844 
z"/>
<path fill="#080808" opacity="1.000000" stroke="none" 
	d="
M2560.531982,2347.420898 
	C2556.215088,2342.988281 2553.756104,2338.585938 2553.835938,2332.947754 
	C2553.966309,2323.762451 2552.116211,2314.415283 2556.668213,2305.659912 
	C2560.923340,2297.476318 2568.851807,2295.886963 2576.743408,2294.075439 
	C2588.885986,2291.288330 2601.213135,2292.543457 2613.470947,2292.295166 
	C2621.530762,2292.132080 2621.139160,2292.144531 2621.728027,2284.191895 
	C2622.369629,2275.530518 2619.487549,2269.202881 2612.189209,2264.383545 
	C2604.688232,2259.430908 2581.772705,2260.715820 2575.583740,2267.007324 
	C2574.008545,2268.608643 2572.199463,2270.083740 2571.899170,2272.701172 
	C2571.665283,2274.739258 2572.734863,2277.874512 2569.214355,2278.147461 
	C2565.282959,2278.452393 2561.256348,2279.073975 2557.431885,2277.605225 
	C2556.828613,2277.374023 2556.510498,2275.984619 2556.350830,2275.079590 
	C2554.859131,2266.635742 2558.906982,2258.364746 2566.909912,2254.098389 
	C2584.839600,2244.539795 2603.304688,2245.554199 2621.771973,2252.103516 
	C2631.821533,2255.667969 2636.674316,2263.626709 2637.778076,2273.973877 
	C2638.165039,2277.601318 2638.336914,2281.267578 2638.351074,2284.916748 
	C2638.412109,2300.563965 2638.406494,2316.211670 2638.359131,2331.859131 
	C2638.346436,2336.078369 2638.646240,2340.188477 2643.829590,2340.989746 
	C2650.818604,2342.069824 2648.085693,2347.339844 2648.248535,2351.075684 
	C2648.462646,2355.995361 2644.492432,2355.438477 2641.162109,2355.756348 
	C2634.162109,2356.424805 2627.996582,2355.262451 2624.703613,2348.249756 
	C2623.023926,2344.672852 2620.437012,2345.067139 2618.332764,2346.750732 
	C2603.581055,2358.553955 2586.729248,2355.652832 2570.102539,2353.728516 
	C2566.575684,2353.320312 2563.698975,2350.518555 2560.531982,2347.420898 
z"/>
<path fill="#080808" opacity="1.000000" stroke="none" 
	d="
M1179.364990,2256.305908 
	C1183.882690,2251.031006 1189.247559,2248.637207 1195.606201,2248.084717 
	C1203.175415,2247.427246 1210.765503,2246.889648 1218.319702,2247.675293 
	C1236.223389,2249.536865 1242.281738,2257.825439 1245.709839,2272.497314 
	C1247.352051,2279.526855 1247.916016,2286.852783 1247.796997,2294.221924 
	C1247.517700,2311.539062 1247.545776,2328.866699 1247.810791,2346.184326 
	C1247.884399,2351.005615 1246.423218,2353.026611 1241.607056,2352.394043 
	C1240.624634,2352.265137 1239.610840,2352.378174 1238.611450,2352.376709 
	C1230.452026,2352.364502 1230.219849,2353.167236 1230.263306,2344.409424 
	C1230.357666,2325.422363 1230.358643,2306.434326 1230.243774,2287.447510 
	C1230.216309,2282.910889 1230.486328,2278.473633 1227.621948,2274.126953 
	C1220.468750,2263.271240 1207.897583,2258.795654 1194.543823,2262.380859 
	C1184.093628,2265.186523 1178.905762,2271.242676 1177.489990,2282.170410 
	C1175.680298,2296.136963 1176.862061,2310.050537 1176.420776,2323.976318 
	C1176.178223,2331.630127 1176.146851,2339.307617 1176.462158,2346.956055 
	C1176.648071,2351.465088 1174.840576,2352.891357 1170.686890,2352.399902 
	C1169.372925,2352.244629 1168.003662,2352.221924 1166.696167,2352.402588 
	C1161.188599,2353.163330 1160.182007,2350.415771 1160.199829,2345.479248 
	C1160.359375,2301.175537 1160.271851,2256.871338 1160.315308,2212.567139 
	C1160.322021,2205.742188 1160.459473,2205.643799 1167.645264,2205.647217 
	C1177.398438,2205.651855 1176.354004,2204.846436 1176.372192,2213.991699 
	C1176.398682,2227.316162 1176.390381,2240.640869 1176.491577,2254.885742 
	C1177.004883,2257.198242 1178.030273,2256.970703 1179.364990,2256.305908 
z"/>
<path fill="#080808" opacity="1.000000" stroke="none" 
	d="
M1864.532227,2344.186035 
	C1851.868408,2356.554932 1836.589111,2356.101562 1821.384766,2355.205322 
	C1817.833374,2354.995605 1814.164551,2354.402832 1810.582397,2353.813477 
	C1800.886475,2352.218506 1793.356812,2347.884521 1788.538574,2338.601562 
	C1785.094849,2331.966553 1783.965942,2325.055176 1783.160767,2317.991699 
	C1781.322021,2301.860840 1781.738525,2285.843018 1786.132324,2270.030762 
	C1789.140503,2259.204590 1796.412964,2253.081787 1806.739136,2250.036377 
	C1814.796753,2247.659912 1823.088013,2247.384521 1831.431152,2247.608643 
	C1854.011353,2248.215820 1865.418823,2258.666504 1870.034058,2281.197998 
	C1871.475464,2288.234619 1874.849854,2297.099121 1870.746948,2302.428955 
	C1866.785400,2307.575439 1857.666260,2304.130859 1850.840210,2304.282959 
	C1836.852539,2304.595215 1822.852661,2304.330811 1808.858521,2304.410645 
	C1805.574463,2304.429443 1802.196533,2303.745117 1798.696533,2305.319580 
	C1800.049561,2311.687744 1799.603394,2318.308350 1801.672974,2324.706299 
	C1804.453857,2333.303223 1809.713135,2338.524902 1818.742065,2340.415527 
	C1824.035156,2341.524170 1829.260986,2341.684082 1834.559204,2341.596924 
	C1843.079834,2341.456787 1850.138428,2336.578613 1852.586426,2329.709473 
	C1855.099365,2322.657959 1859.091309,2323.837646 1863.793335,2323.606201 
	C1870.565552,2323.272949 1870.811157,2323.453369 1870.190430,2331.101807 
	C1869.824585,2335.607178 1868.238892,2340.046143 1864.532227,2344.186035 
z"/>
<path fill="#080808" opacity="1.000000" stroke="none" 
	d="
M1988.292358,2276.022949 
	C1988.293335,2268.364990 1988.423828,2261.699463 1988.243408,2255.042480 
	C1988.145386,2251.429932 1989.022827,2249.648926 1993.147217,2249.524414 
	C2000.941528,2249.288818 2000.974976,2249.071045 2004.106079,2259.887939 
	C2011.836426,2251.040283 2021.817139,2248.122803 2032.870239,2247.553467 
	C2037.299072,2247.325684 2038.953735,2248.916260 2038.401978,2253.206787 
	C2038.233398,2254.517334 2038.214478,2255.891846 2038.404663,2257.196289 
	C2039.162842,2262.396484 2036.683105,2264.589600 2031.759766,2264.331543 
	C2025.968506,2264.028076 2020.954834,2266.884766 2015.987427,2268.877197 
	C2007.918335,2272.113037 2004.367065,2279.196533 2004.373291,2287.936768 
	C2004.386353,2306.257080 2004.377808,2324.577393 2004.376953,2342.897705 
	C2004.376831,2344.896240 2004.305664,2346.897217 2004.383423,2348.892822 
	C2004.505859,2352.033447 2003.595703,2354.010010 1999.920288,2353.741699 
	C1997.269287,2353.548340 1994.593506,2353.703125 1991.928955,2353.680908 
	C1989.487427,2353.660400 1988.319214,2352.373291 1988.313232,2349.966797 
	C1988.307251,2347.635254 1988.293457,2345.303467 1988.293213,2342.971924 
	C1988.291748,2320.987549 1988.292358,2299.003174 1988.292358,2276.022949 
z"/>
<path fill="#BFBFBF" opacity="1.000000" stroke="none" 
	d="
M786.990723,1946.024658 
	C789.093994,1947.905518 790.361877,1949.926270 789.972534,1953.319092 
	C788.902954,1953.905640 787.937866,1953.761353 786.241150,1953.641602 
	C785.897827,1952.065674 786.286194,1950.465210 786.378845,1948.094482 
	C785.834534,1946.716675 786.005615,1946.269409 786.990723,1946.024658 
z"/>
<path fill="#BFBFBF" opacity="1.000000" stroke="none" 
	d="
M3046.883301,2047.798584 
	C3047.596680,2048.803223 3047.757080,2049.777344 3047.677002,2051.462402 
	C3046.677002,2052.167725 3045.917480,2052.162354 3044.589355,2052.084229 
	C3043.983887,2051.105469 3043.947266,2050.198975 3044.020996,2048.621338 
	C3044.864502,2047.889404 3045.597656,2047.828735 3046.883301,2047.798584 
z"/>
<path fill="#BFBFBF" opacity="1.000000" stroke="none" 
	d="
M1179.155396,2255.828369 
	C1179.125488,2257.842285 1178.496216,2259.590088 1176.421875,2256.507812 
	C1177.270874,2255.797119 1177.955566,2255.787598 1179.155396,2255.828369 
z"/>
<path fill="#FCFCFC" opacity="1.000000" stroke="none" 
	d="
M988.039062,1888.689087 
	C988.547119,1907.784790 989.776489,1926.016968 984.159851,1943.761963 
	C980.699280,1954.695435 975.721436,1964.578369 967.059265,1972.501831 
	C952.823486,1985.523560 930.521057,1985.688232 916.229248,1972.847900 
	C904.469299,1962.282349 899.069702,1948.497437 896.413208,1933.599609 
	C892.713623,1912.852173 892.838684,1892.023438 898.247192,1871.491943 
	C900.888306,1861.465820 905.115356,1852.249512 912.136658,1844.277100 
	C930.820435,1823.062012 961.856262,1826.383545 977.178040,1852.835449 
	C983.431091,1863.630981 986.444702,1875.471069 988.039062,1888.689087 
z"/>
<path fill="#FCFCFC" opacity="1.000000" stroke="none" 
	d="
M3284.034668,1836.118408 
	C3301.046387,1815.989014 3328.167725,1815.894775 3343.651367,1827.932617 
	C3358.187256,1839.233643 3363.021973,1855.076538 3364.330811,1872.540405 
	C3364.572510,1875.763916 3362.757080,1876.371338 3360.045654,1876.350830 
	C3351.048096,1876.283081 3342.050049,1876.337280 3333.052002,1876.328735 
	C3312.723877,1876.309448 3292.395508,1876.282104 3272.067383,1876.243408 
	C3271.760010,1876.242798 3271.452881,1876.055420 3270.256592,1875.665649 
	C3270.481445,1861.339600 3274.797119,1848.316162 3284.034668,1836.118408 
z"/>
<path fill="#FCFCFC" opacity="1.000000" stroke="none" 
	d="
M2817.348145,2263.770508 
	C2824.275146,2267.122559 2826.984619,2272.424072 2828.446533,2278.946533 
	C2831.399902,2292.122559 2831.281250,2305.452637 2829.281982,2318.530273 
	C2826.575928,2336.230469 2818.238281,2343.282715 2795.326416,2341.312988 
	C2782.778320,2340.234131 2777.028809,2334.501709 2774.679443,2322.053955 
	C2772.152832,2308.666748 2772.135742,2295.069336 2774.757324,2281.712158 
	C2777.629883,2267.077637 2784.711670,2261.773193 2799.881836,2261.751953 
	C2805.489258,2261.743896 2811.217041,2260.986084 2817.348145,2263.770508 
z"/>
<path fill="#FCFCFC" opacity="1.000000" stroke="none" 
	d="
M1643.601318,2270.862793 
	C1650.476685,2289.321533 1649.722778,2307.386475 1645.595459,2325.393555 
	C1643.069824,2336.412598 1634.299316,2340.249023 1624.114868,2341.554199 
	C1621.496460,2341.889893 1618.792114,2341.741699 1616.139771,2341.592285 
	C1601.850830,2340.788330 1594.907104,2334.916992 1592.461182,2320.914795 
	C1590.231201,2308.148438 1590.206055,2295.199219 1592.611938,2282.518555 
	C1595.410645,2267.767334 1602.932007,2261.114746 1618.070679,2261.636719 
	C1627.435059,2261.959473 1636.930298,2261.154785 1643.601318,2270.862793 
z"/>
<path fill="#FCFCFC" opacity="1.000000" stroke="none" 
	d="
M2421.677246,2274.962402 
	C2426.847900,2291.609863 2426.781250,2307.746582 2423.396240,2323.817627 
	C2421.478516,2332.922607 2415.922119,2338.988525 2406.134766,2340.843018 
	C2398.064453,2342.372314 2390.282227,2341.870850 2382.711670,2339.088867 
	C2375.556885,2336.459961 2371.748535,2330.541748 2370.113770,2323.490234 
	C2366.623535,2308.433350 2366.723389,2293.224121 2370.017822,2278.164307 
	C2372.381104,2267.361084 2378.674316,2262.378418 2389.621582,2261.747070 
	C2393.269287,2261.536377 2396.938965,2261.709961 2400.598633,2261.701172 
	C2410.056396,2261.678467 2417.370605,2265.211182 2421.677246,2274.962402 
z"/>
<path fill="#F6F6F6" opacity="1.000000" stroke="none" 
	d="
M2208.507324,2331.904297 
	C2198.499512,2341.488770 2181.637207,2344.613037 2170.297607,2339.459473 
	C2163.407471,2336.328369 2160.134766,2330.788086 2160.322510,2322.750244 
	C2160.493896,2315.423828 2163.510986,2310.023438 2170.669434,2307.535400 
	C2183.147705,2303.198730 2196.087402,2304.311768 2208.935547,2304.519043 
	C2211.026855,2304.552734 2211.685059,2306.216553 2211.610107,2307.974121 
	C2211.276855,2315.812988 2213.216553,2323.911133 2208.507324,2331.904297 
z"/>
<path fill="#F6F6F6" opacity="1.000000" stroke="none" 
	d="
M2620.511719,2327.588379 
	C2612.092041,2341.401123 2590.341064,2346.227539 2577.588623,2337.883545 
	C2571.651123,2333.998291 2569.741455,2328.378174 2570.332764,2321.608398 
	C2570.892578,2315.199707 2573.686523,2310.465332 2579.855225,2307.797852 
	C2585.434570,2305.385498 2591.389160,2305.042725 2597.220459,2304.472900 
	C2603.456055,2303.863281 2609.806396,2304.540771 2616.089355,2304.263916 
	C2620.520508,2304.068604 2622.068604,2305.892578 2621.686768,2310.091064 
	C2621.181396,2315.649170 2622.612793,2321.320557 2620.511719,2327.588379 
z"/>
<path fill="#F6F6F6" opacity="1.000000" stroke="none" 
	d="
M1840.317139,2262.985352 
	C1848.735596,2265.606201 1851.623047,2271.828369 1853.413452,2278.764648 
	C1856.373901,2290.233887 1855.168579,2291.665283 1843.161865,2291.668213 
	C1830.888428,2291.671143 1818.614502,2291.735596 1806.341797,2291.641602 
	C1799.620728,2291.590088 1799.225952,2291.015869 1799.758179,2284.150635 
	C1801.012329,2267.974854 1812.343750,2258.844971 1828.927490,2260.767334 
	C1832.512939,2261.182861 1836.053101,2261.988770 1840.317139,2262.985352 
z"/>
</svg>