<?xml version="1.0" encoding="UTF-8"?>
<svg version="1.1" xmlns="http://www.w3.org/2000/svg" width="4000" height="4000">
<path d="M0 0 C3.50057576 2.84328416 6.77382618 5.85103376 10 9 C10.74378906 9.70511719 11.48757813 10.41023438 12.25390625 11.13671875 C16.08069896 14.83665645 19.25961129 18.43268548 22 23 C25.73119065 21.42942905 28.20902348 19.0882036 31.125 16.3125 C55.26053034 -6.09590065 87.07615419 -17.49157413 119.75 -17.3125 C120.45721191 -17.31034485 121.16442383 -17.3081897 121.89306641 -17.30596924 C148.84833706 -17.17405982 172.88545625 -9.67102661 192.5625 9.49609375 C215.99385842 34.1061638 221.51580496 66.26880711 221.34057617 98.88134766 C221.3397279 101.12042733 221.34020894 103.35950784 221.34190369 105.59858704 C221.34275724 111.62013127 221.32523608 117.64149275 221.30418181 123.66299486 C221.28530733 129.97701092 221.28365614 136.2910321 221.28010559 142.60507202 C221.27186903 153.184337 221.25318672 163.7635428 221.22631836 174.34277344 C221.19869734 185.22981444 221.17753784 196.11683726 221.16479492 207.00390625 C221.16399093 207.68405548 221.16318694 208.36420472 221.16235858 209.06496453 C221.15541819 214.98312484 221.14896067 220.90128566 221.14255047 226.81944656 C221.11442207 252.21302673 221.05463158 277.60643098 221 303 C185.36 303 149.72 303 113 303 C112.95101563 289.325625 112.90203125 275.65125 112.8515625 261.5625 C112.81616574 252.88541044 112.78027908 244.20832746 112.7421875 235.53125 C112.68185416 221.7669425 112.62348712 208.00264732 112.578125 194.23828125 C112.54507318 184.21206398 112.50517013 174.18590075 112.45720994 164.15974331 C112.43207547 158.85626421 112.41025642 153.55282036 112.39665604 148.2492981 C112.38371625 143.24573563 112.36153662 138.24229486 112.33261681 133.23880005 C112.32363327 131.41366909 112.31787271 129.58851858 112.31578636 127.7633667 C112.83302244 102.94105197 112.83302244 102.94105197 103.28125 80.84765625 C96.92619537 74.68794142 88.94875618 71.86164972 80.1875 71.5 C67.45902314 72.02624194 57.21071518 76.80895987 47 84 C46.12961247 84.52298298 45.25922495 85.04596596 44.36246204 85.58479691 C41.5754216 88.43405695 41.3978886 90.23093645 41.32842034 94.14354491 C41.3390936 94.96844743 41.34976686 95.79334995 41.36076355 96.64324951 C41.35240787 97.52463097 41.3440522 98.40601243 41.33544332 99.31410241 C41.31346166 102.27327794 41.32713624 105.23121861 41.34057617 108.19042969 C41.33212611 110.30922897 41.32148346 112.42802049 41.30880737 114.54679871 C41.28059437 120.30475044 41.28314452 126.0623305 41.29110122 131.82033062 C41.29422032 137.8355379 41.26920939 143.85062556 41.24714661 149.86578369 C41.20965037 161.25898842 41.19755531 172.65207377 41.1945222 184.0453341 C41.18896181 199.43914748 41.14429323 214.83284371 41.10178089 230.22659111 C41.03582287 254.48442308 41.02222909 278.74199732 41 303 C5.36 303 -30.28 303 -67 303 C-67.04898437 289.325625 -67.09796875 275.65125 -67.1484375 261.5625 C-67.18383426 252.88541044 -67.21972092 244.20832746 -67.2578125 235.53125 C-67.31814584 221.7669425 -67.37651288 208.00264732 -67.421875 194.23828125 C-67.45492682 184.21206398 -67.49482987 174.18590075 -67.54279006 164.15974331 C-67.56792453 158.85626421 -67.58974358 153.55282036 -67.60334396 148.2492981 C-67.61628375 143.24573563 -67.63846338 138.24229486 -67.66738319 133.23880005 C-67.67636673 131.41366909 -67.68212729 129.58851858 -67.68421364 127.7633667 C-67.16697756 102.94105197 -67.16697756 102.94105197 -76.71875 80.84765625 C-83.07380463 74.68794142 -91.05124382 71.86164972 -99.8125 71.5 C-111.73787255 71.97824909 -122.26023725 76.26892833 -132 83 C-133.03040972 83.68300517 -134.06081944 84.36601034 -135.12245369 85.06971264 C-137.66471771 87.22647713 -138.44229486 88.65455436 -138.75390434 91.97297382 C-138.78636474 93.56948835 -138.7858805 95.16687761 -138.75949097 96.76350403 C-138.76870107 97.64573991 -138.77791117 98.52797579 -138.78740036 99.43694609 C-138.81099546 102.39322164 -138.79186644 105.34766863 -138.77294922 108.30395508 C-138.78111894 110.42290371 -138.79192071 112.54184359 -138.80516052 114.6607666 C-138.83363916 120.41459998 -138.82523035 126.16786207 -138.81029272 131.92172456 C-138.80092546 137.93426153 -138.82535162 143.94665787 -138.84622192 149.95915222 C-138.8805955 161.34527227 -138.88449461 172.73119157 -138.87749684 184.11735314 C-138.86979761 199.50299764 -138.90906814 214.88851716 -138.94573593 230.27410793 C-139.00227025 254.51614974 -138.99595794 278.75776106 -139 303 C-174.64 303 -210.28 303 -247 303 C-247 200.04 -247 97.08 -247 -9 C-212.35 -9 -177.7 -9 -142 -9 C-141.505 2.88 -141.505 2.88 -141 15 C-139.494375 13.72125 -137.98875 12.4425 -136.4375 11.125 C-98.57696621 -19.70636939 -41.81285863 -30.1339047 0 0 Z " fill="#000000" transform="translate(1837,1757)"/>
<path d="M0 0 C3.50057576 2.84328416 6.77382618 5.85103376 10 9 C10.74378906 9.70511719 11.48757813 10.41023438 12.25390625 11.13671875 C16.08069896 14.83665645 19.25961129 18.43268548 22 23 C25.73119065 21.42942905 28.20902348 19.0882036 31.125 16.3125 C55.26053034 -6.09590065 87.07615419 -17.49157413 119.75 -17.3125 C120.45721191 -17.31034485 121.16442383 -17.3081897 121.89306641 -17.30596924 C148.84833706 -17.17405982 172.88545625 -9.67102661 192.5625 9.49609375 C215.99385842 34.1061638 221.51580496 66.26880711 221.34057617 98.88134766 C221.3397279 101.12042733 221.34020894 103.35950784 221.34190369 105.59858704 C221.34275724 111.62013127 221.32523608 117.64149275 221.30418181 123.66299486 C221.28530733 129.97701092 221.28365614 136.2910321 221.28010559 142.60507202 C221.27186903 153.184337 221.25318672 163.7635428 221.22631836 174.34277344 C221.19869734 185.22981444 221.17753784 196.11683726 221.16479492 207.00390625 C221.16399093 207.68405548 221.16318694 208.36420472 221.16235858 209.06496453 C221.15541819 214.98312484 221.14896067 220.90128566 221.14255047 226.81944656 C221.11442207 252.21302673 221.05463158 277.60643098 221 303 C185.36 303 149.72 303 113 303 C112.95101563 289.325625 112.90203125 275.65125 112.8515625 261.5625 C112.81616574 252.88541044 112.78027908 244.20832746 112.7421875 235.53125 C112.68185416 221.7669425 112.62348712 208.00264732 112.578125 194.23828125 C112.54507318 184.21206398 112.50517013 174.18590075 112.45720994 164.15974331 C112.43207547 158.85626421 112.41025642 153.55282036 112.39665604 148.2492981 C112.38371625 143.24573563 112.36153662 138.24229486 112.33261681 133.23880005 C112.32363327 131.41366909 112.31787271 129.58851858 112.31578636 127.7633667 C112.83302244 102.94105197 112.83302244 102.94105197 103.28125 80.84765625 C96.92619537 74.68794142 88.94875618 71.86164972 80.1875 71.5 C67.45902314 72.02624194 57.21071518 76.80895987 47 84 C46.12961247 84.52298298 45.25922495 85.04596596 44.36246204 85.58479691 C41.5754216 88.43405695 41.3978886 90.23093645 41.32842034 94.14354491 C41.3390936 94.96844743 41.34976686 95.79334995 41.36076355 96.64324951 C41.35240787 97.52463097 41.3440522 98.40601243 41.33544332 99.31410241 C41.31346166 102.27327794 41.32713624 105.23121861 41.34057617 108.19042969 C41.33212611 110.30922897 41.32148346 112.42802049 41.30880737 114.54679871 C41.28059437 120.30475044 41.28314452 126.0623305 41.29110122 131.82033062 C41.29422032 137.8355379 41.26920939 143.85062556 41.24714661 149.86578369 C41.20965037 161.25898842 41.19755531 172.65207377 41.1945222 184.0453341 C41.18896181 199.43914748 41.14429323 214.83284371 41.10178089 230.22659111 C41.03582287 254.48442308 41.02222909 278.74199732 41 303 C5.36 303 -30.28 303 -67 303 C-67.04898437 289.325625 -67.09796875 275.65125 -67.1484375 261.5625 C-67.18383426 252.88541044 -67.21972092 244.20832746 -67.2578125 235.53125 C-67.31814584 221.7669425 -67.37651288 208.00264732 -67.421875 194.23828125 C-67.45492682 184.21206398 -67.49482987 174.18590075 -67.54279006 164.15974331 C-67.56792453 158.85626421 -67.58974358 153.55282036 -67.60334396 148.2492981 C-67.61628375 143.24573563 -67.63846338 138.24229486 -67.66738319 133.23880005 C-67.67636673 131.41366909 -67.68212729 129.58851858 -67.68421364 127.7633667 C-67.16697756 102.94105197 -67.16697756 102.94105197 -76.71875 80.84765625 C-83.07380463 74.68794142 -91.05124382 71.86164972 -99.8125 71.5 C-111.73787255 71.97824909 -122.26023725 76.26892833 -132 83 C-133.03040972 83.68300517 -134.06081944 84.36601034 -135.12245369 85.06971264 C-137.66471771 87.22647713 -138.44229486 88.65455436 -138.75390434 91.97297382 C-138.78636474 93.56948835 -138.7858805 95.16687761 -138.75949097 96.76350403 C-138.76870107 97.64573991 -138.77791117 98.52797579 -138.78740036 99.43694609 C-138.81099546 102.39322164 -138.79186644 105.34766863 -138.77294922 108.30395508 C-138.78111894 110.42290371 -138.79192071 112.54184359 -138.80516052 114.6607666 C-138.83363916 120.41459998 -138.82523035 126.16786207 -138.81029272 131.92172456 C-138.80092546 137.93426153 -138.82535162 143.94665787 -138.84622192 149.95915222 C-138.8805955 161.34527227 -138.88449461 172.73119157 -138.87749684 184.11735314 C-138.86979761 199.50299764 -138.90906814 214.88851716 -138.94573593 230.27410793 C-139.00227025 254.51614974 -138.99595794 278.75776106 -139 303 C-174.64 303 -210.28 303 -247 303 C-247 200.04 -247 97.08 -247 -9 C-212.35 -9 -177.7 -9 -142 -9 C-141.505 2.88 -141.505 2.88 -141 15 C-139.494375 13.72125 -137.98875 12.4425 -136.4375 11.125 C-98.57696621 -19.70636939 -41.81285863 -30.1339047 0 0 Z " fill="#000000" transform="translate(1350,1757)"/>
<path d="M0 0 C0 34.98 0 69.96 0 106 C22.44 106 44.88 106 68 106 C68 131.74 68 157.48 68 184 C45.56 184 23.12 184 0 184 C0.12688273 205.80708782 0.12688273 205.80708782 0.27233124 227.61402988 C0.32756019 235.41803768 0.38003584 243.22203074 0.421875 251.02612305 C0.45503018 257.20872605 0.49498702 263.39124321 0.54279006 269.57375091 C0.56782396 272.84107862 0.58865484 276.10834148 0.60334396 279.37573433 C-0.77532009 305.2532624 -0.77532009 305.2532624 9 328 C19.16273163 334.90873396 30.2741916 335.25799423 42.0859375 333.17578125 C49.78440223 331.69263631 57.40435872 329.93819812 65 328 C66.86892408 336.35723513 67.93206579 344.77713363 68.9453125 353.2734375 C69.12154518 354.72933172 69.29805366 356.18519257 69.474823 357.64102173 C69.84193266 360.67136354 70.20641397 363.70200561 70.56884766 366.73291016 C71.03302548 370.61367408 71.50281247 374.4937338 71.97441292 378.37360191 C72.33828397 381.37079832 72.69974483 384.3682814 73.06042099 387.3658638 C73.23283953 388.79725225 73.40588077 390.22856584 73.57956314 391.65980148 C73.82119935 393.65491414 74.05935942 395.65044687 74.29736328 397.64599609 C74.43345001 398.77943451 74.56953674 399.91287292 74.70974731 401.08065796 C75 404 75 404 75 408 C60.91006514 413.07453593 46.649514 416.89817136 32 420 C31.15195801 420.18224121 30.30391602 420.36448242 29.43017578 420.55224609 C-3.60374475 427.32066406 -41.97632553 425.77200924 -71.22265625 407.91015625 C-85.79882798 397.88519426 -96.21426162 384.29605183 -102.25 367.75 C-102.60118896 366.80543945 -102.60118896 366.80543945 -102.95947266 365.84179688 C-107.37333285 352.99572348 -108.44472183 340.0467525 -108.34057617 326.58789062 C-108.33972711 325.01904822 -108.34021047 323.45020463 -108.34190369 321.88136292 C-108.34275418 317.67779085 -108.32528434 313.47448274 -108.30418181 309.2709713 C-108.28525476 304.85746014 -108.28365208 300.44394099 -108.28010559 296.03039551 C-108.27083171 287.69749375 -108.24628195 279.36471198 -108.21605712 271.03186274 C-108.1823669 261.53471236 -108.16599057 252.03755584 -108.15097082 242.54036045 C-108.11972747 223.0268254 -108.06477468 203.51345454 -108 184 C-123.84 184 -139.68 184 -156 184 C-156 261.22 -156 338.44 -156 418 C-191.64 418 -227.28 418 -264 418 C-264 315.04 -264 212.08 -264 106 C-212.52 106 -161.04 106 -108 106 C-108 77.62 -108 49.24 -108 20 C-82.78492853 15.0086815 -82.78492853 15.0086815 -72.03515625 12.890625 C-64.70003159 11.44533252 -57.36516602 9.99880349 -50.03173828 8.54492188 C-44.11940737 7.37285896 -38.20600849 6.2063336 -32.29182816 5.04364014 C-30.03561102 4.59907083 -27.77978587 4.15250735 -25.52436447 3.70391846 C-22.36540198 3.07597486 -19.20512039 2.45513469 -16.04443359 1.8359375 C-14.64612808 1.55541534 -14.64612808 1.55541534 -13.21957397 1.26922607 C-11.91983643 1.01680145 -11.91983643 1.01680145 -10.59384155 0.75927734 C-9.84718924 0.61179047 -9.10053692 0.46430359 -8.33125877 0.31234741 C-5.57683422 -0.05669672 -2.77903728 0 0 0 Z " fill="#000000" transform="translate(2966,1642)"/>
<path d="M0 0 C1.2065625 1.0209375 1.2065625 1.0209375 2.4375 2.0625 C7.42781085 6.37844452 11.81144134 10.90979467 16 16 C16.42651855 16.50354004 16.85303711 17.00708008 17.29248047 17.52587891 C28.73825796 31.05413565 37.50572313 45.51352508 45.25 61.4375 C45.74056885 62.43910156 46.2311377 63.44070313 46.73657227 64.47265625 C47.17928467 65.40851563 47.62199707 66.344375 48.078125 67.30859375 C48.47418945 68.14189209 48.87025391 68.97519043 49.27832031 69.83374023 C50 72 50 72 49 75 C47.32905579 76.02342224 47.32905579 76.02342224 45.1184082 76.95092773 C44.28431427 77.30728302 43.45022034 77.66363831 42.59085083 78.03079224 C41.67012787 78.41121674 40.74940491 78.79164124 39.80078125 79.18359375 C38.83832489 79.59173309 37.87586853 79.99987244 36.88424683 80.42037964 C33.69776922 81.76937967 30.505238 83.10339236 27.3125 84.4375 C23.98393412 85.84116275 20.65693235 87.24848452 17.33009338 88.65623474 C15.03538349 89.62712992 12.74015839 90.59680822 10.44444275 91.56532288 C2.4852843 94.92817458 -5.44180889 98.35858715 -13.3515625 101.8359375 C-14.40888077 102.30002518 -15.46619904 102.76411285 -16.55555725 103.24226379 C-20.64976259 105.04017184 -24.74352527 106.83893314 -28.83187866 108.65011597 C-31.64167277 109.8942148 -34.45518147 111.12953083 -37.26953125 112.36328125 C-38.51465988 112.9195369 -38.51465988 112.9195369 -39.78494263 113.48703003 C-40.93130692 113.98712082 -40.93130692 113.98712082 -42.10083008 114.49731445 C-42.76133865 114.789272 -43.42184723 115.08122955 -44.10237122 115.3820343 C-46 116 -46 116 -50 116 C-50.4846875 114.85144531 -50.969375 113.70289063 -51.46875 112.51953125 C-61.50724465 89.09637707 -74.43890013 68.94209791 -99 59 C-119.18062351 51.83554491 -140.98678601 53.18418796 -160.3125 62.1875 C-182.17981775 73.87992246 -193.91596707 94.73733302 -201.15234375 117.6484375 C-203.87446544 127.28372106 -205.65296757 137.08465083 -207 147 C-207.09716309 147.69053467 -207.19432617 148.38106934 -207.29443359 149.0925293 C-208.37983648 158.07682016 -208.2438647 167.15175626 -208.25 176.1875 C-208.25067474 177.0791687 -208.25134949 177.9708374 -208.25204468 178.88952637 C-208.2093602 214.43013468 -202.59238757 253.76890143 -176.69140625 280.37109375 C-161.17926429 295.08901404 -143.4461495 299.56851984 -122.65625 299.26953125 C-103.85490655 298.63511092 -85.98849175 289.36913787 -73 276 C-62.01665803 264.11074068 -54.25775742 249.84252011 -48 235 C-43.93977248 235.56260538 -40.49225094 236.4528078 -36.73364258 238.07861328 C-35.7247699 238.51111893 -34.71589722 238.94362457 -33.67645264 239.38923645 C-32.59341858 239.86149155 -31.51038452 240.33374664 -30.39453125 240.8203125 C-29.25324768 241.31154099 -28.11196411 241.80276947 -26.93609619 242.30888367 C-23.85995884 243.63433766 -20.78643481 244.9655148 -17.7141304 246.2998085 C-14.5427778 247.67598192 -11.36886204 249.04621598 -8.19506836 250.41674805 C-4.38955784 252.06026629 -0.58421053 253.70414843 3.21983337 255.35105896 C10.61373255 258.55043733 18.02275824 261.7104806 25.453125 264.82421875 C27.10008194 265.51725933 28.74697617 266.21044899 30.39379883 266.90380859 C32.64756457 267.85255238 34.90238792 268.79798392 37.16220093 269.73223877 C39.18387547 270.56854185 41.19977743 271.4174575 43.21484375 272.26953125 C44.31948975 272.72948486 45.42413574 273.18943848 46.56225586 273.66333008 C49 275 49 275 50 278 C49.26245117 280.19799805 49.26245117 280.19799805 48.04296875 282.76171875 C47.5948584 283.70813232 47.14674805 284.6545459 46.68505859 285.62963867 C46.19086426 286.63873291 45.69666992 287.64782715 45.1875 288.6875 C44.68557129 289.72173096 44.18364258 290.75596191 43.66650391 291.8215332 C30.87303802 317.74428842 12.78669926 341.14709169 -10 359 C-10.54124512 359.42829102 -11.08249023 359.85658203 -11.64013672 360.29785156 C-41.47813072 383.73280577 -80.33406743 397.88417941 -118.40625 398.23828125 C-119.28058685 398.2480751 -120.15492371 398.25786896 -121.05575562 398.26795959 C-166.79761677 398.67489943 -211.26870292 390.23694569 -248 361 C-248.5455957 360.56719727 -249.09119141 360.13439453 -249.65332031 359.68847656 C-294.19610741 323.96552663 -317.021234 270.79342177 -324 215 C-324.80823496 207.61275642 -325.16902279 200.29607788 -325.203125 192.8671875 C-325.21013931 191.84012695 -325.21715363 190.81306641 -325.22438049 189.75488281 C-325.24177949 186.4615434 -325.24823197 183.16838367 -325.25 179.875 C-325.25067474 178.75095764 -325.25134949 177.62691528 -325.25204468 176.46881104 C-325.23671686 160.42674635 -324.90549666 144.81719775 -322 129 C-321.8443457 128.06397949 -321.68869141 127.12795898 -321.52832031 126.16357422 C-314.35247456 83.37347607 -295.9140406 43.54571555 -266 12 C-265.55575684 11.52852539 -265.11151367 11.05705078 -264.65380859 10.57128906 C-230.91706159 -25.00564414 -182.60922371 -43.1618702 -134.10302734 -44.91015625 C-84.49387289 -46.05822564 -38.07490304 -32.50296601 0 0 Z " fill="#000000" transform="translate(734,1670)"/>
<path d="M0 0 C1.02530319 0.00323273 1.02530319 0.00323273 2.07131958 0.00653076 C27.90883935 0.13724653 50.06857406 7.14726337 69.75 24.3125 C70.35199219 24.83070312 70.95398437 25.34890625 71.57421875 25.8828125 C92.33354561 45.14204814 101.95595663 75.9413357 103.01817894 103.57805443 C103.15125193 109.3350019 103.12229189 115.09042737 103.09057617 120.84838867 C103.08972766 123.03835539 103.09020939 125.22832296 103.09190369 127.41828918 C103.09275634 133.30135079 103.07525022 139.1842249 103.05418181 145.06724334 C103.03529187 151.23844789 103.03365494 157.40965783 103.03010559 163.58088684 C103.02082104 175.23923149 102.99625635 186.89749068 102.96605712 198.55579787 C102.94245146 207.87305398 102.9259523 217.19029035 102.91479492 226.50756836 C102.91399093 227.17236208 102.91318694 227.8371558 102.91235858 228.52209479 C102.905418 234.30682562 102.89896057 240.09155697 102.89255047 245.87628841 C102.8644323 270.68842283 102.80463888 295.50037697 102.75 320.3125 C67.11 320.3125 31.47 320.3125 -5.25 320.3125 C-5.29898438 306.87789062 -5.34796875 293.44328125 -5.3984375 279.6015625 C-5.43383944 271.07030621 -5.46972948 262.53905655 -5.5078125 254.0078125 C-5.56811629 240.47853127 -5.62647614 226.94926243 -5.671875 213.41992188 C-5.70495541 203.56434998 -5.74487357 193.70883276 -5.79279006 183.85332143 C-5.81789654 178.6414405 -5.83972337 173.42959509 -5.85334396 168.21767044 C-5.86630976 163.29782023 -5.88851555 158.37809285 -5.91738319 153.45831108 C-5.92634692 151.66627149 -5.93212246 149.8742122 -5.93421364 148.08215141 C-5.94644811 139.17889125 -6.18995188 130.37704256 -7.13320923 121.5184021 C-7.20888449 120.79045712 -7.28455975 120.06251214 -7.3625282 119.31250823 C-8.43839136 110.22427876 -11.35869127 101.92505269 -18.28515625 95.7109375 C-26.87875701 89.59461728 -35.94879591 88.53797338 -46.25 89.3125 C-55.85597252 91.0705942 -64.29698366 94.65157282 -72.25 100.3125 C-72.90980865 100.64859567 -73.56961731 100.98469133 -74.24942017 101.33097172 C-77.4732877 103.36766801 -79.77142322 105.3688068 -80.71424484 109.19798541 C-81.50460976 115.31854699 -81.31299887 121.50200982 -81.25 127.65991211 C-81.25760878 129.7594553 -81.26872989 131.85898827 -81.28309631 133.95849609 C-81.31210371 139.65043144 -81.29200189 145.34125805 -81.2630806 151.03315425 C-81.24119384 156.9842901 -81.26447217 162.93524509 -81.28295898 168.8863678 C-81.31109317 180.15209984 -81.29861045 191.41740615 -81.27153492 202.68312603 C-81.23728935 217.90891767 -81.26578584 233.13458347 -81.29076958 248.36037159 C-81.32847072 272.34463526 -81.28234321 296.32799172 -81.25 320.3125 C-116.89 320.3125 -152.53 320.3125 -189.25 320.3125 C-189.25 217.3525 -189.25 114.3925 -189.25 8.3125 C-154.6 8.3125 -119.95 8.3125 -84.25 8.3125 C-83.92 16.8925 -83.59 25.4725 -83.25 34.3125 C-81.703125 32.848125 -80.15625 31.38375 -78.5625 29.875 C-56.45288164 9.58676134 -29.85560032 -0.12804926 0 0 Z " fill="#000000" transform="translate(2578.25,1739.6875)"/>
<path d="M0 0 C35.64 0 71.28 0 108 0 C108.04898438 13.43460938 108.09796875 26.86921875 108.1484375 40.7109375 C108.18383944 49.24219379 108.21972948 57.77344345 108.2578125 66.3046875 C108.31811629 79.83396873 108.37647614 93.36323757 108.421875 106.89257812 C108.45495541 116.74815002 108.49487357 126.60366724 108.54279006 136.45917857 C108.56789654 141.6710595 108.58972337 146.88290491 108.60334396 152.09482956 C108.61630976 157.01467977 108.63851555 161.93440715 108.66738319 166.85418892 C108.67634692 168.64622851 108.68212246 170.4382878 108.68421364 172.23034859 C108.69644811 181.13360875 108.93995188 189.93545744 109.88320923 198.7940979 C109.95888449 199.52204288 110.03455975 200.24998786 110.1125282 200.99999177 C111.18839136 210.08822124 114.10869127 218.38744731 121.03515625 224.6015625 C130.10982535 231.06027331 140.13457469 232.13104401 150.9609375 230.57421875 C159.14152057 228.78677231 166.94933948 225.51748059 174 221 C174.75019126 220.58875381 175.50038252 220.17750763 176.27330685 219.75379944 C179.69770793 217.43021465 182.41154367 215.19808137 183.52034497 211.05633736 C184.39498524 204.92224197 184.18846397 198.71871612 184.11352539 192.5390625 C184.12085349 190.43937003 184.13213477 188.33968819 184.14706421 186.24003601 C184.17633597 180.55216522 184.15039813 174.8657343 184.11447453 169.17795181 C184.08631686 163.22949302 184.10903143 157.28123268 184.12632751 151.33276367 C184.15134559 140.07408776 184.1306762 128.81597873 184.09355396 117.55735493 C184.04602197 102.33974627 184.0691419 87.12225513 184.0882864 71.90461159 C184.1165788 47.93609361 184.05054146 23.96878155 184 0 C219.64 0 255.28 0 292 0 C292 102.96 292 205.92 292 312 C260.98 312 229.96 312 198 312 C196.12204247 301.98422653 194.33929851 292.08412993 193 282 C192.030625 282.825 191.06125 283.65 190.0625 284.5 C189.41410156 285.05171875 188.76570313 285.6034375 188.09765625 286.171875 C186.72857644 287.36503953 185.3807256 288.58313967 184.05859375 289.828125 C157.8434105 314.30226192 126.54380164 320.90405309 91.73144531 320.13183594 C70.57060499 319.38420091 51.01135012 310.49762279 35 297 C34.19046875 296.39414063 33.3809375 295.78828125 32.546875 295.1640625 C29.46982387 292.54951292 27.09016238 289.68320472 24.625 286.5 C24.14458252 285.8805249 23.66416504 285.2610498 23.16918945 284.62280273 C4.05107541 259.54171137 -0.33888269 230.76579732 -0.22705078 200.03173828 C-0.22648567 197.842509 -0.22680519 195.65327935 -0.22793579 193.46405029 C-0.22850638 187.5600752 -0.21679983 181.65618243 -0.20278788 175.75222635 C-0.19023133 169.56764049 -0.18910615 163.38305245 -0.18673706 157.19845581 C-0.18053671 145.50455158 -0.16414553 133.81068502 -0.14403808 122.11679733 C-0.12831925 112.77106237 -0.1173094 103.42533459 -0.10986328 94.07958984 C-0.10932729 93.41345614 -0.10879129 92.74732243 -0.10823905 92.06100285 C-0.10361245 86.2652673 -0.09930728 80.46953152 -0.09503365 74.6737957 C-0.07626384 49.78250228 -0.03640852 24.89128835 0 0 Z " fill="#BFB2A9" transform="translate(2077,1748)"/>
<path d="M0 0 C2.48336055 0.00315332 4.96551635 -0.02038547 7.44873047 -0.0456543 C41.73329677 -0.18146408 77.22340405 10.34090292 103.24951172 33.31567383 C104.10029297 34.05817383 104.95107422 34.80067383 105.82763672 35.56567383 C108.33177155 37.78490709 110.79557943 40.04119577 113.24951172 42.31567383 C113.84248047 42.84290039 114.43544922 43.37012695 115.04638672 43.91333008 C135.01745009 62.50543907 147.37882257 91.16536761 153.24951172 117.31567383 C153.44561035 118.15050293 153.64170898 118.98533203 153.84375 119.84545898 C164.40116222 166.62437706 157.71461243 220.40802622 132.4453125 261.45629883 C111.95325465 293.31981712 80.59395618 314.69682816 44.18701172 324.06567383 C43.03785278 324.36393066 43.03785278 324.36393066 41.86547852 324.66821289 C28.81709128 327.84483248 15.86425142 328.66663625 2.49902344 328.63134766 C0.01566289 328.62819434 -2.46649292 328.65173313 -4.94970703 328.67700195 C-28.70957243 328.77112133 -51.39493281 323.73787361 -72.75048828 313.31567383 C-73.39646973 313.00227051 -74.04245117 312.68886719 -74.70800781 312.3659668 C-109.10058603 295.44918726 -133.85988856 264.31156 -146.18408203 228.35083008 C-152.82906548 207.75586298 -155.17206385 186.97481927 -155.12548828 165.44067383 C-155.12494446 164.49368622 -155.12440063 163.54669861 -155.12384033 162.5710144 C-155.00098268 115.96422836 -140.50045625 73.88923567 -107.75048828 40.31567383 C-89.46118958 22.25336996 -66.36538498 10.9160755 -41.68798828 4.56567383 C-40.92188232 4.36683594 -40.15577637 4.16799805 -39.36645508 3.96313477 C-26.31806784 0.78651518 -13.36522798 -0.03528859 0 0 Z M-29.77392578 102.82348633 C-46.29762819 123.6577198 -48.68591537 154.47844424 -46.03222656 180.05883789 C-44.55072273 191.92627413 -42.25541833 203.61164317 -36.75048828 214.31567383 C-36.30962891 215.18321289 -35.86876953 216.05075195 -35.41455078 216.94458008 C-29.51265415 227.6234262 -20.77201644 236.058405 -8.93798828 239.62817383 C1.9162646 241.87239311 12.46787504 240.52943137 21.87451172 234.62817383 C38.44363005 222.63085089 44.55079087 205.36502032 47.83935547 185.80786133 C50.60838524 162.23155066 50.33539909 135.87156594 39.24951172 114.31567383 C38.80865234 113.44813477 38.36779297 112.5805957 37.91357422 111.68676758 C32.01167758 101.00792146 23.27103988 92.57294265 11.43701172 89.00317383 C-4.74263642 85.65787879 -18.5978624 91.02405687 -29.77392578 102.82348633 Z " fill="#000000" transform="translate(936.75048828125,1739.684326171875)"/>
<path d="M0 0 C0.81163605 -0.00570007 1.62327209 -0.01140015 2.45950317 -0.01727295 C4.17220787 -0.02666685 5.88493018 -0.03323443 7.59765625 -0.03710938 C10.15398923 -0.04671965 12.70948325 -0.0777567 15.265625 -0.109375 C29.8827956 -0.20412827 44.10958841 1.43681202 58.1328125 5.765625 C59.35411865 6.14025879 59.35411865 6.14025879 60.60009766 6.52246094 C95.82267705 17.87591491 122.40682141 41.94575762 139.3828125 74.578125 C158.77900133 113.5009703 157.3203125 153.98480528 157.3203125 197.203125 C92.9703125 197.203125 28.6203125 197.203125 -37.6796875 197.203125 C-30.97110738 216.38357217 -30.97110738 216.38357217 -18.6796875 231.203125 C-17.9578125 231.863125 -17.2359375 232.523125 -16.4921875 233.203125 C-6.49984975 240.3087874 5.15079495 243.55851171 17.3203125 244.203125 C18.29871094 244.25597656 19.27710937 244.30882812 20.28515625 244.36328125 C50.88793839 245.18459279 80.11980978 233.94112124 105.3203125 217.203125 C108.08117762 219.69314244 109.82501854 222.45890322 111.734375 225.63671875 C112.40500977 226.74748779 113.07564453 227.85825684 113.76660156 229.00268555 C114.49291947 230.21528356 115.21915438 231.42793129 115.9453125 232.640625 C116.69715471 233.88934166 117.44944016 235.13779154 118.20214844 236.38598633 C119.37546434 238.33205411 120.5483225 240.2783876 121.71948242 242.22575378 C124.48026335 246.81597421 127.25810645 251.39548574 130.046875 255.96875 C130.81298941 257.22599215 131.57910271 258.48323498 132.34521484 259.74047852 C133.44521703 261.54541337 134.54557698 263.35012365 135.64727783 265.15402222 C139.68164773 271.76252686 143.63609872 278.39214834 147.3203125 285.203125 C117.26812274 313.05637405 71.35574517 328.19801414 30.7734375 328.40625 C29.88154724 328.41195007 28.98965698 328.41765015 28.07073975 328.42352295 C26.18828493 328.43291574 24.3058141 328.43948398 22.42333984 328.44335938 C19.61915167 328.45295783 16.81573223 328.4839915 14.01171875 328.515625 C-2.48670992 328.61314846 -18.89273752 327.09993478 -34.8046875 322.515625 C-35.70445312 322.26216309 -36.60421875 322.00870117 -37.53125 321.74755859 C-57.5732714 315.88203021 -75.65327991 306.593348 -91.6796875 293.203125 C-92.44925781 292.56334717 -92.44925781 292.56334717 -93.234375 291.91064453 C-123.59547705 266.3175455 -139.03887688 227.01807668 -142.6796875 188.203125 C-142.84068061 185.02734194 -142.88938596 181.85526029 -142.91796875 178.67578125 C-142.92767197 177.77751617 -142.93737518 176.8792511 -142.94737244 175.95376587 C-142.97223033 173.05767314 -142.98489043 170.16181366 -142.9921875 167.265625 C-142.99480591 166.27913971 -142.99742432 165.29265442 -143.00012207 164.27627563 C-143.00450436 148.8823787 -142.17781263 134.25218945 -138.6796875 119.203125 C-138.52483887 118.49140137 -138.36999023 117.77967773 -138.21044922 117.04638672 C-129.94254181 79.47913965 -108.37525709 44.77534999 -75.9296875 23.578125 C-53.23338274 9.26944912 -27.0012 0.15192473 0 0 Z M-23.6796875 92.203125 C-32.71258287 104.09049043 -38.6796875 119.11477168 -38.6796875 134.203125 C-7.3296875 134.203125 24.0203125 134.203125 56.3203125 134.203125 C56.3203125 127.88748625 56.15160129 122.85896445 54.6953125 116.890625 C54.51637451 116.15642334 54.33743652 115.42222168 54.15307617 114.66577148 C50.75306388 101.53177209 44.06208354 90.35840229 32.5703125 82.765625 C13.76926814 72.44405632 -9.23263945 76.57431433 -23.6796875 92.203125 Z " fill="#000000" transform="translate(3304.6796875,1739.796875)"/>
<path d="M0 0 C35.64 0 71.28 0 108 0 C108 102.96 108 205.92 108 312 C72.36 312 36.72 312 0 312 C0 209.04 0 106.08 0 0 Z " fill="#000000" transform="translate(3044,1748)"/>
<path d="M0 0 C12.45624412 10.4437557 19.05664576 25.18205659 21.234375 41.05078125 C22.52978851 58.01537465 19.19905516 75.73600639 8.04296875 89.02734375 C7.44613281 89.69507813 6.84929688 90.3628125 6.234375 91.05078125 C5.68910156 91.67726563 5.14382812 92.30375 4.58203125 92.94921875 C-6.40233319 104.78648678 -22.17828698 110.102689 -37.91796875 111.01171875 C-55.57177908 111.19094525 -72.37079657 106.01086633 -85.515625 93.80078125 C-97.72775988 80.65374609 -103.18520422 63.59255052 -102.70654297 45.86230469 C-102.16698097 37.16958267 -100.39105696 28.9861673 -96.765625 21.05078125 C-96.41757813 20.28507812 -96.06953125 19.519375 -95.7109375 18.73046875 C-88.94095958 5.33058142 -76.81630546 -4.95464093 -62.765625 -9.94921875 C-40.90819217 -16.49068603 -18.65683029 -13.14937615 0 0 Z " fill="#000000" transform="translate(3571.765625,1957.94921875)"/>
<path d="M0 0 C0.89332031 0.49371094 1.78664063 0.98742188 2.70703125 1.49609375 C12.42407956 7.25188297 18.28570167 14.04257649 23.375 24 C23.70910889 24.65218506 24.04321777 25.30437012 24.38745117 25.97631836 C30.58021908 38.78108144 31.72762099 56.91645693 27.08984375 70.40234375 C26.73019531 71.25957031 26.37054687 72.11679688 26 73 C25.54753906 74.11503906 25.09507812 75.23007813 24.62890625 76.37890625 C18.12627261 90.83440117 7.4652007 100.02928073 -7.02734375 106.3125 C-23.53121991 112.07385313 -43.38197926 110.81155398 -59.12109375 103.5625 C-72.81319683 96.30655748 -81.7599424 85.40711892 -87 71 C-91.79531527 55.13968994 -90.20179912 36.97300441 -82.8125 22.3125 C-75.45713781 9.47126352 -65.00643504 0.35592442 -50.77734375 -4.2578125 C-34.05533953 -8.72642122 -15.44659907 -8.62458225 0 0 Z " fill="#000000" transform="translate(3128,1615)"/>
<path d="M0 0 C0.89332031 0.49371094 1.78664063 0.98742188 2.70703125 1.49609375 C12.42407956 7.25188297 18.28570167 14.04257649 23.375 24 C23.70910889 24.65218506 24.04321777 25.30437012 24.38745117 25.97631836 C30.58021908 38.78108144 31.72762099 56.91645693 27.08984375 70.40234375 C26.73019531 71.25957031 26.37054687 72.11679688 26 73 C25.54753906 74.11503906 25.09507812 75.23007813 24.62890625 76.37890625 C18.12627261 90.83440117 7.4652007 100.02928073 -7.02734375 106.3125 C-23.53121991 112.07385313 -43.38197926 110.81155398 -59.12109375 103.5625 C-72.81319683 96.30655748 -81.7599424 85.40711892 -87 71 C-91.79531527 55.13968994 -90.20179912 36.97300441 -82.8125 22.3125 C-75.45713781 9.47126352 -65.00643504 0.35592442 -50.77734375 -4.2578125 C-34.05533953 -8.72642122 -15.44659907 -8.62458225 0 0 Z " fill="#000000" transform="translate(2786,1615)"/>
<path d="M0 0 C7.85360759 5.25647399 11.94728594 12.15051181 13.97265625 21.3203125 C14.08227773 24.08362616 14.14015336 26.82246263 14.1496582 29.58618164 C14.1562294 30.41765717 14.1628006 31.24913269 14.16957092 32.10580444 C14.18926784 34.85569355 14.20096105 37.60552801 14.2109375 40.35546875 C14.21501303 41.29790373 14.21908855 42.24033871 14.22328758 43.21133232 C14.24413708 48.20363011 14.25844133 53.19590054 14.26782227 58.18823242 C14.27885946 63.32366561 14.31323149 68.45866226 14.35299397 73.59394169 C14.37925066 77.56016294 14.38752231 81.52628182 14.39110374 85.49258232 C14.39594956 87.38425061 14.40750578 89.27591494 14.42614174 91.16749763 C14.54676297 104.22678063 14.39000769 115.66303245 4.83984375 125.6640625 C-4.08153602 133.57758765 -14.4202276 132.92119716 -25.68603516 132.49511719 C-33.0940321 131.94202795 -38.60657008 128.73950821 -43.55859375 123.3203125 C-48.8141154 116.16385748 -50.17449082 108.73533759 -50.2043457 100.05444336 C-50.2142025 98.80723007 -50.2142025 98.80723007 -50.22425842 97.53482056 C-50.24395534 94.78493145 -50.25564855 92.03509699 -50.265625 89.28515625 C-50.26970053 88.34272127 -50.27377605 87.40028629 -50.27797508 86.42929268 C-50.29882458 81.43699489 -50.31312883 76.44472446 -50.32250977 71.45239258 C-50.33354696 66.31695939 -50.36791899 61.18196274 -50.40768147 56.04668331 C-50.43393816 52.08046206 -50.44220981 48.11434318 -50.44579124 44.14804268 C-50.45063706 42.25637439 -50.46219328 40.36471006 -50.48082924 38.47312737 C-50.60145047 25.41384437 -50.44469519 13.97759255 -40.89453125 3.9765625 C-30.90124197 -4.88777778 -11.79343165 -5.94871508 0 0 Z M-28.02734375 23.3203125 C-28.51347315 26.25442648 -28.71402131 28.60233945 -28.67431641 31.52539062 C-28.683078 32.32617538 -28.6918396 33.12696014 -28.7008667 33.95201111 C-28.72278289 36.58575435 -28.70833668 39.21780371 -28.69140625 41.8515625 C-28.69477665 43.68949708 -28.69963113 45.52742948 -28.7059021 47.36535645 C-28.71326286 51.21204915 -28.70259381 55.05816022 -28.67919922 58.90478516 C-28.6507117 63.82793729 -28.66711998 68.74972651 -28.69706154 73.67282867 C-28.7151562 77.4665142 -28.70936659 81.25987824 -28.69642258 85.05357361 C-28.69309455 86.86840477 -28.6971544 88.68326542 -28.70882034 90.49806213 C-28.72156524 93.03790239 -28.70210369 95.5755564 -28.67431641 98.11523438 C-28.68443756 98.86034775 -28.69455872 99.60546112 -28.70498657 100.37315369 C-28.5892983 106.1000949 -26.99166747 108.47545268 -23.02734375 112.3203125 C-20.56753164 113.25194775 -20.56753164 113.25194775 -18.02734375 113.0703125 C-17.20234375 113.08578125 -16.37734375 113.10125 -15.52734375 113.1171875 C-11.87227516 111.95213439 -9.92327261 109.53694306 -8.02734375 106.3203125 C-7.54121435 103.38619852 -7.34066619 101.03828555 -7.38037109 98.11523438 C-7.3716095 97.31444962 -7.3628479 96.51366486 -7.3538208 95.68861389 C-7.33190461 93.05487065 -7.34635082 90.42282129 -7.36328125 87.7890625 C-7.35991085 85.95112792 -7.35505637 84.11319552 -7.3487854 82.27526855 C-7.34142464 78.42857585 -7.35209369 74.58246478 -7.37548828 70.73583984 C-7.4039758 65.81268771 -7.38756752 60.89089849 -7.35762596 55.96779633 C-7.3395313 52.1741108 -7.34532091 48.38074676 -7.35826492 44.58705139 C-7.36159295 42.77222023 -7.3575331 40.95735958 -7.34586716 39.14256287 C-7.33312226 36.60272261 -7.35258381 34.0650686 -7.38037109 31.52539062 C-7.36518936 30.40772057 -7.36518936 30.40772057 -7.34970093 29.26747131 C-7.4653892 23.5405301 -9.06302003 21.16517232 -13.02734375 17.3203125 C-15.48715586 16.38867725 -15.48715586 16.38867725 -18.02734375 16.5703125 C-18.85234375 16.55484375 -19.67734375 16.539375 -20.52734375 16.5234375 C-24.18241234 17.68849061 -26.13141489 20.10368194 -28.02734375 23.3203125 Z " fill="#000000" transform="translate(1972.02734375,3622.6796875)"/>
<path d="M0 0 C5.61 0 11.22 0 17 0 C17.01458252 2.00755371 17.02916504 4.01510742 17.04418945 6.08349609 C17.09474069 12.74920709 17.16137068 19.41468949 17.23571491 26.0801754 C17.28026218 30.11771995 17.31955172 34.15516723 17.34643555 38.19287109 C17.37262599 42.09640214 17.41313666 45.99955567 17.46318626 49.9028511 C17.4797494 51.38497818 17.4913289 52.86717039 17.49761391 54.34937668 C17.54168728 63.79602911 17.80073894 72.62981179 22.75 80.9375 C28.58097891 86.282564 35.9404492 87.2660748 43.53515625 87.15234375 C52.02532492 86.62759481 58.80470561 84.72915057 65.25 79 C70.57622319 69.86933168 70.46494988 59.10420107 70.51171875 48.828125 C70.5286103 47.41036472 70.54676635 45.992619 70.56611633 44.57489014 C70.6131379 40.885992 70.64325374 37.19715289 70.66955566 33.50805664 C70.69960611 29.72660664 70.7460506 25.94535936 70.79101562 22.1640625 C70.87650267 14.7761262 70.94256711 7.38821742 71 0 C76.28 0 81.56 0 87 0 C87.06967403 14.26532249 87.1228996 28.53060413 87.15543652 42.79606247 C87.17105678 49.42090641 87.1922286 56.04563347 87.22631836 62.67041016 C87.25904149 69.07004182 87.27688036 75.46956142 87.28463173 81.86927032 C87.29015201 84.3043621 87.3009315 86.73944812 87.31719017 89.17449188 C87.33913638 92.59920757 87.34195973 96.0234669 87.34057617 99.44824219 C87.351362 100.44303085 87.36214783 101.43781952 87.3732605 102.4627533 C87.3227929 114.0941477 84.85679035 126.03520037 76.75 134.75 C66.60641731 144.24473945 52.5292946 145.30478463 39.25 145.15234375 C25.70442894 144.51739511 14.446444 142.24661337 5 132 C1.30501385 125.92115182 1 122.20068307 1 115 C6.61 115 12.22 115 18 115 C18.391875 116.4025 18.78375 117.805 19.1875 119.25 C20.64281261 123.5418247 21.9190434 125.73280189 26 128 C35.53728471 131.59897536 49.42492062 131.56758846 59 128 C64.58758651 125.25891982 66.93345224 121.69095459 69 116 C69.80111953 112.5773631 70.11919851 109.42935731 70.09765625 105.91796875 C70.09443359 104.98662109 70.09121094 104.05527344 70.08789062 103.09570312 C70.07951172 102.13599609 70.07113281 101.17628906 70.0625 100.1875 C70.05798828 99.20845703 70.05347656 98.22941406 70.04882812 97.22070312 C70.03708684 94.81373889 70.02066419 92.40690143 70 90 C69.22527344 90.78117187 68.45054688 91.56234375 67.65234375 92.3671875 C59.34987456 100.60851921 49.32148779 102.12258271 37.8125 102.3125 C26.40045743 102.00613644 16.60811402 100.48348927 8.1875 92.25 C-0.24185827 79.726382 -0.30577407 65.73503689 -0.1953125 51.07421875 C-0.19157093 49.59064426 -0.18872939 48.10706725 -0.18673706 46.62348938 C-0.17919044 42.76515583 -0.15962197 38.9069788 -0.1373291 35.04870605 C-0.11667448 31.0930391 -0.1076939 27.13734625 -0.09765625 23.18164062 C-0.07636518 15.4543483 -0.04125922 7.72721624 0 0 Z " fill="#000000" transform="translate(1366,2247)"/>
<path d="M0 0 C5.61 0 11.22 0 17 0 C17 48.51 17 97.02 17 147 C12.38 147 7.76 147 3 147 C2.01 141.555 2.01 141.555 1 136 C-0.27875 137.2375 -1.5575 138.475 -2.875 139.75 C-13.51691379 149.2039014 -26.28527791 149.75111054 -40 149 C-49.77496466 147.63011184 -59.02928496 144.10282236 -65.375 136.25 C-73.30288122 124.44775874 -74.35968798 111.11874916 -74.31567383 97.26733398 C-74.31251979 95.20046847 -74.33604377 93.13504872 -74.36132812 91.06835938 C-74.42954742 76.94864766 -72.59288263 62.02981526 -63.18359375 50.83984375 C-53.21003561 41.34985207 -40.60611462 40.5961183 -27.55859375 40.7890625 C-17.55368598 41.12442254 -8.26081529 43.73918471 -1 51 C-0.67 34.17 -0.34 17.34 0 0 Z M-51 63 C-60.27555671 76.78082711 -59.1738823 97.49052567 -56.72265625 113.30859375 C-55.43162726 119.90330939 -53.88435973 124.940351 -49.3125 129.9375 C-39.82234678 135.84646333 -29.06928486 136.44174203 -18.1796875 134.49609375 C-12.5954669 132.83975713 -7.89581156 130.15968594 -4.81640625 125.02734375 C-0.16339825 115.36340405 0.36297044 105.3272686 0.3125 94.75 C0.30831055 93.55866455 0.30412109 92.3673291 0.29980469 91.13989258 C0.21679926 74.96788273 0.21679926 74.96788273 -7 61 C-13.18362516 54.98349985 -20.24815785 54.6549768 -28.4375 54.6875 C-29.24509766 54.67138672 -30.05269531 54.65527344 -30.88476562 54.63867188 C-39.06004663 54.63208422 -45.62275898 56.42781654 -51 63 Z " fill="#000000" transform="translate(2827,2204)"/>
<path d="M0 0 C5.61 0 11.22 0 17 0 C17 48.51 17 97.02 17 147 C12.38 147 7.76 147 3 147 C2.01 141.555 2.01 141.555 1 136 C-0.27875 137.2375 -1.5575 138.475 -2.875 139.75 C-13.51691379 149.2039014 -26.28527791 149.75111054 -40 149 C-49.77496466 147.63011184 -59.02928496 144.10282236 -65.375 136.25 C-73.30288122 124.44775874 -74.35968798 111.11874916 -74.31567383 97.26733398 C-74.31251979 95.20046847 -74.33604377 93.13504872 -74.36132812 91.06835938 C-74.42954742 76.94864766 -72.59288263 62.02981526 -63.18359375 50.83984375 C-53.21003561 41.34985207 -40.60611462 40.5961183 -27.55859375 40.7890625 C-17.55368598 41.12442254 -8.26081529 43.73918471 -1 51 C-0.67 34.17 -0.34 17.34 0 0 Z M-51 63 C-60.27555671 76.78082711 -59.1738823 97.49052567 -56.72265625 113.30859375 C-55.43162726 119.90330939 -53.88435973 124.940351 -49.3125 129.9375 C-39.82234678 135.84646333 -29.06928486 136.44174203 -18.1796875 134.49609375 C-12.5954669 132.83975713 -7.89581156 130.15968594 -4.81640625 125.02734375 C-0.16339825 115.36340405 0.36297044 105.3272686 0.3125 94.75 C0.30831055 93.55866455 0.30412109 92.3673291 0.29980469 91.13989258 C0.21679926 74.96788273 0.21679926 74.96788273 -7 61 C-13.18362516 54.98349985 -20.24815785 54.6549768 -28.4375 54.6875 C-29.24509766 54.67138672 -30.05269531 54.65527344 -30.88476562 54.63867188 C-39.06004663 54.63208422 -45.62275898 56.42781654 -51 63 Z " fill="#000000" transform="translate(1645,2204)"/>
<path d="M0 0 C5.28 0 10.56 0 16 0 C16.33 17.16 16.66 34.32 17 52 C19.64 49.69 22.28 47.38 25 45 C37.97654642 39.10156981 54.92002951 38.89848152 68.265625 43.7421875 C76.48444678 47.52284552 82.43899062 53.35567012 86.1875 61.6171875 C93.75223663 82.14209792 93.95247539 111.00417504 85 131 C80.2791431 139.30365008 73.35625296 144.67140941 64.2734375 147.45703125 C51.58183101 150.48818813 36.47385773 150.55291584 24.78515625 144.14453125 C21.15642364 141.81801341 18.04729154 139.04729154 15 136 C14.01 141.445 14.01 141.445 13 147 C8.71 147 4.42 147 0 147 C0 98.49 0 49.98 0 0 Z M22.5625 61.3125 C13.46291928 76.96377884 14.22801449 99.83317957 18 117 C19.85702087 123.07995776 22.64564205 128.36834852 28 132 C36.88159047 136.47469444 49.5390052 136.51133253 59.0625 134 C64.71034824 131.68902577 68.48588683 127.19522412 71.0625 121.7578125 C76.72765111 106.01522913 76.68894556 81.746366 69.86328125 66.453125 C66.52336581 60.67939105 62.57631191 57.18492786 56.046875 55.41455078 C45.09845518 53.19718236 31.00727836 53.3007872 22.5625 61.3125 Z " fill="#000000" transform="translate(2348,2204)"/>
<path d="M0 0 C0.83418457 0.00684814 1.66836914 0.01369629 2.52783203 0.02075195 C10.41676894 0.22616898 16.34222476 1.72564219 22.5 6.8125 C28.38387756 14.08081934 30.87273709 20.221043 31.375 29.5625 C31.41592773 30.30733643 31.45685547 31.05217285 31.49902344 31.81958008 C31.84689557 40.15685571 31.54044441 49.39202968 26.625 56.4375 C24.06767844 58.91379752 21.40011906 61.20949467 18.625 63.4375 C19.5325 63.994375 20.44 64.55125 21.375 65.125 C27.90428691 69.77083876 30.01803494 74.7875802 31.625 82.4375 C32.06322964 87.23662326 32.08992343 91.99594874 32.0625 96.8125 C32.0924707 98.66875 32.0924707 98.66875 32.12304688 100.5625 C32.11764937 110.81775566 30.73650809 121.33796113 23.3359375 129.0390625 C16.22808228 134.84867932 8.78758727 135.65274629 -0.0625 135.75 C-0.92294922 135.77900391 -1.78339844 135.80800781 -2.66992188 135.83789062 C-10.52525046 135.91484561 -16.11191052 133.5710585 -22.625 129.3125 C-28.77149949 122.88661417 -31.52674438 115.17183463 -31.47265625 106.35546875 C-31.47015869 105.5152417 -31.46766113 104.67501465 -31.46508789 103.80932617 C-31.45598389 102.75849854 -31.44687988 101.7076709 -31.4375 100.625 C-31.416875 97.263125 -31.39625 93.90125 -31.375 90.4375 C-24.445 90.4375 -17.515 90.4375 -10.375 90.4375 C-10.125 99.625 -10.125 99.625 -10.07714844 102.49291992 C-9.91528608 106.50582864 -9.64022256 108.97512085 -7.609375 112.515625 C-4.43894791 115.24263571 -2.52196365 115.08939112 1.5 114.87109375 C4.53969955 114.25086094 5.86252924 112.93433357 7.625 110.4375 C9.71742402 106.25265196 8.85435851 100.78539099 8.875 96.1875 C8.895625 95.05441406 8.91625 93.92132812 8.9375 92.75390625 C9.0430741 84.64636662 9.0430741 84.64636662 5.625 77.4375 C0.55091989 74.05477992 -5.37743268 74.76764132 -11.375 74.4375 C-11.375 67.8375 -11.375 61.2375 -11.375 54.4375 C-6.15039062 53.90039062 -6.15039062 53.90039062 -0.92578125 53.36328125 C3.31263272 52.25821622 4.93417399 50.84721088 7.625 47.4375 C10.11664357 41.46970979 9.3753625 32.42330689 7.8125 26.25 C6.81462054 23.16614034 6.81462054 23.16614034 3.625 21.4375 C1.44471604 21.08456549 1.44471604 21.08456549 -0.875 21.125 C-1.6484375 21.10824219 -2.421875 21.09148438 -3.21875 21.07421875 C-5.90367986 21.52657106 -6.73378405 22.30091705 -8.375 24.4375 C-9.4291518 27.59995541 -9.68775672 30.30698218 -9.9375 33.625 C-10.081875 35.543125 -10.22625 37.46125 -10.375 39.4375 C-17.305 39.4375 -24.235 39.4375 -31.375 39.4375 C-31.68703864 27.42401244 -31.30040592 16.86964293 -22.7734375 7.71875 C-16.10035724 1.50273003 -8.87564375 -0.11181773 0 0 Z " fill="#000000" transform="translate(2105.375,3619.5625)"/>
<path d="M0 0 C7.65696954 7.65696954 9.42639029 16.48645219 9.5625 26.9375 C9.39573724 48.49214299 -2.92502098 63.68865977 -17.0625 78.75 C-26.12452909 88.4237338 -30.37602885 95.63425969 -31.875 109.125 C-19.005 109.125 -6.135 109.125 7.125 109.125 C7.125 115.725 7.125 122.325 7.125 129.125 C-13.005 129.125 -33.135 129.125 -53.875 129.125 C-53.875 98.70601468 -51.56056337 85.74938277 -31.67480469 64.64208984 C-20.40246575 52.63963711 -13.42248512 41.05318064 -13.44140625 24.2890625 C-13.95468912 20.54348478 -15.17897117 17.82102883 -17.875 15.125 C-20.1008864 14.80898706 -20.1008864 14.80898706 -22.6875 14.75 C-23.56019531 14.70101562 -24.43289063 14.65203125 -25.33203125 14.6015625 C-28.01770092 14.95091317 -28.01770092 14.95091317 -30.15234375 16.97265625 C-32.65830387 21.55839279 -32.54767522 25.79185143 -32.625 30.9375 C-32.7075 34.299375 -32.79 37.66125 -32.875 41.125 C-39.805 41.125 -46.735 41.125 -53.875 41.125 C-53.936875 37.70125 -53.99875 34.2775 -54.0625 30.75 C-54.08981201 29.69248535 -54.11712402 28.6349707 -54.14526367 27.54541016 C-54.22619064 18.16658389 -52.38327895 8.29331667 -45.875 1.125 C-32.51672188 -8.82865204 -13.91301309 -9.07370419 0 0 Z " fill="#000000" transform="translate(2052.875,3625.875)"/>
<path d="M0 0 C7.65696954 7.65696954 9.42639029 16.48645219 9.5625 26.9375 C9.39573724 48.49214299 -2.92502098 63.68865977 -17.0625 78.75 C-26.12452909 88.4237338 -30.37602885 95.63425969 -31.875 109.125 C-19.005 109.125 -6.135 109.125 7.125 109.125 C7.125 115.725 7.125 122.325 7.125 129.125 C-13.005 129.125 -33.135 129.125 -53.875 129.125 C-53.875 98.70601468 -51.56056337 85.74938277 -31.67480469 64.64208984 C-20.40246575 52.63963711 -13.42248512 41.05318064 -13.44140625 24.2890625 C-13.95468912 20.54348478 -15.17897117 17.82102883 -17.875 15.125 C-20.1008864 14.80898706 -20.1008864 14.80898706 -22.6875 14.75 C-23.56019531 14.70101562 -24.43289063 14.65203125 -25.33203125 14.6015625 C-28.01770092 14.95091317 -28.01770092 14.95091317 -30.15234375 16.97265625 C-32.65830387 21.55839279 -32.54767522 25.79185143 -32.625 30.9375 C-32.7075 34.299375 -32.79 37.66125 -32.875 41.125 C-39.805 41.125 -46.735 41.125 -53.875 41.125 C-53.936875 37.70125 -53.99875 34.2775 -54.0625 30.75 C-54.08981201 29.69248535 -54.11712402 28.6349707 -54.14526367 27.54541016 C-54.22619064 18.16658389 -52.38327895 8.29331667 -45.875 1.125 C-32.51672188 -8.82865204 -13.91301309 -9.07370419 0 0 Z " fill="#000000" transform="translate(1900.875,3625.875)"/>
<path d="M0 0 C8.68815624 9.44836991 8.29984966 21.2704748 8.37890625 33.46875 C8.39511753 34.8397333 8.4123012 36.21070542 8.43040466 37.58166504 C8.47569347 41.15802852 8.5107178 44.73440768 8.54260254 48.31091309 C8.59487804 54.06218046 8.65960835 59.81328519 8.73081779 65.56434631 C8.75361928 67.56852629 8.76962186 69.57277988 8.78553772 71.57702637 C8.79902756 72.78588501 8.8125174 73.99474365 8.82641602 75.24023438 C8.83592789 76.30705444 8.84543976 77.37387451 8.85523987 78.47302246 C8.83265566 80.99475083 8.83265566 80.99475083 10 83 C11.88764903 83.68472665 11.88764903 83.68472665 14.0625 84.125 C15.361875 84.41375 16.66125 84.7025 18 85 C18 89.29 18 93.58 18 98 C13.51522706 100.24238647 7.28636375 99.71867786 2.6015625 98.24609375 C-1.08052191 96.50086787 -4.12205475 94.75589051 -6 91 C-6 89.68 -6 88.36 -6 87 C-6.99966797 87.68835937 -6.99966797 87.68835937 -8.01953125 88.390625 C-22.58141159 98.08496772 -37.47923321 101.33351567 -54.8125 97.875 C-63.01794187 95.73618811 -69.2150705 91.94355282 -74.02734375 84.90625 C-76.96684324 79.1453032 -77.33739891 73.95928202 -77.3125 67.625 C-77.33666992 66.40683594 -77.33666992 66.40683594 -77.36132812 65.1640625 C-77.3676736 57.24490471 -75.38630179 50.52586679 -69.921875 44.6015625 C-57.97499843 34.64583202 -41.92074101 35.73215689 -27.375 35.875 C-25.58984877 35.88504897 -23.80469206 35.89417143 -22.01953125 35.90234375 C-17.67955069 35.9242075 -13.33983668 35.95863185 -9 36 C-9.02051926 35.40083771 -9.04103851 34.80167542 -9.06217957 34.18435669 C-9.08959732 33.38375824 -9.11701508 32.58315979 -9.14526367 31.75830078 C-9.17429779 30.92365295 -9.20333191 30.08900513 -9.23324585 29.22906494 C-9.29153181 27.49781251 -9.34194741 25.76629061 -9.38793945 24.03466797 C-9.60761306 19.01584758 -10.19331331 15.32363402 -13 11 C-19.61292783 5.79407809 -25.09271347 5.79500229 -33.1875 5.75 C-34.5497168 5.7190625 -34.5497168 5.7190625 -35.93945312 5.6875 C-43.03614495 5.64686039 -49.97865328 6.288535 -55.4375 11.1875 C-57.426437 14.76758661 -58.18429848 17.98946754 -59 22 C-63.95 22 -68.9 22 -74 22 C-74.41910716 14.3163688 -73.08047399 8.42271527 -69.0625 1.8125 C-54.14900323 -14.26541393 -16.09799128 -13.55308824 0 0 Z M-57 55 C-61.07858629 60.22568869 -60.74896048 66.65936864 -60 73 C-58.70564267 77.32222893 -56.33404681 80.04983613 -52.5 82.375 C-43.3702741 86.61380131 -30.67193674 86.49371394 -21.1875 83.11328125 C-15.27900615 80.10627992 -11.12462796 76.31306656 -9 70 C-8.72834469 67.39509291 -8.72834469 67.39509291 -8.8046875 64.69921875 C-8.81435547 63.23452148 -8.81435547 63.23452148 -8.82421875 61.74023438 C-8.84097656 60.73283203 -8.85773437 59.72542969 -8.875 58.6875 C-8.88402344 57.66076172 -8.89304687 56.63402344 -8.90234375 55.57617188 C-8.92583799 53.05054101 -8.95868869 50.5253919 -9 48 C-12.92858919 47.94987569 -16.85704984 47.91394498 -20.78588867 47.89013672 C-22.76552896 47.87535083 -24.74508063 47.84991408 -26.72460938 47.82421875 C-42.97546354 47.67717356 -42.97546354 47.67717356 -57 55 Z " fill="#000000" transform="translate(2627,2254)"/>
<path d="M0 0 C8.68815624 9.44836991 8.29984966 21.2704748 8.37890625 33.46875 C8.39511753 34.8397333 8.4123012 36.21070542 8.43040466 37.58166504 C8.47569347 41.15802852 8.5107178 44.73440768 8.54260254 48.31091309 C8.59487804 54.06218046 8.65960835 59.81328519 8.73081779 65.56434631 C8.75361928 67.56852629 8.76962186 69.57277988 8.78553772 71.57702637 C8.79902756 72.78588501 8.8125174 73.99474365 8.82641602 75.24023438 C8.83592789 76.30705444 8.84543976 77.37387451 8.85523987 78.47302246 C8.83265566 80.99475083 8.83265566 80.99475083 10 83 C11.88764903 83.68472665 11.88764903 83.68472665 14.0625 84.125 C15.361875 84.41375 16.66125 84.7025 18 85 C18 89.29 18 93.58 18 98 C13.51522706 100.24238647 7.28636375 99.71867786 2.6015625 98.24609375 C-1.08052191 96.50086787 -4.12205475 94.75589051 -6 91 C-6 89.68 -6 88.36 -6 87 C-6.99966797 87.68835937 -6.99966797 87.68835937 -8.01953125 88.390625 C-22.58141159 98.08496772 -37.47923321 101.33351567 -54.8125 97.875 C-63.01794187 95.73618811 -69.2150705 91.94355282 -74.02734375 84.90625 C-76.96684324 79.1453032 -77.33739891 73.95928202 -77.3125 67.625 C-77.33666992 66.40683594 -77.33666992 66.40683594 -77.36132812 65.1640625 C-77.3676736 57.24490471 -75.38630179 50.52586679 -69.921875 44.6015625 C-57.97499843 34.64583202 -41.92074101 35.73215689 -27.375 35.875 C-25.58984877 35.88504897 -23.80469206 35.89417143 -22.01953125 35.90234375 C-17.67955069 35.9242075 -13.33983668 35.95863185 -9 36 C-9.02051926 35.40083771 -9.04103851 34.80167542 -9.06217957 34.18435669 C-9.08959732 33.38375824 -9.11701508 32.58315979 -9.14526367 31.75830078 C-9.17429779 30.92365295 -9.20333191 30.08900513 -9.23324585 29.22906494 C-9.29153181 27.49781251 -9.34194741 25.76629061 -9.38793945 24.03466797 C-9.60761306 19.01584758 -10.19331331 15.32363402 -13 11 C-19.61292783 5.79407809 -25.09271347 5.79500229 -33.1875 5.75 C-34.5497168 5.7190625 -34.5497168 5.7190625 -35.93945312 5.6875 C-43.03614495 5.64686039 -49.97865328 6.288535 -55.4375 11.1875 C-57.426437 14.76758661 -58.18429848 17.98946754 -59 22 C-63.95 22 -68.9 22 -74 22 C-74.41910716 14.3163688 -73.08047399 8.42271527 -69.0625 1.8125 C-54.14900323 -14.26541393 -16.09799128 -13.55308824 0 0 Z M-57 55 C-61.07858629 60.22568869 -60.74896048 66.65936864 -60 73 C-58.70564267 77.32222893 -56.33404681 80.04983613 -52.5 82.375 C-43.3702741 86.61380131 -30.67193674 86.49371394 -21.1875 83.11328125 C-15.27900615 80.10627992 -11.12462796 76.31306656 -9 70 C-8.72834469 67.39509291 -8.72834469 67.39509291 -8.8046875 64.69921875 C-8.81435547 63.23452148 -8.81435547 63.23452148 -8.82421875 61.74023438 C-8.84097656 60.73283203 -8.85773437 59.72542969 -8.875 58.6875 C-8.88402344 57.66076172 -8.89304687 56.63402344 -8.90234375 55.57617188 C-8.92583799 53.05054101 -8.95868869 50.5253919 -9 48 C-12.92858919 47.94987569 -16.85704984 47.91394498 -20.78588867 47.89013672 C-22.76552896 47.87535083 -24.74508063 47.84991408 -26.72460938 47.82421875 C-42.97546354 47.67717356 -42.97546354 47.67717356 -57 55 Z " fill="#000000" transform="translate(2217,2254)"/>
<path d="M0 0 C5.28 0 10.56 0 16 0 C16.495 26.235 16.495 26.235 17 53 C19.64 50.69 22.28 48.38 25 46 C37.00305138 39.12600582 52.96581006 40.05108825 66 43 C75.04795745 45.96811303 79.28866672 51.0615001 83.75 59.1875 C87.78913093 69.77265905 87.2743751 81.65018132 87.1953125 92.80078125 C87.19157175 94.37403685 87.18872981 95.94729481 87.18673706 97.52055359 C87.17918407 101.61561781 87.15960967 105.71053497 87.1373291 109.80554199 C87.11668865 114.00250256 87.10769685 118.19948743 87.09765625 122.39648438 C87.07635385 130.5977305 87.0412422 138.79882989 87 147 C81.39 147 75.78 147 70 147 C69.98541748 144.87127441 69.97083496 142.74254883 69.95581055 140.54931641 C69.90527904 133.48447427 69.8386522 126.41984827 69.76428509 119.35521889 C69.71972139 115.0755365 69.6804352 110.79594623 69.65356445 106.51611328 C69.62739076 102.3791745 69.58689117 98.24259294 69.53681374 94.10587692 C69.52023948 92.53443245 69.50866681 90.96292633 69.50238609 89.39140701 C69.63928363 74.91108829 69.63928363 74.91108829 63.75 62.0625 C57.57400389 57.43050292 52.22181851 56.46855588 44.6875 56.5625 C43.84952881 56.56934814 43.01155762 56.57619629 42.14819336 56.58325195 C34.52271314 56.78086461 28.30442439 57.94976211 22.5625 63.25 C18.27127859 70.80254969 16.90913143 78.1657633 16.79467773 86.83154297 C16.77982834 87.81309105 16.77982834 87.81309105 16.76467896 88.81446838 C16.73333027 90.95700582 16.70841308 93.09956535 16.68359375 95.2421875 C16.66300115 96.73577418 16.6420041 98.22935534 16.62062073 99.72293091 C16.565638 103.63878888 16.5161246 107.55469737 16.46777344 111.47064209 C16.41738374 115.47266085 16.3617892 119.47460699 16.30664062 123.4765625 C16.19935049 131.31764838 16.09832329 139.15879655 16 147 C10.72 147 5.44 147 0 147 C0 98.49 0 49.98 0 0 Z " fill="#000000" transform="translate(1157,2203)"/>
<path d="M0 0 C10.86526362 9.21393501 14.27229792 20.68659877 15.7734375 34.50390625 C15.7734375 39.78390625 15.7734375 45.06390625 15.7734375 50.50390625 C-8.3165625 50.50390625 -32.4065625 50.50390625 -57.2265625 50.50390625 C-55.21492091 68.69361035 -55.21492091 68.69361035 -45.2265625 82.50390625 C-36.13954204 87.80466818 -24.46649611 87.71214747 -14.25390625 86.0078125 C-9.52376121 84.61009018 -6.72052935 82.91630914 -4.2265625 78.50390625 C-3.07591276 75.52722539 -2.14117483 72.56785756 -1.2265625 69.50390625 C4.0534375 69.50390625 9.3334375 69.50390625 14.7734375 69.50390625 C15.26882251 78.29699026 14.17531288 84.47536962 8.3984375 91.31640625 C-3.94175081 101.59989651 -19.68754618 102.47727526 -35.2265625 101.50390625 C-46.55778102 100.05030549 -57.33295379 97.08749994 -64.6953125 87.8671875 C-72.20453155 76.27770402 -73.58637383 63.76692244 -73.54223633 50.27392578 C-73.53908952 48.27110351 -73.56337208 46.26829966 -73.58789062 44.265625 C-73.59489126 30.05433751 -71.67435526 15.35995612 -62.22265625 4.12109375 C-47.91565365 -9.75081217 -16.30583087 -11.52416317 0 0 Z M-49.2265625 12.50390625 C-55.6520476 20.21448837 -56.2265625 27.55078051 -56.2265625 37.50390625 C-38.0765625 37.50390625 -19.9265625 37.50390625 -1.2265625 37.50390625 C-1.2265625 29.24573068 -1.28453726 21.00945814 -6.3515625 14.06640625 C-17.48521807 4.14293064 -37.30508213 3.44358117 -49.2265625 12.50390625 Z " fill="#000000" transform="translate(1852.2265625,2251.49609375)"/>
<path d="M0 0 C6.27 0 12.54 0 19 0 C22.63 14.19 26.26 28.38 30 43 C30.33 28.81 30.66 14.62 31 0 C35.62 0 40.24 0 45 0 C45 30.03 45 60.06 45 91 C39.72 91 34.44 91 29 91 C24.05 71.86 19.1 52.72 14 33 C13.67 52.14 13.34 71.28 13 91 C8.71 91 4.42 91 0 91 C0 60.97 0 30.94 0 0 Z " fill="#000000" transform="translate(1958,3503)"/>
<path d="M0 0 C0.69931641 -0.020625 1.39863281 -0.04125 2.11914062 -0.0625 C6.9233005 -0.09845255 10.11714356 0.71573989 14.1875 3.25 C19.95411036 9.01661036 21.28187487 14.22496686 21.3125 22.1875 C21.27125 23.858125 21.23 25.52875 21.1875 27.25 C16.5675 27.25 11.9475 27.25 7.1875 27.25 C6.55273438 23.05078125 6.55273438 23.05078125 5.91796875 18.8515625 C5.39977702 15.9212636 5.39977702 15.9212636 2.1875 14.25 C-0.92554814 14.40760028 -0.92554814 14.40760028 -3.8125 15.25 C-4.92674093 17.47848186 -5.07524631 18.89678397 -5.1875 21.375 C-5.23648437 22.09945312 -5.28546875 22.82390625 -5.3359375 23.5703125 C-3.61565718 32.37712071 4.15067059 38.42346097 10.39257812 44.25 C16.38180224 50.00865304 20.8962241 56.21428788 21.390625 64.76171875 C21.70654018 81.43524216 21.70654018 81.43524216 16.79296875 86.76171875 C10.10868205 92.66758219 3.88629073 92.84798557 -4.65234375 92.62109375 C-9.70988328 92.30492721 -13.37910466 91.1102499 -16.8125 87.25 C-21.81546529 79.90837046 -21.92767585 72.88818839 -21.8125 64.25 C-16.8625 64.25 -11.9125 64.25 -6.8125 64.25 C-6.4825 68.54 -6.1525 72.83 -5.8125 77.25 C-0.93706848 78.45961426 -0.93706848 78.45961426 3.625 76.875 C5.89086568 73.06834566 6.10033006 69.56580681 5.1875 65.25 C1.91410661 58.21178776 -3.27266893 53.61965906 -8.88085938 48.38671875 C-15.83357075 41.70116873 -20.84147437 34.6004889 -21.10498047 24.70239258 C-21.17866383 16.82635991 -21.01350112 10.59359384 -15.31640625 4.703125 C-10.44213584 0.37584254 -6.250868 0.04533721 0 0 Z " fill="#000000" transform="translate(1903.8125,3501.75)"/>
<path d="M0 0 C0.69931641 -0.020625 1.39863281 -0.04125 2.11914062 -0.0625 C6.92225751 -0.09844475 10.1221298 0.70690498 14.1875 3.25 C20.49269047 9.84179003 21.49234529 14.79850071 21.3125 23.5625 C21.30347656 24.39845703 21.29445313 25.23441406 21.28515625 26.09570312 C21.26170989 28.14725969 21.22584266 30.19866777 21.1875 32.25 C16.5675 32.25 11.9475 32.25 7.1875 32.25 C6.9921875 26.9765625 6.9921875 26.9765625 6.796875 21.703125 C6.11251182 17.82506697 5.33597609 16.54455361 2.1875 14.25 C-0.4558774 14.16194854 -0.4558774 14.16194854 -2.8125 15.25 C-5.04910534 18.60490801 -5.07237647 19.74325855 -5.10302734 23.66772461 C-5.11578705 24.77574936 -5.12854675 25.88377411 -5.14169312 27.02537537 C-5.14391876 28.22227493 -5.14614441 29.4191745 -5.1484375 30.65234375 C-5.1550943 31.88159073 -5.1617511 33.11083771 -5.16860962 34.37733459 C-5.17874242 36.97899883 -5.18342645 39.5806891 -5.18310547 42.18237305 C-5.18286219 46.16811109 -5.22379625 50.1531155 -5.26171875 54.13867188 C-5.2675866 56.6640587 -5.2715562 59.1894508 -5.2734375 61.71484375 C-5.28780853 62.90971909 -5.30217957 64.10459442 -5.31698608 65.3356781 C-5.31083282 66.44685501 -5.30467957 67.55803192 -5.29833984 68.70288086 C-5.3026149 70.16823524 -5.3026149 70.16823524 -5.30697632 71.66319275 C-4.67113288 74.98954903 -3.46111807 76.20255538 -0.8125 78.25 C1.8308774 78.33805146 1.8308774 78.33805146 4.1875 77.25 C6.1631562 74.28651571 6.45126859 73.56979627 6.6015625 70.23828125 C6.64023438 69.48095703 6.67890625 68.72363281 6.71875 67.94335938 C6.7496875 67.15767578 6.780625 66.37199219 6.8125 65.5625 C6.85117188 64.76521484 6.88984375 63.96792969 6.9296875 63.14648438 C7.02382494 61.18136525 7.10674632 59.2157146 7.1875 57.25 C11.8075 57.25 16.4275 57.25 21.1875 57.25 C21.29622471 60.58422438 21.37516068 63.91484659 21.4375 67.25 C21.48777344 68.65185547 21.48777344 68.65185547 21.5390625 70.08203125 C21.6359917 77.01246887 20.61758632 82.64719583 15.70385742 87.80834961 C9.75029817 93.00885312 3.5616036 92.66248779 -3.90625 92.53125 C-10.1231167 92.0836356 -12.78374138 90.33358994 -17.125 85.875 C-20.20048621 81.09091033 -21.0627747 76.63519924 -21.0871582 71.00439453 C-21.09669022 69.78938263 -21.10622223 68.57437073 -21.11604309 67.32254028 C-21.11513168 66.02243011 -21.11422028 64.72231995 -21.11328125 63.3828125 C-21.11717402 62.02049633 -21.12150988 60.65818135 -21.12626648 59.29586792 C-21.13370768 56.44639139 -21.13345304 53.5970388 -21.12817383 50.74755859 C-21.12238601 47.11402951 -21.13930319 43.48101132 -21.1625185 39.8475666 C-21.17732354 37.03523848 -21.17811834 34.22303143 -21.17500877 31.41067123 C-21.17576497 29.42554221 -21.18958371 27.44043184 -21.20368958 25.45535278 C-21.16553111 17.973394 -21.10746433 11.19646864 -16.09375 5.19140625 C-15.5059375 4.73636719 -14.918125 4.28132813 -14.3125 3.8125 C-13.43078125 3.10287109 -13.43078125 3.10287109 -12.53125 2.37890625 C-8.60995745 -0.19666999 -4.51297976 0.0327324 0 0 Z " fill="#000000" transform="translate(2031.8125,3501.75)"/>
<path d="M0 0 C12.87 0 25.74 0 39 0 C39 4.29 39 8.58 39 13 C31.08 13 23.16 13 15 13 C15 20.92 15 28.84 15 37 C21.27 37 27.54 37 34 37 C34 41.29 34 45.58 34 50 C27.73 50 21.46 50 15 50 C15 58.91 15 67.82 15 77 C22.92 77 30.84 77 39 77 C39 81.62 39 86.24 39 91 C26.13 91 13.26 91 0 91 C0 60.97 0 30.94 0 0 Z " fill="#000000" transform="translate(2061,3503)"/>
<path d="M0 0 C0 5.28 0 10.56 0 16 C-2.43375 16.391875 -4.8675 16.78375 -7.375 17.1875 C-15.50965748 18.64462599 -23.34518446 20.60916584 -29 27.0625 C-32.39198339 32.0444756 -33.25455482 34.93422587 -33.31884766 41.06347656 C-33.32889328 41.76631775 -33.3389389 42.46915894 -33.34928894 43.19329834 C-33.38010119 45.50906582 -33.39715036 47.82471779 -33.4140625 50.140625 C-33.43277575 51.74917595 -33.45234929 53.3577171 -33.4727478 54.96624756 C-33.52405851 59.1944806 -33.56368985 63.42274546 -33.60089111 67.65112305 C-33.64093744 71.96801621 -33.69202691 76.28477711 -33.7421875 80.6015625 C-33.83893429 89.06762463 -33.92232211 97.53374141 -34 106 C-39.28 106 -44.56 106 -50 106 C-50 71.68 -50 37.36 -50 2 C-45.71 2 -41.42 2 -37 2 C-35.26394487 3.73605513 -35.34388018 6.20549496 -34.9375 8.5625 C-34.67259766 10.08037109 -34.67259766 10.08037109 -34.40234375 11.62890625 C-34.26957031 12.41136719 -34.13679688 13.19382812 -34 14 C-32.824375 12.4221875 -32.824375 12.4221875 -31.625 10.8125 C-23.53527016 1.38720156 -11.7073917 -0.32520532 0 0 Z " fill="#000000" transform="translate(2035,2245)"/>
<path d="M0 0 C4.95 0 9.9 0 15 0 C15 30.03 15 60.06 15 91 C10.05 91 5.1 91 0 91 C0 60.97 0 30.94 0 0 Z " fill="#000000" transform="translate(1933,3503)"/>
</svg>
