<?xml version="1.0" encoding="UTF-8"?>
<svg version="1.1" xmlns="http://www.w3.org/2000/svg" width="4000" height="4000">
<path d="M0 0 C99.66 0 199.32 0 302 0 C302 33.33 302 66.66 302 101 C328.73 101 355.46 101 383 101 C383.33 109.58 383.66 118.16 384 127 C385.32 125.02 386.64 123.04 388 121 C393.61407318 112.8454803 399.61674965 106.68039844 407.875 101.1875 C408.42760498 100.81399414 408.98020996 100.44048828 409.54956055 100.05566406 C417.8663475 94.77265097 426.29440682 93.52973122 436 93.75 C436.93972656 93.75515625 437.87945313 93.7603125 438.84765625 93.765625 C445.68874264 93.84437132 445.68874264 93.84437132 448 95 C448 96.98 448 98.96 448 101 C484.96 101 521.92 101 560 101 C560 192.74 560 284.48 560 379 C522.38 379 484.76 379 446 379 C446 319.6 446 260.2 446 199 C426.11997259 199 407.92901744 199.88940299 390 209 C389.34 209 388.68 209 388 209 C388 265.1 388 321.2 388 379 C350.38 379 312.76 379 274 379 C274 288.25 274 197.5 274 104 C252.88 104 231.76 104 210 104 C210 194.75 210 285.5 210 379 C171.06 379 132.12 379 92 379 C92 288.25 92 197.5 92 104 C61.64 104 31.28 104 0 104 C0 69.68 0 35.36 0 0 Z M275 102 C275 102.33 275 102.66 275 103 C283.58 103 292.16 103 301 103 C301 102.67 301 102.34 301 102 C292.42 102 283.84 102 275 102 Z " fill="#000000" transform="translate(2420,1829)"/>
<path d="M0 0 C37.62 0 75.24 0 114 0 C114.33 37.95 114.66 75.9 115 115 C117.31 113.02 119.62 111.04 122 109 C138.36941574 98.13290888 155.15506415 93.60317678 174.6875 93.6875 C175.68570267 93.69023422 175.68570267 93.69023422 176.70407104 93.69302368 C205.34384307 93.82532592 229.1178642 104.47809463 249.27368164 124.78613281 C278.50617794 155.48487723 286.75813979 202.1707261 286 243 C284.4002742 285.91876967 273.20223702 329.29068621 241.328125 359.97265625 C217.09673468 381.07348104 189.49054243 386.66012034 158 385 C152.41678462 384.34161564 147.27896863 382.94843159 142 381 C141.16597656 380.69964844 140.33195312 380.39929687 139.47265625 380.08984375 C137.22867104 379.17884097 135.13603568 378.14049048 133 377 C132.0925 376.54238281 131.185 376.08476562 130.25 375.61328125 C119.53554861 369.85147341 111.5207177 361.5207177 103 353 C101.68 361.25 100.36 369.5 99 378 C66.33 378 33.66 378 0 378 C0 253.26 0 128.52 0 0 Z M119 189 C118.14122757 189.33573029 117.28245514 189.67146057 116.3976593 190.0173645 C113.57858973 191.90821627 113.57858973 191.90821627 113.34489441 195.89572144 C113.30594866 197.56012294 113.29495484 199.22531252 113.30541992 200.89013672 C113.29183945 201.79937897 113.27825897 202.70862122 113.26426697 203.64541626 C113.22690538 206.65724237 113.2269388 209.66764995 113.23046875 212.6796875 C113.21948469 214.77093058 113.20745175 216.86216839 113.19441223 218.95339966 C113.17348318 223.34002086 113.17223814 227.72614084 113.18334961 232.11279297 C113.19503658 237.73493536 113.14755154 243.3548164 113.08388805 248.97654533 C113.04330339 253.29693175 113.03952146 257.61677243 113.04628944 261.93732071 C113.04408178 264.00980973 113.02916648 266.08232547 113.00133324 268.15462875 C112.96684878 271.05496366 112.98321875 273.95077628 113.01245117 276.85107422 C112.99154419 277.70735413 112.97063721 278.56363403 112.94909668 279.44586182 C113.00496749 281.87858083 113.1362623 283.72257706 114 286 C116.41420574 288.25613209 119.01633139 289.62337291 122 291 C123.155 291.598125 124.31 292.19625 125.5 292.8125 C133.36228577 295.50059375 143.92312833 295.45215312 151.5 292.0625 C162.12179664 285.67157026 166.92155777 275.94501305 169.96875 264.296875 C174.58159388 243.49937789 174.59620109 217.03870278 164 198 C159.3032086 191.02945628 153.85375069 187.6179169 146 185 C136.32325635 184.32307183 127.85613783 184.56451389 119 189 Z " fill="#000000" transform="translate(2998,1829)"/>
<path d="M0 0 C37.29 0 74.58 0 113 0 C113 124.74 113 249.48 113 378 C80.33 378 47.66 378 14 378 C12.35 369.75 10.7 361.5 9 353 C7.329375 354.77375 5.65875 356.5475 3.9375 358.375 C-12.50324377 375.16285678 -34.41097325 384.93987898 -57.92504883 385.29272461 C-87.88887099 385.44764065 -110.97791109 378.05789938 -133 357 C-133.90298828 356.19175781 -133.90298828 356.19175781 -134.82421875 355.3671875 C-162.83033112 329.38482684 -171.42124336 285.54978675 -172.80639648 249.19165039 C-174.15127359 203.64062713 -163.59004721 156.43659698 -131.78735352 122.33569336 C-113.73808644 103.69484295 -89.91711232 94.15739998 -64.20654297 93.52905273 C-48.63586029 93.41098779 -35.94233789 94.89602223 -21.8125 101.625 C-21.21912842 101.90666016 -20.62575684 102.18832031 -20.0144043 102.47851562 C-12.91519177 106.15326672 -7.5320123 110.97537515 -1 116 C-0.67 77.72 -0.34 39.44 0 0 Z M-49.24609375 196.41015625 C-61.12327239 213.94817282 -61.29779949 240.10152222 -57.75 260.25 C-55.32709918 272.82768418 -50.73884915 283.44438723 -40 291 C-34.72338484 293.73366809 -30.50157842 294.51900884 -24.6875 294.4375 C-23.94201904 294.43137695 -23.19653809 294.42525391 -22.4284668 294.41894531 C-16.35622111 294.24754331 -11.29653859 293.08093088 -6 290 C-4.98211899 289.49548309 -3.96423798 288.99096619 -2.91551208 288.47116089 C0.27513257 285.80391557 0.27513257 285.80391557 0.78208923 282.06668091 C0.82683704 280.4436109 0.83840108 278.81942343 0.82397461 277.19580078 C0.8469738 275.86338852 0.8469738 275.86338852 0.87043762 274.50405884 C0.91214402 271.56719344 0.90925588 268.63243883 0.90234375 265.6953125 C0.91400484 263.65273249 0.9270089 261.61015974 0.94129944 259.56759644 C0.96369016 255.28522166 0.9628115 251.00358876 0.94702148 246.72119141 C0.92964321 241.23676972 0.98039972 235.75538967 1.0500555 230.27147102 C1.0942893 226.05221854 1.09688043 221.83369727 1.08752632 217.614254 C1.08906529 215.59282281 1.10476726 213.57135044 1.13496208 211.5501442 C1.75969711 200.9366248 1.75969711 200.9366248 -1.93185425 191.46380615 C-4.27668907 189.85461109 -6.30963858 188.89064681 -9 188 C-9.73134659 187.66622345 -10.46269318 187.3324469 -11.21620178 186.98855591 C-25.12559399 180.69583324 -39.91147373 185.0766075 -49.24609375 196.41015625 Z " fill="#000000" transform="translate(1145,1829)"/>
<path d="M0 0 C84.15 0 168.3 0 255 0 C255 33.66 255 67.32 255 102 C209.79 102 164.58 102 118 102 C118 119.16 118 136.32 118 154 C158.92 154 199.84 154 242 154 C242 186.34 242 218.68 242 252 C201.08 252 160.16 252 118 252 C118 293.91 118 335.82 118 379 C79.06 379 40.12 379 0 379 C0 253.93 0 128.86 0 0 Z " fill="#000000" transform="translate(301,1829)"/>
<path d="M0 0 C42.57 0 85.14 0 129 0 C134.62491484 13.49979561 134.62491484 13.49979561 136.85571289 19.46386719 C137.10051392 20.11647522 137.34531494 20.76908325 137.59753418 21.44146729 C138.3913272 23.55916235 139.18201645 25.6780009 139.97265625 27.796875 C140.54191341 29.31739508 141.1113711 30.8378401 141.68101501 32.35821533 C143.17597114 36.34981789 144.66830569 40.34239537 146.16003418 44.33520508 C147.63576773 48.28393509 149.11384609 52.23178695 150.59179688 56.1796875 C152.6277044 61.61860325 154.66285728 67.05780014 156.69698143 72.49738312 C160.41621388 82.4430173 164.14201273 92.38617964 167.87109375 102.328125 C168.13459185 103.03063133 168.39808994 103.73313766 168.66957283 104.45693207 C170.11285257 108.30469492 171.55633055 112.15238335 173 116 C174.59458624 113.60812064 175.58996462 111.76199366 176.62207031 109.1418457 C176.93211502 108.35976746 177.24215973 107.57768921 177.56159973 106.77191162 C177.89705307 105.9151886 178.23250641 105.05846558 178.578125 104.17578125 C178.93754684 103.26596497 179.29696869 102.35614868 179.6672821 101.41876221 C180.86487144 98.38465079 182.05739843 95.34857502 183.25 92.3125 C184.08767273 90.18795164 184.92565034 88.06352346 185.76391602 85.93920898 C190.27553477 74.49843741 194.76634745 63.04949646 199.25564957 51.59995461 C200.00831285 49.68056051 200.76118582 47.76124879 201.51412964 45.84196472 C202.0110516 44.57522749 202.50796935 43.30848861 203.00488281 42.04174805 C203.24898203 41.41951198 203.49308125 40.79727591 203.74457741 40.1561842 C205.42850246 35.86276636 207.10868891 31.56789571 208.78808594 27.27270508 C209.68027267 24.99557966 210.5725222 22.71847884 211.46484375 20.44140625 C211.86515305 19.41517151 212.26546234 18.38893677 212.67790222 17.331604 C213.05739517 16.36438416 213.43688812 15.39716431 213.82788086 14.40063477 C214.15251816 13.57056412 214.47715546 12.74049347 214.81163025 11.88526917 C216.45790895 7.88823274 218.24434774 3.95021758 220 0 C261.58 0 303.16 0 346 0 C344.57061865 4.28814406 343.16483519 7.93960256 341.19921875 11.9453125 C340.64145752 13.08911377 340.08369629 14.23291504 339.5090332 15.41137695 C339.06486557 16.31661606 339.06486557 16.31661606 338.61172485 17.24014282 C337.01043254 20.50580625 335.42286308 23.77811764 333.8359375 27.05078125 C333.3481356 28.05642372 333.3481356 28.05642372 332.85047913 29.0823822 C329.76468509 35.45876404 326.77814205 41.87941844 323.8125 48.3125 C318.53521428 59.74539006 313.16064895 71.12967819 307.75 82.5 C307.34538544 83.35038849 306.94077087 84.20077698 306.52389526 85.07693481 C305.91543259 86.35575027 305.91543259 86.35575027 305.29467773 87.66040039 C304.47508528 89.38296937 303.65550519 91.10554424 302.8359375 92.828125 C302.22725578 94.10737099 302.22725578 94.10737099 301.60627747 95.41246033 C297.51332447 104.01749117 293.4414431 112.63241612 289.375 121.25 C288.85492371 122.35202759 288.85492371 122.35202759 288.32434082 123.47631836 C286.58020828 127.17223275 284.83639976 130.86829989 283.09277344 134.56445312 C279.9183836 141.29310603 276.74089237 148.02029438 273.56369019 154.74761963 C272.50269963 156.9942835 271.44187488 159.24102559 270.38110352 161.48779297 C267.16816322 168.29277172 263.954473 175.09739175 260.73721313 181.90032959 C259.27787805 184.98627001 257.81909991 188.07247359 256.36035156 191.15869141 C255.68988746 192.57678859 255.01917552 193.99476863 254.34814453 195.41259766 C254.0386084 196.06663574 253.72907227 196.72067383 253.41015625 197.39453125 C253.11320642 198.02018856 252.81625658 198.64584587 252.51030827 199.29046249 C251.85614119 200.6797147 251.20909029 202.07235405 250.57125759 203.46918106 C248.39836574 208.19201488 246.05138635 212.76917613 243.5549469 217.32977295 C233.74665271 235.83878772 230.95893233 251.11324015 231.37855577 271.90803289 C231.43943032 275.6955202 231.4180861 279.48270271 231.40682983 283.27053833 C231.39747261 290.38919862 231.45812712 297.50532156 231.54635084 304.62336934 C231.66176999 314.27974526 231.6641562 323.93618179 231.67412949 333.59313393 C231.6926372 348.73036764 231.85791869 363.86225172 232 379 C193.06 379 154.12 379 114 379 C114.11794922 364.52705078 114.11794922 364.52705078 114.23828125 349.76171875 C114.25913671 343.59560599 114.27663752 337.42977514 114.27929688 331.26367188 C114.28411352 321.50743982 114.30140077 311.75254902 114.40795898 301.99682617 C114.48555909 294.88649148 114.51549801 287.77768083 114.49218339 280.66693717 C114.48143783 276.91396006 114.491837 273.16419607 114.55968666 269.41174889 C114.90686152 249.10415849 111.672458 234.32707913 101.49082756 216.63475227 C99.56434889 213.23007007 97.94269149 209.75633377 96.34375 206.1875 C95.62735352 204.63192383 95.62735352 204.63192383 94.89648438 203.04492188 C94.43564453 202.04009766 93.97480469 201.03527344 93.5 200 C89.25101821 190.79127878 84.92021883 181.62773197 80.5 172.5 C76.2110285 163.64017377 72.00141756 154.74918587 67.875 145.8125 C62.57517445 134.33878536 57.18045899 122.91240655 51.75 111.5 C51.34547607 110.64979279 50.94095215 109.79958557 50.52416992 108.9236145 C50.11851807 108.07105072 49.71286621 107.21848694 49.29492188 106.34008789 C48.47524844 104.61735596 47.65558698 102.89461833 46.8359375 101.171875 C46.43014465 100.31903427 46.02435181 99.46619354 45.60626221 98.58750916 C41.51331619 89.98248774 37.44140824 81.36758767 33.375 72.75 C33.0312735 72.02162933 32.687547 71.29325867 32.33340454 70.54281616 C30.94773701 67.6063957 29.56219413 64.66991649 28.17689514 61.73332214 C25.59994266 56.27070388 23.0211037 50.80897871 20.44140625 45.34765625 C20.06282471 44.54615143 19.68424316 43.74464661 19.29418945 42.91885376 C17.82783087 39.81440834 16.36146266 36.70996747 14.8949585 33.60559082 C14.56078918 32.89817749 14.22661987 32.19076416 13.88232422 31.46191406 C13.55288818 30.7645816 13.22345215 30.06724915 12.8840332 29.3487854 C12.235878 27.97596899 11.58824377 26.60290649 10.94116211 25.22958374 C9.2131594 21.56273521 7.47594734 17.90058773 5.72705078 14.24365234 C5.35528214 13.46277756 4.98351349 12.68190277 4.60047913 11.87736511 C3.8835486 10.37158654 3.16364798 8.86721755 2.44041443 7.36445618 C0 2.22554682 0 2.22554682 0 0 Z " fill="#000000" transform="translate(1321,1829)"/>
<path d="M0 0 C1.20269531 -0.01160156 2.40539062 -0.02320313 3.64453125 -0.03515625 C25.99889682 0.03687715 45.42496441 7.7507065 61.6875 23 C86.13544552 48.75765689 89.87553983 82.9495896 89.72705078 116.90332031 C89.7264846 118.75846348 89.72680726 120.61360709 89.72793579 122.46875 C89.72850223 127.43439017 89.71686483 132.3999308 89.70278788 137.36554813 C89.69016029 142.5811568 89.68910065 147.79676854 89.68673706 153.01239014 C89.68055724 162.85738464 89.66419451 172.70233395 89.64403808 182.54730868 C89.61735588 195.87310004 89.60667813 209.19890403 89.59503365 222.52471542 C89.57631081 243.47484404 89.53644204 264.42487734 89.5 285.375 C51.88 285.375 14.26 285.375 -24.5 285.375 C-24.53738281 272.78601562 -24.57476563 260.19703125 -24.61328125 247.2265625 C-24.64355705 239.25129107 -24.67458079 231.27603417 -24.70898438 223.30078125 C-24.76345212 210.64210326 -24.81486596 197.98346561 -24.84643555 185.32470703 C-24.86944264 176.10496963 -24.90287102 166.88533829 -24.94870156 157.66568506 C-24.97259715 152.78603514 -24.99134994 147.90649004 -24.99761391 143.02678299 C-25.00368132 138.42864312 -25.02374092 133.83077131 -25.05427551 129.23273087 C-25.06302922 127.5502153 -25.06678388 125.86766466 -25.06500816 124.18512726 C-24.77701408 109.3785395 -24.77701408 109.3785395 -30.9375 96.375 C-37.36177891 91.36092865 -43.53774342 91.6542785 -51.5 92.375 C-55.0488962 93.35464322 -58.23027106 94.69727392 -61.5 96.375 C-63.48 97.365 -63.48 97.365 -65.5 98.375 C-65.5 160.085 -65.5 221.795 -65.5 285.375 C-103.12 285.375 -140.74 285.375 -179.5 285.375 C-179.5 193.635 -179.5 101.895 -179.5 7.375 C-143.53 7.375 -107.56 7.375 -70.5 7.375 C-70.005 17.77 -70.005 17.77 -69.5 28.375 C-68.324375 27.26125 -67.14875 26.1475 -65.9375 25 C-57.18846295 17.28829027 -47.70472322 10.95879619 -36.9375 6.4375 C-35.98520508 6.03229126 -35.98520508 6.03229126 -35.01367188 5.61889648 C-23.67231783 1.14495325 -12.10263139 -0.11674564 0 0 Z " fill="#000000" transform="translate(873.5,1922.625)"/>
<path d="M0 0 C37.62 0 75.24 0 114 0 C114.03738281 12.684375 114.07476563 25.36875 114.11328125 38.4375 C114.14355277 46.4674589 114.1745733 54.49740329 114.20898438 62.52734375 C114.26347796 75.27619112 114.3148906 88.02499821 114.34643555 100.77392578 C114.36942347 110.05883334 114.40283048 119.34363523 114.44870156 128.62845898 C114.47262297 133.54381562 114.49135887 138.45906769 114.49761391 143.3744812 C114.5036696 148.00380404 114.52368714 152.63285933 114.55427551 157.26208305 C114.56304793 158.95833922 114.56677997 160.65463036 114.56500816 162.35090828 C114.56334843 164.67369872 114.58011313 166.99568026 114.60127258 169.31835938 C114.60588155 170.6162439 114.61049051 171.91412842 114.61523914 173.25134277 C115.27705085 179.69925759 117.35373982 185.35373982 122 190 C128.65627061 193.33400503 136.95754755 193.10438134 144.03125 191.171875 C147.65885384 189.74217231 150.75113005 188.1659133 154 186 C154.30693741 183.48639391 154.41572678 181.21569355 154.39872742 178.69821167 C154.40537424 177.93696208 154.41202107 177.17571249 154.41886932 176.39139473 C154.43760066 173.82703945 154.43488731 171.26314659 154.43237305 168.69873047 C154.44138405 166.86593969 154.45170962 165.03315497 154.46325684 163.20037842 C154.49093083 158.21303688 154.50012541 153.22580934 154.50611091 148.23840094 C154.51546762 143.03064259 154.54166869 137.82297032 154.56611633 132.61526489 C154.60985966 122.74846 154.63835844 112.88167173 154.66143972 103.01479924 C154.6934964 89.6854272 154.7489813 76.35615431 154.80318546 63.02685738 C154.88799884 42.01793429 154.9414058 21.00905044 155 0 C192.62 0 230.24 0 269 0 C269 91.41 269 182.82 269 277 C236.33 277 203.66 277 170 277 C168.73646454 271.31409043 167.50676424 265.64776502 166.375 259.9375 C166.2409375 259.26267578 166.106875 258.58785156 165.96875 257.89257812 C165.64492709 256.26189845 165.32232727 254.63097597 165 253 C164.45214844 253.53367187 163.90429688 254.06734375 163.33984375 254.6171875 C138.94625657 277.54319301 111.60681101 284.99948087 78.60009766 284.18359375 C71.37468865 283.81512043 64.82277953 282.3304775 58 280 C56.93523437 279.649375 55.87046875 279.29875 54.7734375 278.9375 C34.13476314 271.25799326 19.3112398 254.63864945 10.08959961 235.12939453 C1.36343545 215.74054263 -0.31496216 195.47986205 -0.22705078 174.48852539 C-0.22648531 172.57500718 -0.22680587 170.66148854 -0.22793579 168.74797058 C-0.22850502 163.60022378 -0.21682107 158.45257192 -0.20278788 153.304847 C-0.19020811 147.90769904 -0.18910434 142.51054843 -0.18673706 137.11338806 C-0.18054345 126.91406824 -0.16416156 116.71479176 -0.14403808 106.51549095 C-0.11741217 92.71835729 -0.1066893 78.92121163 -0.09503365 65.12405872 C-0.07627926 43.41600674 -0.0364195 21.70804618 0 0 Z " fill="#000000" transform="translate(1896,1930)"/>
<path d="M0 0 C0.83977386 0.00182281 1.67954773 0.00364563 2.54476929 0.00552368 C14.67531384 0.04989332 26.49008703 0.33511098 38.3125 3.3125 C39.01987305 3.48410645 39.72724609 3.65571289 40.45605469 3.83251953 C76.61951086 12.8451938 105.41055504 35.33225176 124.5 67.0625 C132.6489521 81.49645083 137.11091142 97.13587836 140.3125 113.3125 C140.56 114.55386719 140.8075 115.79523438 141.0625 117.07421875 C147.42783045 157.25536724 140.21235835 202.32154432 116.5 235.875 C112.41876843 241.32696779 107.99068007 246.36833645 103.3125 251.3125 C102.54164063 252.1478125 101.77078125 252.983125 100.9765625 253.84375 C94.72238936 260.40152378 87.90583317 265.46472763 80.3125 270.3125 C79.35601563 270.92996094 78.39953125 271.54742188 77.4140625 272.18359375 C57.44051027 284.46869643 33.19712266 291.31154508 9.7734375 291.55078125 C8.97831253 291.5605751 8.18318756 291.57036896 7.3639679 291.58045959 C-9.62185607 291.74667597 -26.18769004 291.89810708 -42.6875 287.3125 C-43.85732422 286.99104004 -43.85732422 286.99104004 -45.05078125 286.66308594 C-78.0635853 277.26018528 -106.38921106 257.09233533 -123.73828125 227.1875 C-145.611157 187.77989921 -149.06430067 139.13918236 -136.86938477 96.02026367 C-134.27201017 87.43792089 -130.66634895 79.33455607 -126.6875 71.3125 C-126.22585449 70.37712402 -126.22585449 70.37712402 -125.75488281 69.42285156 C-109.87685246 37.9586033 -81.40215925 17.49455413 -48.6875 6.3125 C-43.42949068 4.65651597 -38.11309442 3.296574 -32.6875 2.3125 C-31.7193335 2.13662354 -30.75116699 1.96074707 -29.75366211 1.77954102 C-19.81458775 0.16245513 -10.04915091 -0.04521455 0 0 Z M-19.83203125 101.65234375 C-31.97523062 119.06185696 -31.94406408 146.30777871 -28.5 166.4375 C-26.1034655 178.65204873 -22.39772907 189.0532247 -12.6875 197.3125 C-6.46921311 201.06534973 -0.78256562 201.22435054 6.3125 200.3125 C9.50623949 199.14784621 11.79446188 197.57642418 14.3125 195.3125 C14.85390625 194.8278125 15.3953125 194.343125 15.953125 193.84375 C27.94139663 181.49219741 29.46192015 160.70102975 29.3125 144.3125 C28.81011242 127.6254108 27.15950377 109.21333505 14.73828125 96.73046875 C8.77504156 91.51826681 4.28639462 90.84660547 -3.5 91.01171875 C-10.91403005 91.71132698 -15.16109311 96.09600535 -19.83203125 101.65234375 Z " fill="#000000" transform="translate(1743.6875,1922.6875)"/>
<path d="M0 0 C0.79466675 -0.00626404 1.5893335 -0.01252808 2.40808105 -0.01898193 C17.71070244 -0.09522247 32.79034888 1.48757878 47.3125 6.5625 C48.18253662 6.8610791 49.05257324 7.1596582 49.94897461 7.46728516 C63.52546657 12.31028156 75.67054943 19.19696239 86.75 28.4375 C87.73355469 29.24574219 88.71710937 30.05398438 89.73046875 30.88671875 C118.34199781 55.64883122 128.56255425 90.12537974 133.75 126.4375 C133.75 143.5975 133.75 160.7575 133.75 178.4375 C52.57 178.9325 52.57 178.9325 -30.25 179.4375 C-23.31255908 193.31238183 -20.76844427 197.6509551 -7.64453125 202.67578125 C16.15604996 210.24692862 47.14488137 203.41007077 68.97412109 192.30615234 C71.69170206 190.83660924 74.39355989 189.35876128 77.03222656 187.75097656 C78.74609375 186.74609375 78.74609375 186.74609375 81.75 185.4375 C85.38698263 186.43069362 86.80202722 188.67522937 88.66581726 191.82780457 C89.00683975 192.42861343 89.34786224 193.0294223 89.69921875 193.6484375 C90.06952713 194.28054642 90.43983551 194.91265533 90.82136536 195.56391907 C92.0361271 197.64146507 93.2365464 199.7269472 94.4375 201.8125 C95.70447079 203.98566227 96.97526821 206.15655682 98.24624634 208.32737732 C99.11525142 209.81216711 99.98305786 211.29765904 100.84970093 212.78382874 C105.22783893 220.2850712 109.72717789 227.71038644 114.25 235.125 C114.96842921 236.30447229 115.6867747 237.48399559 116.4050293 238.66357422 C117.65268186 240.71199538 118.90101651 242.76000144 120.15039062 244.80737305 C120.67826172 245.67531494 121.20613281 246.54325684 121.75 247.4375 C122.35521484 248.2931958 122.96042969 249.1488916 123.58398438 250.03051758 C124.75 252.4375 124.75 252.4375 124.15893555 254.58569336 C122.64370474 256.57720708 121.30727315 257.71328179 119.20703125 259.06640625 C118.47508545 259.53860596 117.74313965 260.01080566 116.98901367 260.49731445 C116.18826416 260.99320068 115.38751465 261.48908691 114.5625 262 C113.72243408 262.52231201 112.88236816 263.04462402 112.0168457 263.58276367 C84.09211488 280.55962897 52.28545034 291.46790784 19.38671875 291.640625 C18.51465286 291.64632507 17.64258698 291.65202515 16.74409485 291.65789795 C14.90452258 291.66728786 13.06493395 291.67385781 11.2253418 291.67773438 C8.48258978 291.68734205 5.74062063 291.71838247 2.99804688 291.75 C-36.82753454 291.98898081 -74.4744449 279.79577568 -103.3125 251.75 C-131.63781972 223.22952105 -141.31064589 183.18890757 -141.24609375 144.0703125 C-140.78586333 105.01647435 -128.25654159 67.97953058 -101.25 39.4375 C-100.47914063 38.6021875 -99.70828125 37.766875 -98.9140625 36.90625 C-83.6047113 20.85372641 -62.56896662 10.07144811 -41.25 4.4375 C-40.10362061 4.12425781 -40.10362061 4.12425781 -38.93408203 3.8046875 C-26.06792727 0.4508373 -13.21628257 0.04870549 0 0 Z M-24.5625 91.046875 C-30.20806134 99.04475356 -32.25 107.76495532 -32.25 117.4375 C-11.79 117.4375 8.67 117.4375 29.75 117.4375 C29.75 105.33957006 26.72974136 94.80603332 18.27734375 85.8828125 C11.22954827 79.5303995 4.70039952 78.80774409 -4.5234375 79.03515625 C-13.35100142 79.98823705 -19.02499677 84.3036251 -24.5625 91.046875 Z " fill="#000000" transform="translate(3426.25,1922.5625)"/>
<path d="M0 0 C0.93972656 0.00515625 1.87945313 0.0103125 2.84765625 0.015625 C9.68874264 0.09437132 9.68874264 0.09437132 12 1.25 C12 35.9 12 70.55 12 106.25 C6.06 105.92 0.12 105.59 -6 105.25 C-20.09367009 106.27873504 -33.32686358 108.8101692 -46 115.25 C-46.66 115.25 -47.32 115.25 -48 115.25 C-48 171.35 -48 227.45 -48 285.25 C-85.62 285.25 -123.24 285.25 -162 285.25 C-162 193.51 -162 101.77 -162 7.25 C-126.03 7.25 -90.06 7.25 -53 7.25 C-52.67 15.83 -52.34 24.41 -52 33.25 C-50.68 31.27 -49.36 29.29 -48 27.25 C-42.38592682 19.0954803 -36.38325035 12.93039844 -28.125 7.4375 C-27.57239502 7.06399414 -27.01979004 6.69048828 -26.45043945 6.30566406 C-18.1336525 1.02265097 -9.70559318 -0.22026878 0 0 Z " fill="#000000" transform="translate(2345,1922.75)"/>
<path d="M0 0 C37.62 0 75.24 0 114 0 C114 91.74 114 183.48 114 278 C76.38 278 38.76 278 0 278 C0 186.26 0 94.52 0 0 Z " fill="#000000" transform="translate(562,1930)"/>
<path d="M0 0 C13.51825929 10.34637722 21.88239909 23.26763799 25 40 C25.38808947 44.344556 25.42159721 48.64057212 25.375 53 C25.38660156 54.08539062 25.39820312 55.17078125 25.41015625 56.2890625 C25.34912345 73.33755856 19.62926045 87.30369967 7.71875 99.375 C-7.38018439 113.95328148 -24.27699933 116.71818477 -44.5078125 116.375 C-57.17978193 115.8618164 -67.87290146 111.71205119 -78 104 C-78.80050781 103.39285156 -79.60101562 102.78570313 -80.42578125 102.16015625 C-91.75490969 92.84932632 -98.76034033 78.69717754 -100.71875 64.25390625 C-102.47039647 43.98832969 -99.17147986 24.58773505 -85.875 8.5625 C-63.53511633 -14.12107419 -26.51918713 -17.19082985 0 0 Z " fill="#000000" transform="translate(3672,2098)"/>
<path d="M0 0 C1.1034375 -0.01611328 2.206875 -0.03222656 3.34375 -0.04882812 C20.03222549 -0.05862183 33.99515275 5.46542141 46.1015625 17.0625 C57.35589023 28.8488505 62.23644186 42.54373954 62.625 58.8125 C62.20520707 75.69167422 57.0568926 89.62017111 45.18359375 101.61328125 C32.12224783 113.63111085 15.70637169 118.8714624 -1.88330078 118.23535156 C-16.74340982 117.35001347 -28.89910089 113.63882377 -40.75 104.3125 C-41.5853125 103.68601562 -42.420625 103.05953125 -43.28125 102.4140625 C-53.43064389 93.77423036 -59.87060561 80.02017362 -60.95507812 66.81542969 C-61.62075565 49.05270784 -59.35364459 34.02719115 -48.0625 19.5625 C-34.93030922 5.55947428 -18.72149881 -0.05392137 0 0 Z " fill="#000000" transform="translate(2922.75,1799.6875)"/>
<path d="M0 0 C1.1034375 -0.01611328 2.206875 -0.03222656 3.34375 -0.04882812 C20.03222549 -0.05862183 33.99515275 5.46542141 46.1015625 17.0625 C57.35589023 28.8488505 62.23644186 42.54373954 62.625 58.8125 C62.20520707 75.69167422 57.0568926 89.62017111 45.18359375 101.61328125 C32.12224783 113.63111085 15.70637169 118.8714624 -1.88330078 118.23535156 C-16.74340982 117.35001347 -28.89910089 113.63882377 -40.75 104.3125 C-41.5853125 103.68601562 -42.420625 103.05953125 -43.28125 102.4140625 C-53.43064389 93.77423036 -59.87060561 80.02017362 -60.95507812 66.81542969 C-61.62075565 49.05270784 -59.35364459 34.02719115 -48.0625 19.5625 C-34.93030922 5.55947428 -18.72149881 -0.05392137 0 0 Z " fill="#000000" transform="translate(618.75,1799.6875)"/>
</svg>
