<?xml version="1.0" encoding="UTF-8"?>
<svg version="1.1" xmlns="http://www.w3.org/2000/svg" width="4000" height="4000">
<path d="M0 0 C1.11822536 -0.00523382 2.23645073 -0.01046763 3.38856171 -0.01586005 C4.61016848 -0.01143297 5.83177526 -0.00700589 7.09040042 -0.00244466 C8.40071268 -0.00562199 9.71102494 -0.00879931 11.06104363 -0.01207292 C14.71424889 -0.02064205 18.36735172 -0.0167155 22.02055837 -0.01082527 C26.00367381 -0.00660656 29.98677048 -0.01398607 33.96988144 -0.01988888 C40.98310969 -0.02866758 47.99630902 -0.02996278 55.00954143 -0.02645459 C65.50871141 -0.02123542 76.00785308 -0.02747547 86.5070198 -0.03596808 C104.3986758 -0.05009344 122.29032298 -0.05463512 140.18198403 -0.05399654 C158.3207472 -0.05337526 176.4595018 -0.05704668 194.59826287 -0.06597659 C196.3149158 -0.06681627 196.3149158 -0.06681627 198.06624858 -0.06767292 C202.72714559 -0.06996448 207.38804259 -0.07228283 212.04893956 -0.07463621 C260.70997923 -0.09916575 309.3710154 -0.10930476 358.03206054 -0.11416337 C363.27245598 -0.11468706 368.51285142 -0.11521289 373.75324687 -0.11574003 C375.05361087 -0.1158691 376.35397487 -0.11599816 377.69374384 -0.11613113 C406.49006058 -0.11903487 435.28637633 -0.1251923 464.08269241 -0.13183735 C475.93432934 -0.13456075 487.78596629 -0.13719179 499.63760325 -0.13982299 C501.60177155 -0.14025936 501.60177155 -0.14025936 503.60562002 -0.14070455 C534.44885727 -0.14753708 565.29209463 -0.15360094 596.13533219 -0.15884063 C597.14341407 -0.15901199 597.14341407 -0.15901199 598.17186124 -0.15918682 C641.00286346 -0.16644538 683.83386524 -0.17016734 726.66486803 -0.17154941 C730.17660663 -0.17166373 733.68834523 -0.17178375 737.20008382 -0.17190299 C749.18011765 -0.17230771 761.16015147 -0.17269117 773.1401853 -0.17307361 C778.79641287 -0.17325439 784.45264045 -0.17343816 790.10886803 -0.17362383 C793.64817686 -0.17373984 797.1874857 -0.17385412 800.72679453 -0.17396461 C867.57570852 -0.17605752 934.42461563 -0.18280628 1001.27352532 -0.20819423 C1001.97729808 -0.20846138 1002.68107084 -0.20872853 1003.40617004 -0.20900378 C1025.39523981 -0.21736584 1047.38430934 -0.22630668 1069.37337884 -0.23535487 C1091.93563271 -0.24463721 1114.4978866 -0.25383819 1137.06014069 -0.2625756 C1138.10218603 -0.2629796 1138.10218603 -0.2629796 1139.16528279 -0.26339176 C1182.66964214 -0.28023282 1226.17399957 -0.29101724 1269.67836197 -0.29529998 C1270.35023526 -0.29536682 1271.02210854 -0.29543366 1271.71434163 -0.29550252 C1301.88274013 -0.29849408 1332.05113851 -0.29999231 1362.21953716 -0.30006254 C1372.77115637 -0.30010223 1383.32277558 -0.30025919 1393.87439479 -0.30047707 C1396.4994586 -0.30053071 1399.12452241 -0.30057883 1401.74958622 -0.30062139 C1443.6093664 -0.30136542 1485.46912443 -0.31704518 1527.32889769 -0.3402327 C1569.48089199 -0.36347929 1611.63285774 -0.37074542 1653.7848568 -0.35605183 C1659.6058324 -0.35402407 1665.42680805 -0.35217015 1671.24778374 -0.3504195 C1672.95943696 -0.34989441 1672.95943696 -0.34989441 1674.70566904 -0.34935872 C1692.79538366 -0.34426623 1710.88504697 -0.35598787 1728.97475103 -0.37466405 C1746.74996049 -0.3926666 1764.52509594 -0.39291359 1782.3003054 -0.37410173 C1792.72931081 -0.36360044 1803.15809539 -0.3668494 1813.58708114 -0.39022049 C1820.50843159 -0.40437056 1827.42961816 -0.40047179 1834.35095739 -0.38173899 C1838.27774854 -0.37162063 1842.20410528 -0.36929388 1846.13086894 -0.38917454 C1850.35157663 -0.41037065 1854.57125048 -0.39283655 1858.79195758 -0.37158814 C1859.9992199 -0.38389626 1861.20648223 -0.39620438 1862.45032826 -0.40888547 C1873.14478527 -0.29584381 1882.71013508 2.73129345 1890.56722649 10.22826817 C1898.28051613 19.14675931 1900.61814399 27.7647216 1900.59138115 39.29458287 C1900.59923617 40.96791253 1900.59923617 40.96791253 1900.60724988 42.67504683 C1900.62225756 46.41499147 1900.62295522 50.15479938 1900.62362298 53.89477208 C1900.63124403 56.57566576 1900.63962275 59.25654796 1900.64884575 61.93743565 C1900.67166966 69.22277713 1900.67961375 76.50808944 1900.6846722 83.79346183 C1900.68793267 88.34617119 1900.69445733 92.89887214 1900.70167359 97.45157674 C1900.72123719 110.06712813 1900.73764245 122.68267171 1900.74055012 135.29823926 C1900.74073769 136.10513527 1900.74092526 136.91203128 1900.74111852 137.74337869 C1900.74148476 139.37902397 1900.74184846 141.01466926 1900.74220963 142.65031455 C1900.74239244 143.46220624 1900.74257525 144.27409793 1900.7427636 145.11059239 C1900.74294415 145.9234801 1900.7431247 146.73636782 1900.74331072 147.57388849 C1900.74685037 160.73778817 1900.77386067 173.90152406 1900.81126149 187.06536696 C1900.84939012 200.59413207 1900.86870794 214.12281602 1900.86900964 227.65163603 C1900.86959323 235.24205718 1900.87802162 242.83228299 1900.9070073 250.4226537 C1900.93158243 256.88761031 1900.93876309 263.35230037 1900.92375977 269.81729112 C1900.91661525 273.11212643 1900.92009031 276.40632949 1900.94017037 279.7011266 C1900.96066645 283.28351423 1900.95005609 286.86455494 1900.93195733 290.44692662 C1900.95175728 291.98753615 1900.95175728 291.98753615 1900.97195723 293.5592691 C1900.8553663 303.71550889 1897.41443023 313.08815153 1890.34066399 320.50170567 C1883.54950529 326.37514023 1875.72961174 330.50026777 1866.63445298 330.50341135 C1865.51622762 330.50864516 1864.39800226 330.51387898 1863.24589128 330.51927139 C1862.0242845 330.51484432 1860.80267773 330.51041724 1859.54405256 330.505856 C1858.2337403 330.50903333 1856.92342805 330.51221066 1855.57340935 330.51548427 C1851.9202041 330.5240534 1848.26710126 330.52012685 1844.61389461 330.51423662 C1840.63077918 330.5100179 1836.6476825 330.51739741 1832.66457155 330.52330023 C1825.65134329 330.53207893 1818.63814397 330.53337413 1811.62491155 330.52986594 C1801.12574158 330.52464676 1790.6265999 330.53088681 1780.12743318 330.53937942 C1762.23577718 330.55350479 1744.34413 330.55804646 1726.45246895 330.55740788 C1708.31370578 330.55678661 1690.17495119 330.56045803 1672.03619011 330.56938794 C1670.31953719 330.57022762 1670.31953719 330.57022762 1668.5682044 330.57108426 C1663.90730739 330.57337583 1659.2464104 330.57569418 1654.58551342 330.57804756 C1605.92447375 330.60257709 1557.26343758 330.6127161 1508.60239244 330.61757471 C1503.361997 330.6180984 1498.12160156 330.61862424 1492.88120612 330.61915138 C1491.58084212 330.61928044 1490.28047812 330.6194095 1488.94070915 330.61954248 C1460.14439241 330.62244621 1431.34807666 330.62860365 1402.55176057 330.63524869 C1390.70012364 330.6379721 1378.84848669 330.64060313 1366.99684974 330.64323434 C1365.03268143 330.64367071 1365.03268143 330.64367071 1363.02883296 330.64411589 C1332.18559571 330.65094842 1301.34235835 330.65701229 1270.49912079 330.66225198 C1269.49103892 330.66242334 1269.49103892 330.66242334 1268.46259175 330.66259817 C1225.63158953 330.66985672 1182.80058774 330.67357869 1139.96958495 330.67496076 C1136.45784635 330.67507507 1132.94610776 330.67519509 1129.43436916 330.67531434 C1117.45433534 330.67571905 1105.47430151 330.67610252 1093.49426769 330.67648496 C1087.83804011 330.67666574 1082.18181253 330.67684951 1076.52558495 330.67703517 C1072.98627612 330.67715119 1069.44696729 330.67726547 1065.90765845 330.67737596 C999.05874447 330.67946887 932.20983735 330.68621762 865.36092766 330.71160557 C864.6571549 330.71187273 863.95338215 330.71213988 863.22828294 330.71241513 C841.23921317 330.72077719 819.25014364 330.72971803 797.26107415 330.73876622 C774.69882028 330.74804855 752.13656638 330.75724953 729.57431229 330.76598695 C728.53226695 330.76639095 728.53226695 330.76639095 727.46917019 330.76680311 C683.96481084 330.78364417 640.46045342 330.79442859 596.95609101 330.79871133 C596.28421772 330.79877816 595.61234444 330.798845 594.92011136 330.79891387 C564.75171286 330.80190542 534.58331448 330.80340366 504.41491582 330.80347389 C493.86329661 330.80351358 483.3116774 330.80367053 472.76005819 330.80388841 C470.13499438 330.80394206 467.50993058 330.80399017 464.88486677 330.80403274 C423.02508658 330.80477677 381.16532856 330.82045653 339.3055553 330.84364404 C297.15356099 330.86689063 255.00159524 330.87415676 212.84959618 330.85946318 C207.02862058 330.85743541 201.20764493 330.8555815 195.38666924 330.85383084 C194.24556709 330.85348079 193.10446495 330.85313073 191.92878395 330.85277007 C173.83906933 330.84767757 155.74940601 330.85939921 137.65970196 330.8780754 C119.88449249 330.89607794 102.10935704 330.89632494 84.33414759 330.87751307 C73.90514217 330.86701179 63.47635759 330.87026075 53.04737184 330.89363183 C46.1260214 330.90778191 39.20483483 330.90388313 32.2834956 330.88515034 C28.35670444 330.87503198 24.4303477 330.87270523 20.50358404 330.89258589 C16.28287636 330.91378199 12.0632025 330.89624789 7.8424954 330.87499949 C6.63523308 330.88730761 5.42797076 330.89961572 4.18412473 330.91229681 C-6.51033229 330.79925515 -16.0756821 327.77211789 -23.93277351 320.27514317 C-31.64606314 311.35665203 -33.983691 302.73868975 -33.95692817 291.20882848 C-33.96216485 290.09327537 -33.96740153 288.97772226 -33.97279689 287.82836452 C-33.98780458 284.08841988 -33.98850223 280.34861196 -33.98916999 276.60863927 C-33.99679104 273.92774559 -34.00516976 271.24686339 -34.01439277 268.56597569 C-34.03721668 261.28063421 -34.04516077 253.99532191 -34.05021922 246.70994952 C-34.05347969 242.15724015 -34.06000434 237.60453921 -34.06722061 233.05183461 C-34.08678421 220.43628321 -34.10318946 207.82073963 -34.10609714 195.20517209 C-34.10628471 194.39827608 -34.10647228 193.59138006 -34.10666553 192.76003266 C-34.10703177 191.12438737 -34.10739547 189.48874208 -34.10775664 187.85309679 C-34.10793946 187.04120511 -34.10812227 186.22931342 -34.10831062 185.39281895 C-34.10849117 184.57993124 -34.10867172 183.76704353 -34.10885774 182.92952285 C-34.11239738 169.76562318 -34.13940769 156.60188728 -34.17680851 143.43804438 C-34.21493714 129.90927927 -34.23425495 116.38059533 -34.23455665 102.85177531 C-34.23514025 95.26135417 -34.24356864 87.67112835 -34.27255432 80.08075764 C-34.29712944 73.61580103 -34.3043101 67.15111098 -34.28930679 60.68612022 C-34.28216227 57.39128491 -34.28563732 54.09708186 -34.30571739 50.80228474 C-34.32621347 47.21989712 -34.31560311 43.63885641 -34.29750434 40.05648473 C-34.31070431 39.02941171 -34.32390428 38.00233869 -34.33750425 36.94414225 C-34.22091331 26.78790245 -30.77997725 17.41525981 -23.70621101 10.00170567 C-16.91505231 4.12827112 -9.09515875 0.00314357 0 0 Z " fill="#BEB1A8" transform="translate(1066.6827735081315,1834.748294327408)"/>
<path d="M0 0 C50.16 0 100.32 0 152 0 C152 16.83 152 33.66 152 51 C165.86 51 179.72 51 194 51 C194.33 54.63 194.66 58.26 195 62 C195.53367187 61.33613281 196.06734375 60.67226562 196.6171875 59.98828125 C202.45953052 53.06439722 207.92566198 47.53914243 217.30078125 46.70703125 C220.22133605 46.6898717 223.08899621 46.77492239 226 47 C226 48.32 226 49.64 226 51 C244.48 51 262.96 51 282 51 C282 97.2 282 143.4 282 191 C263.19 191 244.38 191 225 191 C225 160.97 225 130.94 225 100 C210.41454815 100.56851207 210.41454815 100.56851207 197 105 C196.67 133.38 196.34 161.76 196 191 C177.19 191 158.38 191 139 191 C139 145.13 139 99.26 139 52 C127.78 52 116.56 52 105 52 C105 97.87 105 143.74 105 191 C85.53 191 66.06 191 46 191 C46 145.13 46 99.26 46 52 C30.82 52 15.64 52 0 52 C0 34.84 0 17.68 0 0 Z " fill="#000000" transform="translate(2212,1911)"/>
<path d="M0 0 C18.81 0 37.62 0 57 0 C57.33 18.81 57.66 37.62 58 57 C61.63 54.69 65.26 52.38 69 50 C80.46637685 45.13071668 94.72298423 45.1921034 106.31640625 49.7265625 C122.57597951 57.44216786 132.60379926 69.16545293 139 86 C142.384122 96.65625859 143.64513207 106.57118087 143.52148438 117.70898438 C143.50000212 119.99977341 143.52144455 122.28742866 143.546875 124.578125 C143.57365829 137.83070765 141.53392494 150.71082153 135.125 162.5 C134.60401733 163.49567993 134.60401733 163.49567993 134.07250977 164.51147461 C131.47739472 169.36663922 128.67458661 173.87942134 125 178 C124.48050781 178.59941406 123.96101563 179.19882813 123.42578125 179.81640625 C115.34249804 188.54032263 104.13699533 194.32120998 92.25390625 195.3125 C74.63148485 195.59644637 64.65384419 191.12549997 52 179 C51.34 182.96 50.68 186.92 50 191 C33.5 191 17 191 0 191 C0 127.97 0 64.94 0 0 Z " fill="#000000" transform="translate(2504,1911)"/>
<path d="M0 0 C18.81 0 37.62 0 57 0 C57 63.03 57 126.06 57 191 C40.5 191 24 191 7 191 C6.67 186.71 6.34 182.42 6 178 C5.34 178 4.68 178 4 178 C3.65388672 178.86818359 3.65388672 178.86818359 3.30078125 179.75390625 C-0.86553038 186.94798789 -10.70478315 191.48976285 -18.27734375 194.15234375 C-30.95501634 197.03907507 -44.27430393 195.99720873 -55.6328125 189.4921875 C-71.65645488 178.95676514 -81.25732803 163.21749178 -85.20703125 144.546875 C-86.40906215 137.49745072 -86.37977711 130.38042664 -86.375 123.25 C-86.37653076 121.94804688 -86.37806152 120.64609375 -86.37963867 119.3046875 C-86.12096408 96.50664036 -80.39028207 76.44830077 -64 60 C-63.44699219 59.42378906 -62.89398437 58.84757812 -62.32421875 58.25390625 C-52.01204865 48.40232936 -39.24232718 46.50918561 -25.7109375 46.7265625 C-15.27042782 47.140901 -8.93338901 52.31511609 0 58 C0 38.86 0 19.72 0 0 Z " fill="#000000" transform="translate(1569,1911)"/>
<path d="M0 0 C42.57 0 85.14 0 129 0 C129 16.83 129 33.66 129 51 C106.23 51 83.46 51 60 51 C60 59.91 60 68.82 60 78 C80.46 78 100.92 78 122 78 C122 94.17 122 110.34 122 127 C101.54 127 81.08 127 60 127 C60 148.12 60 169.24 60 191 C40.2 191 20.4 191 0 191 C0 127.97 0 64.94 0 0 Z " fill="#010101" transform="translate(1143,1911)"/>
<path d="M0 0 C1.09159424 0.00829834 2.18318848 0.01659668 3.30786133 0.02514648 C22.78106781 0.43074807 39.47137864 7.82839088 53.57421875 21.23046875 C68.06304249 36.5007122 71.83927838 55.48062553 71.9375 75.8125 C71.9684375 77.40191406 71.9684375 77.40191406 72 79.0234375 C72.03567593 86.30132687 70.97048578 92.53684715 68.6875 99.4375 C68.12289063 101.18546875 68.12289063 101.18546875 67.546875 102.96875 C61.49157553 119.17307252 51.47037158 132.66563142 35.6875 140.4375 C34.31851562 141.11232422 34.31851562 141.11232422 32.921875 141.80078125 C15.44147123 149.7230498 -6.36868495 151.64117557 -24.796875 145.81640625 C-44.71401322 138.00446204 -57.80235655 125.58550206 -66.953125 106.1015625 C-70.64246783 96.15729937 -71.7693207 87.01332079 -71.625 76.4375 C-71.62822266 75.25671875 -71.63144531 74.0759375 -71.63476562 72.859375 C-71.52716876 55.09611154 -67.57459057 39.4714133 -56.3125 25.4375 C-55.80332031 24.75429687 -55.29414062 24.07109375 -54.76953125 23.3671875 C-41.83392055 7.07789996 -20.19421611 -0.2000363 0 0 Z " fill="#010101" transform="translate(1870.3125,1957.5625)"/>
<path d="M0 0 C21.45 0 42.9 0 65 0 C68.465 9.178125 71.93 18.35625 75.5 27.8125 C76.59634766 30.70878174 77.69269531 33.60506348 78.82226562 36.58911133 C79.6839851 38.87827069 80.54533852 41.16756789 81.40625 43.45703125 C82.0863916 45.24772034 82.0863916 45.24772034 82.78027344 47.07458496 C83.41980957 48.77947083 83.41980957 48.77947083 84.07226562 50.51879883 C84.44532837 51.50697098 84.81839111 52.49514313 85.20275879 53.51325989 C86 56 86 56 86 59 C86.66 59 87.32 59 88 59 C88.14163574 58.0409375 88.14163574 58.0409375 88.28613281 57.0625 C89.26296514 52.87187597 90.83823084 48.99472569 92.421875 45 C92.7637384 44.12786865 93.10560181 43.2557373 93.45782471 42.35717773 C94.5513316 39.56990718 95.65050225 36.78491206 96.75 34 C97.83392757 31.24315918 98.91668964 28.48586271 99.99932861 25.72851562 C100.67175947 24.01717264 101.34513894 22.30620191 102.01971436 20.59570312 C104.71944619 13.74482242 107.35627701 6.87367976 110 0 C131.12 0 152.24 0 174 0 C163.82107438 22.61983471 163.82107438 22.61983471 158.75 33 C154.24210564 42.29254256 149.82803678 51.62236892 145.5 61 C140.68208795 71.43322641 135.76285459 81.81237116 130.75195312 92.15429688 C129.73256631 94.25870776 128.7320962 96.37235633 127.74780273 98.4934082 C126.4675861 101.06188865 125.17021314 103.35476099 123.64477539 105.76245117 C114.55556479 120.98190226 115.74339164 137.61965903 115.91845703 154.75396729 C115.95619041 159.57597805 115.92603307 164.39802368 115.90778351 169.22008514 C115.88763992 176.48135256 115.95156986 183.7374156 116 191 C96.53 191 77.06 191 57 191 C57.07863281 186.27171875 57.15726563 181.5434375 57.23828125 176.671875 C57.25919344 173.60904312 57.27611481 170.54715362 57.27929688 167.484375 C57.28466807 162.66143794 57.30186741 157.84144313 57.40795898 153.01953125 C57.86916384 131.0582332 55.50918615 115.37453858 44.6499939 95.98937988 C42.27346469 91.68369814 40.22745943 87.24627528 38.171875 82.78125 C37.43839633 81.23374586 36.70242053 79.68742265 35.96386719 78.14233398 C33.59778221 73.18101141 31.23601487 68.21764339 28.875 63.25390625 C28.4707782 62.40433853 28.0665564 61.55477081 27.65008545 60.67945862 C23.33431128 51.60624221 19.03984009 42.52300074 14.75 33.4375 C14.40578003 32.70885742 14.06156006 31.98021484 13.70690918 31.22949219 C11.78200792 27.15459573 9.86103679 23.07788054 7.94311523 18.99969482 C6.95414709 16.9027777 5.95874391 14.80898709 4.96289062 12.71533203 C4.31369179 11.3428256 3.66459925 9.97026889 3.015625 8.59765625 C2.71154724 7.96218369 2.40746948 7.32671112 2.09417725 6.67198181 C0 2.22661744 0 2.22661744 0 0 Z " fill="#000000" transform="translate(1658,1911)"/>
<path d="M0 0 C0.70382812 0.31324219 1.40765625 0.62648438 2.1328125 0.94921875 C13.96071765 6.47036267 20.3485886 16.34820243 24.8717804 28.30438232 C28.09889555 39.17904832 27.37390578 50.47825104 27.29296875 61.703125 C27.28736502 63.99525676 27.2830986 66.28739215 27.28010559 68.57952881 C27.26871803 74.57674289 27.2393038 80.57373478 27.20599365 86.57086182 C27.1697282 93.78553171 27.15610261 101.00027641 27.13863373 108.2150116 C27.10966249 119.14349502 27.05213246 130.07149208 27 141 C8.19 141 -10.62 141 -30 141 C-30.04898437 134.47734375 -30.09796875 127.9546875 -30.1484375 121.234375 C-30.18381737 117.1054531 -30.21977367 112.97655241 -30.2578125 108.84765625 C-30.31815185 102.29218561 -30.37634073 95.73674471 -30.421875 89.18115234 C-30.45871354 83.8966921 -30.50506978 78.61239367 -30.55806351 73.32807159 C-30.57661503 71.31065963 -30.59172018 69.29321298 -30.60334396 67.27574921 C-30.6201933 64.45286949 -30.64922538 61.63036098 -30.68115234 58.80761719 C-30.68331253 57.97108109 -30.68547272 57.13454498 -30.68769836 56.2726593 C-30.73059335 50.81909945 -30.73059335 50.81909945 -33 46 C-36.01843577 43.67812633 -39.17661248 43.73301002 -42.90234375 43.63671875 C-46.0119724 44.17525779 -47.56373675 44.93999875 -50 47 C-50.51465572 50.16357308 -50.69091792 52.79955557 -50.65942383 55.96948242 C-50.67514938 57.34539299 -50.67514938 57.34539299 -50.69119263 58.74909973 C-50.72002362 61.78489677 -50.71364164 64.81955889 -50.70703125 67.85546875 C-50.72014139 69.95869889 -50.7354435 72.06191642 -50.75285339 74.16511536 C-50.79279608 79.70375169 -50.80289983 85.24205937 -50.80688477 90.78082275 C-50.81783596 97.42474339 -50.86567936 104.06848746 -50.90737152 110.71227264 C-50.96658103 120.80832985 -50.97879285 130.90346912 -51 141 C-69.81 141 -88.62 141 -108 141 C-108 94.8 -108 48.6 -108 1 C-90.18 1 -72.36 1 -54 1 C-54 4.63 -54 8.26 -54 12 C-53.26136719 11.40832031 -52.52273438 10.81664062 -51.76171875 10.20703125 C-37.14547342 -1.1776681 -18.07057349 -8.81034185 0 0 Z " fill="#000000" transform="translate(1450,1961)"/>
<path d="M0 0 C18.81 0 37.62 0 57 0 C57.03738281 6.42726563 57.07476563 12.85453125 57.11328125 19.4765625 C57.14356085 23.55080796 57.17470867 27.62500973 57.20898438 31.69921875 C57.26329334 38.16452834 57.31440409 44.6297515 57.34643555 51.09521484 C57.37246424 56.30841867 57.41286393 61.52133199 57.46318626 66.73435593 C57.47985785 68.72219603 57.4913703 70.71008639 57.49761391 72.6979866 C57.5072517 75.48467641 57.53530741 78.27062252 57.56762695 81.05712891 C57.56619186 81.87712372 57.56475677 82.69711853 57.5632782 83.54196167 C57.6429394 88.40570996 58.30930619 91.78445551 61 96 C63.29877109 97.14938555 64.75462681 97.19841264 67.3125 97.25 C68.07175781 97.27578125 68.83101562 97.3015625 69.61328125 97.328125 C72.90441649 96.87566124 74.44844072 96.17612939 77 94 C77.51465572 90.83642692 77.69091792 88.20044443 77.65942383 85.03051758 C77.66990753 84.11324387 77.68039124 83.19597015 77.69119263 82.25090027 C77.72002362 79.21510323 77.71364164 76.18044111 77.70703125 73.14453125 C77.72014139 71.04130111 77.7354435 68.93808358 77.75285339 66.83488464 C77.79279608 61.29624831 77.80289983 55.75794063 77.80688477 50.21917725 C77.81783596 43.57525661 77.86567936 36.93151254 77.90737152 30.28772736 C77.96658103 20.19167015 77.97879285 10.09653088 78 0 C96.81 0 115.62 0 135 0 C135 46.2 135 92.4 135 140 C118.5 140 102 140 85 140 C84.06508817 135.32544083 83.92027988 131.7034873 84 127 C83.34 127 82.68 127 82 127 C81.76539063 127.5878125 81.53078125 128.175625 81.2890625 128.78125 C77.07386909 136.03649199 66.10385668 140.8096667 58.26953125 143.08203125 C45.78294041 146.06676459 32.18045046 144.62280664 21 138.3046875 C14.40243047 133.87642752 10.02733729 128.80481127 6 122 C5.4225 121.05125 4.845 120.1025 4.25 119.125 C-0.89146169 106.27134577 -0.39040021 93.72552713 -0.29296875 80.078125 C-0.28736514 77.76357296 -0.28309866 75.44901734 -0.28010559 73.13446045 C-0.26871706 67.07806364 -0.23930196 61.02188679 -0.20599365 54.96557617 C-0.16973087 47.67998804 -0.15610308 40.39432587 -0.13863373 33.1086731 C-0.10966074 22.07229632 -0.05213136 11.03640102 0 0 Z " fill="#000000" transform="translate(1948,1962)"/>
<path d="M0 0 C1.02996094 -0.020625 2.05992187 -0.04125 3.12109375 -0.0625 C20.42184697 -0.14954781 36.12873354 6.83541101 48.78125 18.4609375 C68.35795264 38.64103166 68.375 63.1046971 68.375 90.25 C40.655 90.25 12.935 90.25 -15.625 90.25 C-10.66976213 99.86169706 -10.66976213 99.86169706 -2.625 103.25 C-1.14 103.745 -1.14 103.745 0.375 104.25 C14.37778313 105.1886481 25.9156727 103.2004732 38.25390625 96.10546875 C40.84646391 95.05985157 41.78812038 95.28979411 44.375 96.25 C46.06487278 98.59543982 47.50040126 100.84702884 48.921875 103.34765625 C49.33794006 104.05651474 49.75400513 104.76537323 50.18267822 105.49571228 C51.5087645 107.76123181 52.81696529 110.03651961 54.125 112.3125 C55.02097632 113.85028529 55.91809823 115.38740374 56.81640625 116.92382812 C59.0159716 120.69160979 61.1995516 124.46824651 63.375 128.25 C59.70140883 132.04148964 56.17181998 134.82077599 51.5 137.25 C50.5241394 137.76264404 50.5241394 137.76264404 49.52856445 138.28564453 C28.18392409 149.15154073 1.08378632 152.68763822 -22.0234375 145.63671875 C-33.46518996 141.23127176 -43.05359397 136.23486903 -51.625 127.25 C-52.26824219 126.61449219 -52.91148437 125.97898437 -53.57421875 125.32421875 C-68.88570559 109.28203188 -70.12739185 87.08362653 -69.8984375 66.1796875 C-69.39808653 47.6865176 -61.42074977 31.16309488 -48.46875 18.0703125 C-34.80763836 5.32314847 -18.45100398 0.09033539 0 0 Z " fill="#010101" transform="translate(2718.625,1957.75)"/>
<path d="M0 0 C0 17.49 0 34.98 0 53 C-8.415 53.495 -8.415 53.495 -17 54 C-23.19251326 55.56264695 -23.19251326 55.56264695 -29 58 C-29.33 86.38 -29.66 114.76 -30 144 C-48.81 144 -67.62 144 -87 144 C-87 97.8 -87 51.6 -87 4 C-68.85 4 -50.7 4 -32 4 C-31.505 9.445 -31.505 9.445 -31 15 C-30.46632813 14.33613281 -29.93265625 13.67226562 -29.3828125 12.98828125 C-20.26792146 2.18603149 -14.8553034 0 0 0 Z " fill="#000000" transform="translate(2180,1958)"/>
<path d="M0 0 C18.81 0 37.62 0 57 0 C57 46.2 57 92.4 57 140 C38.19 140 19.38 140 0 140 C0 93.8 0 47.6 0 0 Z " fill="#000000" transform="translate(1275,1962)"/>
<path d="M0 0 C7.31152666 5.22912983 11.16052103 10.4815631 14 19 C14.90476135 30.15441497 14.53938461 40.37018535 7.015625 49.375 C-0.24361805 56.37682309 -7.47549812 59.17727962 -17.5 59.5 C-27.73162909 59.17061154 -34.65095979 56.25964762 -42.0859375 49.21875 C-48.57668583 41.69478051 -49.49285183 32.30479441 -49.40234375 22.7109375 C-48.55617373 14.90645677 -44.89119338 8.40041073 -39.25 3 C-28.06891717 -5.61217115 -12.34626548 -7.52614813 0 0 Z " fill="#010101" transform="translate(2842,2047)"/>
<path d="M0 0 C6.07035988 4.11549822 10.55884824 9.79763847 12.88671875 16.78125 C13.61383375 26.51420358 14.17922074 35.69955468 7.88671875 43.78125 C1.60585384 50.55220293 -5.0489389 54.32957127 -14.3125 55.01953125 C-25.3528843 55.25443304 -33.24998212 53.37886777 -41.421875 45.71875 C-48.21268143 37.93990476 -48.87982553 28.63303947 -48.33105469 18.74609375 C-47.60642809 12.20820711 -44.04383051 7.35568894 -39.42578125 2.90625 C-28.01209518 -6.08441892 -12.65702177 -7.29942845 0 0 Z " fill="#010101" transform="translate(2483.11328125,1900.21875)"/>
<path d="M0 0 C6.07035988 4.11549822 10.55884824 9.79763847 12.88671875 16.78125 C13.61383375 26.51420358 14.17922074 35.69955468 7.88671875 43.78125 C1.60585384 50.55220293 -5.0489389 54.32957127 -14.3125 55.01953125 C-25.3528843 55.25443304 -33.24998212 53.37886777 -41.421875 45.71875 C-48.21268143 37.93990476 -48.87982553 28.63303947 -48.33105469 18.74609375 C-47.60642809 12.20820711 -44.04383051 7.35568894 -39.42578125 2.90625 C-28.01209518 -6.08441892 -12.65702177 -7.29942845 0 0 Z " fill="#010101" transform="translate(1321.11328125,1900.21875)"/>
<path d="M0 0 C6.14042219 3.0702111 9.82283513 7.54255464 12 14 C12.43858105 18.22032909 12.37025889 22.44657666 12.375 26.6875 C12.39949219 27.82123047 12.42398438 28.95496094 12.44921875 30.12304688 C12.47581952 37.81510316 11.87565563 45.70562402 6.48144531 51.68261719 C2.76932478 54.87120461 0.12330398 56.17252255 -4.6875 56.3125 C-5.93080078 56.36857422 -5.93080078 56.36857422 -7.19921875 56.42578125 C-10 56 -10 56 -17 52 C-17 36.16 -17 20.32 -17 4 C-10.20450073 0.11685756 -7.35908322 -1.20421362 0 0 Z " fill="#BDB0A7" transform="translate(2578,2004)"/>
<path d="M0 0 C0.72445313 -0.03738281 1.44890625 -0.07476563 2.1953125 -0.11328125 C4.875 0.3125 4.875 0.3125 12.875 4.3125 C12.875 20.1525 12.875 35.9925 12.875 52.3125 C6.06724583 56.20264524 3.24225089 57.50587287 -4.125 56.3125 C-9.81919538 53.57085037 -12.67053548 49.5784817 -15.20703125 43.8828125 C-16.56160438 38.61438766 -16.53384392 33.48168302 -16.5625 28.0625 C-16.59537109 26.98097656 -16.62824219 25.89945313 -16.66210938 24.78515625 C-16.7122161 17.2327057 -15.37834971 11.62359738 -11.125 5.3125 C-7.54538855 1.89938211 -4.9223851 0.16293609 0 0 Z " fill="#BDB0A7" transform="translate(1556.125,2003.6875)"/>
<path d="M0 0 C4.6924117 2.07339122 7.76428631 5.16874795 9.82836914 9.89794922 C11.90337917 15.71535277 12.43075249 20.85087036 12.3125 27 C12.31733398 28.25683594 12.31733398 28.25683594 12.32226562 29.5390625 C12.24096214 39.08852636 10.80942707 46.4210646 4.4375 53.8125 C1.04233041 56.61720532 -2.82453651 56.35995375 -7 56 C-13.12889499 52.72175384 -14.91645488 46.25063535 -17 40 C-17.25976321 36.12952812 -17.23146592 32.25325612 -17.25 28.375 C-17.270625 27.31925781 -17.29125 26.26351563 -17.3125 25.17578125 C-17.35620102 16.35909954 -16.36648968 8.56544248 -10 2 C-6.27420911 -0.48386059 -4.41288598 -0.3804212 0 0 Z " fill="#BCAFA7" transform="translate(1873,2004)"/>
<path d="M0 0 C5.70487539 2.90625728 9.12980625 6.51994783 11.25 12.5625 C12 16 12 16 12 20 C1.44 20 -9.12 20 -20 20 C-20 12.64266223 -19.16243041 9.7040713 -15 4 C-10.41656055 -0.27093222 -6.03751181 -1.07309456 0 0 Z " fill="#B9ACA4" transform="translate(2723,1997)"/>
</svg>
